%TF.GenerationSoftware,KiCad,Pcbnew,0.201512191116+6384~39~ubuntu14.04.1-stable*%
%TF.CreationDate,2015-12-20T22:07:31+01:00*%
%TF.ProjectId,hv,68762E6B696361645F70636200000000,rev?*%
%TF.FileFunction,Legend,Bot*%
%FSLAX46Y46*%
G04 Gerber Fmt 4.6, Leading zero omitted, Abs format (unit mm)*
G04 Created by KiCad (PCBNEW 0.201512191116+6384~39~ubuntu14.04.1-stable) date Son 20 Dez 2015 22:07:31 CET*
%MOMM*%
G01*
G04 APERTURE LIST*
%ADD10C,0.100000*%
%ADD11C,0.150000*%
G04 APERTURE END LIST*
D10*
D11*
X173447000Y-93429000D02*
X173592000Y-93429000D01*
X173447000Y-97579000D02*
X173592000Y-97579000D01*
X178597000Y-97579000D02*
X178452000Y-97579000D01*
X178597000Y-93429000D02*
X178452000Y-93429000D01*
X173447000Y-93429000D02*
X173447000Y-97579000D01*
X178597000Y-93429000D02*
X178597000Y-97579000D01*
X173592000Y-93429000D02*
X173592000Y-92029000D01*
X171108000Y-96004000D02*
X171108000Y-95004000D01*
X172808000Y-95004000D02*
X172808000Y-96004000D01*
X201922000Y-86702000D02*
X200922000Y-86702000D01*
X200922000Y-85002000D02*
X201922000Y-85002000D01*
X173394000Y-86860000D02*
X173394000Y-85860000D01*
X175094000Y-85860000D02*
X175094000Y-86860000D01*
X199890000Y-88988000D02*
X198890000Y-88988000D01*
X198890000Y-87288000D02*
X199890000Y-87288000D01*
X170829000Y-85506000D02*
X170829000Y-86706000D01*
X172579000Y-86706000D02*
X172579000Y-85506000D01*
X177659000Y-90262000D02*
X177659000Y-89062000D01*
X175909000Y-89062000D02*
X175909000Y-90262000D01*
X172628000Y-90791000D02*
X173828000Y-90791000D01*
X173828000Y-89041000D02*
X172628000Y-89041000D01*
X175909000Y-85506000D02*
X175909000Y-86706000D01*
X177659000Y-86706000D02*
X177659000Y-85506000D01*
X194086421Y-76435000D02*
G75*
G03X194086421Y-76435000I-141421J0D01*
G01*
X196445000Y-76035000D02*
X196445000Y-77635000D01*
X196445000Y-77635000D02*
X193445000Y-77635000D01*
X193445000Y-77635000D02*
X193445000Y-76035000D01*
X193445000Y-76035000D02*
X196445000Y-76035000D01*
X175728381Y-94742095D02*
X176537905Y-94742095D01*
X176633143Y-94789714D01*
X176680762Y-94837333D01*
X176728381Y-94932571D01*
X176728381Y-95123048D01*
X176680762Y-95218286D01*
X176633143Y-95265905D01*
X176537905Y-95313524D01*
X175728381Y-95313524D01*
X176728381Y-96313524D02*
X176728381Y-95742095D01*
X176728381Y-96027809D02*
X175728381Y-96027809D01*
X175871238Y-95932571D01*
X175966476Y-95837333D01*
X176014095Y-95742095D01*
X170791143Y-95337334D02*
X170838762Y-95289715D01*
X170886381Y-95146858D01*
X170886381Y-95051620D01*
X170838762Y-94908762D01*
X170743524Y-94813524D01*
X170648286Y-94765905D01*
X170457810Y-94718286D01*
X170314952Y-94718286D01*
X170124476Y-94765905D01*
X170029238Y-94813524D01*
X169934000Y-94908762D01*
X169886381Y-95051620D01*
X169886381Y-95146858D01*
X169934000Y-95289715D01*
X169981619Y-95337334D01*
X170886381Y-96289715D02*
X170886381Y-95718286D01*
X170886381Y-96004000D02*
X169886381Y-96004000D01*
X170029238Y-95908762D01*
X170124476Y-95813524D01*
X170172095Y-95718286D01*
X201588666Y-87987143D02*
X201636285Y-88034762D01*
X201779142Y-88082381D01*
X201874380Y-88082381D01*
X202017238Y-88034762D01*
X202112476Y-87939524D01*
X202160095Y-87844286D01*
X202207714Y-87653810D01*
X202207714Y-87510952D01*
X202160095Y-87320476D01*
X202112476Y-87225238D01*
X202017238Y-87130000D01*
X201874380Y-87082381D01*
X201779142Y-87082381D01*
X201636285Y-87130000D01*
X201588666Y-87177619D01*
X201207714Y-87177619D02*
X201160095Y-87130000D01*
X201064857Y-87082381D01*
X200826761Y-87082381D01*
X200731523Y-87130000D01*
X200683904Y-87177619D01*
X200636285Y-87272857D01*
X200636285Y-87368095D01*
X200683904Y-87510952D01*
X201255333Y-88082381D01*
X200636285Y-88082381D01*
X175871143Y-83399334D02*
X175918762Y-83351715D01*
X175966381Y-83208858D01*
X175966381Y-83113620D01*
X175918762Y-82970762D01*
X175823524Y-82875524D01*
X175728286Y-82827905D01*
X175537810Y-82780286D01*
X175394952Y-82780286D01*
X175204476Y-82827905D01*
X175109238Y-82875524D01*
X175014000Y-82970762D01*
X174966381Y-83113620D01*
X174966381Y-83208858D01*
X175014000Y-83351715D01*
X175061619Y-83399334D01*
X174966381Y-83732667D02*
X174966381Y-84351715D01*
X175347333Y-84018381D01*
X175347333Y-84161239D01*
X175394952Y-84256477D01*
X175442571Y-84304096D01*
X175537810Y-84351715D01*
X175775905Y-84351715D01*
X175871143Y-84304096D01*
X175918762Y-84256477D01*
X175966381Y-84161239D01*
X175966381Y-83875524D01*
X175918762Y-83780286D01*
X175871143Y-83732667D01*
X199556666Y-90273143D02*
X199604285Y-90320762D01*
X199747142Y-90368381D01*
X199842380Y-90368381D01*
X199985238Y-90320762D01*
X200080476Y-90225524D01*
X200128095Y-90130286D01*
X200175714Y-89939810D01*
X200175714Y-89796952D01*
X200128095Y-89606476D01*
X200080476Y-89511238D01*
X199985238Y-89416000D01*
X199842380Y-89368381D01*
X199747142Y-89368381D01*
X199604285Y-89416000D01*
X199556666Y-89463619D01*
X198699523Y-89701714D02*
X198699523Y-90368381D01*
X198937619Y-89320762D02*
X199175714Y-90035048D01*
X198556666Y-90035048D01*
X170378381Y-85939334D02*
X169902190Y-85606000D01*
X170378381Y-85367905D02*
X169378381Y-85367905D01*
X169378381Y-85748858D01*
X169426000Y-85844096D01*
X169473619Y-85891715D01*
X169568857Y-85939334D01*
X169711714Y-85939334D01*
X169806952Y-85891715D01*
X169854571Y-85844096D01*
X169902190Y-85748858D01*
X169902190Y-85367905D01*
X170378381Y-86891715D02*
X170378381Y-86320286D01*
X170378381Y-86606000D02*
X169378381Y-86606000D01*
X169521238Y-86510762D01*
X169616476Y-86415524D01*
X169664095Y-86320286D01*
X179014381Y-88479334D02*
X178538190Y-88146000D01*
X179014381Y-87907905D02*
X178014381Y-87907905D01*
X178014381Y-88288858D01*
X178062000Y-88384096D01*
X178109619Y-88431715D01*
X178204857Y-88479334D01*
X178347714Y-88479334D01*
X178442952Y-88431715D01*
X178490571Y-88384096D01*
X178538190Y-88288858D01*
X178538190Y-87907905D01*
X178014381Y-88812667D02*
X178014381Y-89431715D01*
X178395333Y-89098381D01*
X178395333Y-89241239D01*
X178442952Y-89336477D01*
X178490571Y-89384096D01*
X178585810Y-89431715D01*
X178823905Y-89431715D01*
X178919143Y-89384096D01*
X178966762Y-89336477D01*
X179014381Y-89241239D01*
X179014381Y-88955524D01*
X178966762Y-88860286D01*
X178919143Y-88812667D01*
X170854666Y-89860381D02*
X171188000Y-89384190D01*
X171426095Y-89860381D02*
X171426095Y-88860381D01*
X171045142Y-88860381D01*
X170949904Y-88908000D01*
X170902285Y-88955619D01*
X170854666Y-89050857D01*
X170854666Y-89193714D01*
X170902285Y-89288952D01*
X170949904Y-89336571D01*
X171045142Y-89384190D01*
X171426095Y-89384190D01*
X169997523Y-89193714D02*
X169997523Y-89860381D01*
X170235619Y-88812762D02*
X170473714Y-89527048D01*
X169854666Y-89527048D01*
X179014381Y-85939334D02*
X178538190Y-85606000D01*
X179014381Y-85367905D02*
X178014381Y-85367905D01*
X178014381Y-85748858D01*
X178062000Y-85844096D01*
X178109619Y-85891715D01*
X178204857Y-85939334D01*
X178347714Y-85939334D01*
X178442952Y-85891715D01*
X178490571Y-85844096D01*
X178538190Y-85748858D01*
X178538190Y-85367905D01*
X178014381Y-86844096D02*
X178014381Y-86367905D01*
X178490571Y-86320286D01*
X178442952Y-86367905D01*
X178395333Y-86463143D01*
X178395333Y-86701239D01*
X178442952Y-86796477D01*
X178490571Y-86844096D01*
X178585810Y-86891715D01*
X178823905Y-86891715D01*
X178919143Y-86844096D01*
X178966762Y-86796477D01*
X179014381Y-86701239D01*
X179014381Y-86463143D01*
X178966762Y-86367905D01*
X178919143Y-86320286D01*
X195706905Y-76287381D02*
X195706905Y-77096905D01*
X195659286Y-77192143D01*
X195611667Y-77239762D01*
X195516429Y-77287381D01*
X195325952Y-77287381D01*
X195230714Y-77239762D01*
X195183095Y-77192143D01*
X195135476Y-77096905D01*
X195135476Y-76287381D01*
X194230714Y-76620714D02*
X194230714Y-77287381D01*
X194468810Y-76239762D02*
X194706905Y-76954048D01*
X194087857Y-76954048D01*
M02*
