G04 #@! TF.FileFunction,Legend,Bot*
%FSLAX46Y46*%
G04 Gerber Fmt 4.6, Leading zero omitted, Abs format (unit mm)*
G04 Created by KiCad (PCBNEW 4.0.0-2.201511301920+6191~38~ubuntu14.04.1-stable) date Fri 11 Dec 2015 10:08:10 PM CET*
%MOMM*%
G01*
G04 APERTURE LIST*
%ADD10C,0.100000*%
%ADD11C,0.150000*%
G04 APERTURE END LIST*
D10*
D11*
X104850000Y-102500000D02*
X104850000Y-103500000D01*
X103150000Y-103500000D02*
X103150000Y-102500000D01*
X106768000Y-90940000D02*
X106768000Y-91940000D01*
X105068000Y-91940000D02*
X105068000Y-90940000D01*
X125500000Y-101850000D02*
X124500000Y-101850000D01*
X124500000Y-100150000D02*
X125500000Y-100150000D01*
X92400000Y-98875000D02*
X93600000Y-98875000D01*
X93600000Y-97125000D02*
X92400000Y-97125000D01*
X119239000Y-91786000D02*
X119239000Y-90586000D01*
X117489000Y-90586000D02*
X117489000Y-91786000D01*
X100600000Y-108125000D02*
X99400000Y-108125000D01*
X99400000Y-109875000D02*
X100600000Y-109875000D01*
X104507000Y-92040000D02*
X104507000Y-90840000D01*
X102757000Y-90840000D02*
X102757000Y-92040000D01*
X101575000Y-104075000D02*
X101430000Y-104075000D01*
X101575000Y-99925000D02*
X101430000Y-99925000D01*
X96425000Y-99925000D02*
X96570000Y-99925000D01*
X96425000Y-104075000D02*
X96570000Y-104075000D01*
X101575000Y-104075000D02*
X101575000Y-99925000D01*
X96425000Y-104075000D02*
X96425000Y-99925000D01*
X101430000Y-104075000D02*
X101430000Y-105475000D01*
X106457143Y-102833334D02*
X106504762Y-102785715D01*
X106552381Y-102642858D01*
X106552381Y-102547620D01*
X106504762Y-102404762D01*
X106409524Y-102309524D01*
X106314286Y-102261905D01*
X106123810Y-102214286D01*
X105980952Y-102214286D01*
X105790476Y-102261905D01*
X105695238Y-102309524D01*
X105600000Y-102404762D01*
X105552381Y-102547620D01*
X105552381Y-102642858D01*
X105600000Y-102785715D01*
X105647619Y-102833334D01*
X106552381Y-103785715D02*
X106552381Y-103214286D01*
X106552381Y-103500000D02*
X105552381Y-103500000D01*
X105695238Y-103404762D01*
X105790476Y-103309524D01*
X105838095Y-103214286D01*
X108053143Y-91273334D02*
X108100762Y-91225715D01*
X108148381Y-91082858D01*
X108148381Y-90987620D01*
X108100762Y-90844762D01*
X108005524Y-90749524D01*
X107910286Y-90701905D01*
X107719810Y-90654286D01*
X107576952Y-90654286D01*
X107386476Y-90701905D01*
X107291238Y-90749524D01*
X107196000Y-90844762D01*
X107148381Y-90987620D01*
X107148381Y-91082858D01*
X107196000Y-91225715D01*
X107243619Y-91273334D01*
X107148381Y-91606667D02*
X107148381Y-92225715D01*
X107529333Y-91892381D01*
X107529333Y-92035239D01*
X107576952Y-92130477D01*
X107624571Y-92178096D01*
X107719810Y-92225715D01*
X107957905Y-92225715D01*
X108053143Y-92178096D01*
X108100762Y-92130477D01*
X108148381Y-92035239D01*
X108148381Y-91749524D01*
X108100762Y-91654286D01*
X108053143Y-91606667D01*
X125166666Y-103457143D02*
X125214285Y-103504762D01*
X125357142Y-103552381D01*
X125452380Y-103552381D01*
X125595238Y-103504762D01*
X125690476Y-103409524D01*
X125738095Y-103314286D01*
X125785714Y-103123810D01*
X125785714Y-102980952D01*
X125738095Y-102790476D01*
X125690476Y-102695238D01*
X125595238Y-102600000D01*
X125452380Y-102552381D01*
X125357142Y-102552381D01*
X125214285Y-102600000D01*
X125166666Y-102647619D01*
X124309523Y-102885714D02*
X124309523Y-103552381D01*
X124547619Y-102504762D02*
X124785714Y-103219048D01*
X124166666Y-103219048D01*
X94019666Y-96591381D02*
X94353000Y-96115190D01*
X94591095Y-96591381D02*
X94591095Y-95591381D01*
X94210142Y-95591381D01*
X94114904Y-95639000D01*
X94067285Y-95686619D01*
X94019666Y-95781857D01*
X94019666Y-95924714D01*
X94067285Y-96019952D01*
X94114904Y-96067571D01*
X94210142Y-96115190D01*
X94591095Y-96115190D01*
X93067285Y-96591381D02*
X93638714Y-96591381D01*
X93353000Y-96591381D02*
X93353000Y-95591381D01*
X93448238Y-95734238D01*
X93543476Y-95829476D01*
X93638714Y-95877095D01*
X117038381Y-91019334D02*
X116562190Y-90686000D01*
X117038381Y-90447905D02*
X116038381Y-90447905D01*
X116038381Y-90828858D01*
X116086000Y-90924096D01*
X116133619Y-90971715D01*
X116228857Y-91019334D01*
X116371714Y-91019334D01*
X116466952Y-90971715D01*
X116514571Y-90924096D01*
X116562190Y-90828858D01*
X116562190Y-90447905D01*
X116038381Y-91352667D02*
X116038381Y-91971715D01*
X116419333Y-91638381D01*
X116419333Y-91781239D01*
X116466952Y-91876477D01*
X116514571Y-91924096D01*
X116609810Y-91971715D01*
X116847905Y-91971715D01*
X116943143Y-91924096D01*
X116990762Y-91876477D01*
X117038381Y-91781239D01*
X117038381Y-91495524D01*
X116990762Y-91400286D01*
X116943143Y-91352667D01*
X100166666Y-111552381D02*
X100500000Y-111076190D01*
X100738095Y-111552381D02*
X100738095Y-110552381D01*
X100357142Y-110552381D01*
X100261904Y-110600000D01*
X100214285Y-110647619D01*
X100166666Y-110742857D01*
X100166666Y-110885714D01*
X100214285Y-110980952D01*
X100261904Y-111028571D01*
X100357142Y-111076190D01*
X100738095Y-111076190D01*
X99309523Y-110885714D02*
X99309523Y-111552381D01*
X99547619Y-110504762D02*
X99785714Y-111219048D01*
X99166666Y-111219048D01*
X102433381Y-91273334D02*
X101957190Y-90940000D01*
X102433381Y-90701905D02*
X101433381Y-90701905D01*
X101433381Y-91082858D01*
X101481000Y-91178096D01*
X101528619Y-91225715D01*
X101623857Y-91273334D01*
X101766714Y-91273334D01*
X101861952Y-91225715D01*
X101909571Y-91178096D01*
X101957190Y-91082858D01*
X101957190Y-90701905D01*
X101433381Y-92178096D02*
X101433381Y-91701905D01*
X101909571Y-91654286D01*
X101861952Y-91701905D01*
X101814333Y-91797143D01*
X101814333Y-92035239D01*
X101861952Y-92130477D01*
X101909571Y-92178096D01*
X102004810Y-92225715D01*
X102242905Y-92225715D01*
X102338143Y-92178096D01*
X102385762Y-92130477D01*
X102433381Y-92035239D01*
X102433381Y-91797143D01*
X102385762Y-91701905D01*
X102338143Y-91654286D01*
X94829381Y-101219095D02*
X95638905Y-101219095D01*
X95734143Y-101266714D01*
X95781762Y-101314333D01*
X95829381Y-101409571D01*
X95829381Y-101600048D01*
X95781762Y-101695286D01*
X95734143Y-101742905D01*
X95638905Y-101790524D01*
X94829381Y-101790524D01*
X95829381Y-102790524D02*
X95829381Y-102219095D01*
X95829381Y-102504809D02*
X94829381Y-102504809D01*
X94972238Y-102409571D01*
X95067476Y-102314333D01*
X95115095Y-102219095D01*
M02*
