%TF.GenerationSoftware,KiCad,Pcbnew,0.201512191116+6384~39~ubuntu14.04.1-stable*%
%TF.CreationDate,2015-12-20T22:07:31+01:00*%
%TF.ProjectId,hv,68762E6B696361645F70636200000000,rev?*%
%TF.FileFunction,Copper,L2,Bot,Signal*%
%FSLAX46Y46*%
G04 Gerber Fmt 4.6, Leading zero omitted, Abs format (unit mm)*
G04 Created by KiCad (PCBNEW 0.201512191116+6384~39~ubuntu14.04.1-stable) date Son 20 Dez 2015 22:07:31 CET*
%MOMM*%
G01*
G04 APERTURE LIST*
%ADD10C,0.100000*%
%ADD11C,2.349500*%
%ADD12R,1.727200X1.727200*%
%ADD13O,1.727200X1.727200*%
%ADD14R,2.235200X2.235200*%
%ADD15R,2.540000X2.540000*%
%ADD16C,2.540000*%
%ADD17C,3.000000*%
%ADD18R,0.600000X1.550000*%
%ADD19R,1.250000X1.000000*%
%ADD20R,1.000000X1.250000*%
%ADD21C,1.998980*%
%ADD22R,1.998980X1.998980*%
%ADD23R,1.300000X0.700000*%
%ADD24R,0.700000X1.300000*%
%ADD25C,1.800000*%
%ADD26C,1.397000*%
%ADD27R,2.032000X1.727200*%
%ADD28O,2.032000X1.727200*%
%ADD29R,1.727200X2.032000*%
%ADD30O,1.727200X2.032000*%
%ADD31R,2.032000X2.032000*%
%ADD32O,2.032000X2.032000*%
%ADD33R,0.600000X0.900000*%
%ADD34C,0.600000*%
%ADD35C,0.500000*%
%ADD36C,0.350000*%
%ADD37C,1.000000*%
%ADD38C,0.254000*%
G04 APERTURE END LIST*
D10*
D11*
X174998740Y-110000000D03*
X170000020Y-110000000D03*
X185001260Y-110000000D03*
X189999980Y-110000000D03*
D12*
X157480000Y-82042000D03*
D13*
X160020000Y-82042000D03*
X157480000Y-84582000D03*
X160020000Y-84582000D03*
X157480000Y-87122000D03*
X160020000Y-87122000D03*
D14*
X168148000Y-67310000D03*
X172466000Y-67310000D03*
X163830000Y-67310000D03*
D15*
X200000000Y-98460000D03*
D16*
X200000000Y-103540000D03*
D17*
X168000000Y-91250000D03*
X168000000Y-95000000D03*
X168000000Y-98750000D03*
X188000000Y-91250000D03*
X188000000Y-98750000D03*
X193000000Y-91250000D03*
X193000000Y-98750000D03*
D18*
X174117000Y-92804000D03*
X175387000Y-92804000D03*
X176657000Y-92804000D03*
X177927000Y-92804000D03*
X177927000Y-98204000D03*
X176657000Y-98204000D03*
X175387000Y-98204000D03*
X174117000Y-98204000D03*
D19*
X171958000Y-94504000D03*
X171958000Y-96504000D03*
D20*
X200422000Y-85852000D03*
X202422000Y-85852000D03*
D19*
X174244000Y-85360000D03*
X174244000Y-87360000D03*
D20*
X198390000Y-88138000D03*
X200390000Y-88138000D03*
D21*
X169926000Y-81280000D03*
D22*
X166116000Y-81280000D03*
D15*
X160000000Y-104080000D03*
D16*
X160000000Y-99000000D03*
X160000000Y-93920000D03*
D23*
X171704000Y-87056000D03*
X171704000Y-85156000D03*
X176784000Y-88712000D03*
X176784000Y-90612000D03*
D24*
X174178000Y-89916000D03*
X172278000Y-89916000D03*
D23*
X176784000Y-87056000D03*
X176784000Y-85156000D03*
D25*
X193000000Y-104500000D03*
X185500000Y-103100000D03*
D14*
X179832000Y-103632000D03*
D26*
X176530000Y-72390000D03*
X176530000Y-67310000D03*
X184150000Y-72390000D03*
X184150000Y-67310000D03*
X176530000Y-80772000D03*
X176530000Y-75692000D03*
X184150000Y-80772000D03*
X184150000Y-75692000D03*
D27*
X187960000Y-73660000D03*
D28*
X187960000Y-76200000D03*
X187960000Y-78740000D03*
X187960000Y-81280000D03*
D27*
X201930000Y-81280000D03*
D28*
X201930000Y-78740000D03*
X201930000Y-76200000D03*
X201930000Y-73660000D03*
D29*
X192405000Y-71755000D03*
D30*
X194945000Y-71755000D03*
X197485000Y-71755000D03*
D31*
X196215000Y-81915000D03*
D32*
X193675000Y-81915000D03*
D33*
X195895000Y-78235000D03*
X194945000Y-75435000D03*
X193995000Y-78235000D03*
X195895000Y-75435000D03*
X193995000Y-75435000D03*
D29*
X187325000Y-67310000D03*
D30*
X189865000Y-67310000D03*
X192405000Y-67310000D03*
D34*
X174244000Y-84074000D03*
X178308000Y-91440000D03*
X196596000Y-85852000D03*
X202438000Y-84836000D03*
X156464000Y-77724000D03*
X171704000Y-83058000D03*
X178308000Y-90424000D03*
D35*
X174244000Y-85360000D02*
X174244000Y-84074000D01*
X176784000Y-85156000D02*
X175448000Y-85156000D01*
X175448000Y-85156000D02*
X175244000Y-85360000D01*
X175244000Y-85360000D02*
X174244000Y-85360000D01*
D36*
X157480000Y-84582000D02*
X157734000Y-84582000D01*
X157734000Y-84582000D02*
X159004000Y-83312000D01*
X159004000Y-83312000D02*
X161544000Y-83312000D01*
X161544000Y-83312000D02*
X163576000Y-81280000D01*
X163576000Y-81280000D02*
X166116000Y-81280000D01*
D35*
X177927000Y-92804000D02*
X177927000Y-91821000D01*
X177927000Y-91821000D02*
X178308000Y-91440000D01*
X168000000Y-95000000D02*
X170176000Y-95000000D01*
X170176000Y-95000000D02*
X170672000Y-94504000D01*
X170672000Y-94504000D02*
X171958000Y-94504000D01*
X171958000Y-94504000D02*
X177530000Y-94504000D01*
X177530000Y-94504000D02*
X177927000Y-94107000D01*
X177927000Y-94107000D02*
X177927000Y-92804000D01*
X198390000Y-88138000D02*
X197358000Y-88138000D01*
X197358000Y-88138000D02*
X196596000Y-87376000D01*
X196596000Y-87376000D02*
X196596000Y-85852000D01*
D36*
X171958000Y-94504000D02*
X170672000Y-94504000D01*
X170672000Y-94504000D02*
X170176000Y-95000000D01*
X171958000Y-94504000D02*
X177530000Y-94504000D01*
X177530000Y-94504000D02*
X177927000Y-94107000D01*
X177927000Y-94107000D02*
X177927000Y-92804000D01*
D35*
X176530000Y-75692000D02*
X177292000Y-75692000D01*
X177292000Y-75692000D02*
X178054000Y-76454000D01*
X178054000Y-76454000D02*
X178054000Y-83058000D01*
X176530000Y-67310000D02*
X177292000Y-67310000D01*
X178054000Y-74930000D02*
X177292000Y-75692000D01*
X178054000Y-68072000D02*
X178054000Y-74930000D01*
X177292000Y-67310000D02*
X178054000Y-68072000D01*
X157480000Y-82042000D02*
X157480000Y-80518000D01*
X157480000Y-80518000D02*
X158750000Y-79248000D01*
X158750000Y-79248000D02*
X170434000Y-79248000D01*
X170434000Y-79248000D02*
X174244000Y-83058000D01*
X174244000Y-83058000D02*
X178054000Y-83058000D01*
X178054000Y-83058000D02*
X179324000Y-84328000D01*
X176784000Y-87056000D02*
X177866000Y-87056000D01*
X177866000Y-87056000D02*
X178562000Y-86360000D01*
X178562000Y-86360000D02*
X178562000Y-85090000D01*
X178562000Y-85090000D02*
X179324000Y-84328000D01*
X201930000Y-84328000D02*
X202438000Y-84836000D01*
X179324000Y-84328000D02*
X201930000Y-84328000D01*
X174117000Y-98204000D02*
X174117000Y-96647000D01*
X178374000Y-88712000D02*
X176784000Y-88712000D01*
X179324000Y-89662000D02*
X178374000Y-88712000D01*
X179324000Y-94234000D02*
X179324000Y-89662000D01*
X178054000Y-95504000D02*
X179324000Y-94234000D01*
X175260000Y-95504000D02*
X178054000Y-95504000D01*
X174117000Y-96647000D02*
X175260000Y-95504000D01*
X176784000Y-87056000D02*
X176784000Y-88712000D01*
X176784000Y-87056000D02*
X175580000Y-87056000D01*
X175580000Y-87056000D02*
X175276000Y-87360000D01*
X175276000Y-87360000D02*
X174244000Y-87360000D01*
X200390000Y-88138000D02*
X201676000Y-88138000D01*
X202422000Y-84852000D02*
X202438000Y-84836000D01*
X202422000Y-87392000D02*
X202422000Y-84852000D01*
X201676000Y-88138000D02*
X202422000Y-87392000D01*
D36*
X174244000Y-87360000D02*
X175276000Y-87360000D01*
X175276000Y-87360000D02*
X175580000Y-87056000D01*
X171958000Y-96504000D02*
X173720000Y-96504000D01*
X173720000Y-96504000D02*
X174117000Y-96901000D01*
X174117000Y-96901000D02*
X174117000Y-98204000D01*
D37*
X160000000Y-93920000D02*
X161420000Y-93920000D01*
X161420000Y-93920000D02*
X164000000Y-96500000D01*
X164000000Y-96500000D02*
X164000000Y-101000000D01*
X164000000Y-101000000D02*
X170000020Y-107000020D01*
X170000020Y-107000020D02*
X170000020Y-110000000D01*
X185001260Y-110000000D02*
X185001260Y-103598740D01*
X185001260Y-103598740D02*
X188000000Y-100600000D01*
X188000000Y-100600000D02*
X188000000Y-98750000D01*
D36*
X160020000Y-84582000D02*
X159766000Y-84582000D01*
X159766000Y-84582000D02*
X158496000Y-85852000D01*
X174244000Y-78486000D02*
X176530000Y-80772000D01*
X157734000Y-78486000D02*
X174244000Y-78486000D01*
X155956000Y-80264000D02*
X157734000Y-78486000D01*
X155956000Y-85090000D02*
X155956000Y-80264000D01*
X156718000Y-85852000D02*
X155956000Y-85090000D01*
X158496000Y-85852000D02*
X156718000Y-85852000D01*
X161798000Y-72390000D02*
X176530000Y-72390000D01*
X156464000Y-77724000D02*
X161798000Y-72390000D01*
X168000000Y-91250000D02*
X168000000Y-88752000D01*
X168000000Y-88752000D02*
X166370000Y-87122000D01*
X166370000Y-87122000D02*
X160020000Y-87122000D01*
D37*
X160000000Y-104080000D02*
X162080000Y-104080000D01*
X162080000Y-104080000D02*
X164000000Y-106000000D01*
X164000000Y-106000000D02*
X164000000Y-111500000D01*
X164000000Y-111500000D02*
X166500000Y-114000000D01*
X166500000Y-114000000D02*
X194000000Y-114000000D01*
X194000000Y-114000000D02*
X196500000Y-111500000D01*
X196500000Y-111500000D02*
X196500000Y-105000000D01*
X196500000Y-105000000D02*
X197960000Y-103540000D01*
X197960000Y-103540000D02*
X200000000Y-103540000D01*
D35*
X171704000Y-85156000D02*
X171704000Y-83058000D01*
X174178000Y-89916000D02*
X174178000Y-88834000D01*
X174178000Y-88834000D02*
X173736000Y-88392000D01*
X173736000Y-88392000D02*
X172466000Y-88392000D01*
X172466000Y-88392000D02*
X171704000Y-87630000D01*
X171704000Y-87630000D02*
X171704000Y-87056000D01*
D36*
X171704000Y-87056000D02*
X171704000Y-87630000D01*
X171704000Y-87630000D02*
X172466000Y-88392000D01*
X172466000Y-88392000D02*
X173736000Y-88392000D01*
X173736000Y-88392000D02*
X174178000Y-88834000D01*
X175387000Y-92804000D02*
X175387000Y-90297000D01*
X175387000Y-90297000D02*
X175006000Y-89916000D01*
X175006000Y-89916000D02*
X174178000Y-89916000D01*
D35*
X176784000Y-90612000D02*
X178120000Y-90612000D01*
X178120000Y-90612000D02*
X178308000Y-90424000D01*
D36*
X176657000Y-92804000D02*
X176657000Y-90739000D01*
X176657000Y-90739000D02*
X176784000Y-90612000D01*
D37*
X193000000Y-98750000D02*
X193000000Y-104500000D01*
D35*
X172278000Y-89916000D02*
X170688000Y-89916000D01*
X169926000Y-89154000D02*
X169926000Y-81280000D01*
X170688000Y-89916000D02*
X169926000Y-89154000D01*
D36*
X174117000Y-92804000D02*
X173322000Y-92804000D01*
X173322000Y-92804000D02*
X172278000Y-91760000D01*
X172278000Y-91760000D02*
X172278000Y-89916000D01*
D35*
X193995000Y-75435000D02*
X193995000Y-74615000D01*
X192405000Y-73025000D02*
X192405000Y-71755000D01*
X193995000Y-74615000D02*
X192405000Y-73025000D01*
X194945000Y-75435000D02*
X194945000Y-71755000D01*
X195895000Y-75435000D02*
X195895000Y-74615000D01*
X197485000Y-73025000D02*
X197485000Y-71755000D01*
X195895000Y-74615000D02*
X197485000Y-73025000D01*
X195895000Y-78235000D02*
X195895000Y-80325000D01*
X196215000Y-80645000D02*
X196215000Y-81915000D01*
X195895000Y-80325000D02*
X196215000Y-80645000D01*
X193995000Y-78235000D02*
X193995000Y-80325000D01*
X193675000Y-80645000D02*
X193675000Y-81915000D01*
X193995000Y-80325000D02*
X193675000Y-80645000D01*
D38*
G36*
X195323818Y-87902955D02*
X195622314Y-88349686D01*
X196384314Y-89111686D01*
X196831045Y-89410182D01*
X196987198Y-89441243D01*
X197066331Y-89564219D01*
X197442944Y-89821548D01*
X197890000Y-89912079D01*
X198890000Y-89912079D01*
X199307641Y-89833494D01*
X199386325Y-89782862D01*
X199442944Y-89821548D01*
X199890000Y-89912079D01*
X200890000Y-89912079D01*
X201307641Y-89833494D01*
X201691219Y-89586669D01*
X201750285Y-89500224D01*
X202202955Y-89410182D01*
X202649686Y-89111686D01*
X203395686Y-88365686D01*
X203694182Y-87918955D01*
X203776921Y-87503000D01*
X203798000Y-87503000D01*
X203798000Y-109329737D01*
X203791766Y-109323492D01*
X202631121Y-108841550D01*
X201374393Y-108840453D01*
X200212908Y-109320369D01*
X199323492Y-110208234D01*
X198841550Y-111368879D01*
X198840453Y-112625607D01*
X199320369Y-113787092D01*
X199331258Y-113798000D01*
X196502926Y-113798000D01*
X197650463Y-112650463D01*
X198003152Y-112122626D01*
X198127000Y-111500000D01*
X198127000Y-105673926D01*
X198435413Y-105365513D01*
X198640436Y-105570893D01*
X199521115Y-105936583D01*
X200474701Y-105937415D01*
X201356018Y-105573263D01*
X202030893Y-104899564D01*
X202396583Y-104018885D01*
X202397415Y-103065299D01*
X202033263Y-102183982D01*
X201359564Y-101509107D01*
X200478885Y-101143417D01*
X199525299Y-101142585D01*
X198643982Y-101506737D01*
X198237010Y-101913000D01*
X197960005Y-101913000D01*
X197960000Y-101912999D01*
X197337374Y-102036848D01*
X196809537Y-102389537D01*
X195349537Y-103849537D01*
X195027147Y-104332028D01*
X195027351Y-104098574D01*
X194719409Y-103353297D01*
X194627000Y-103260727D01*
X194627000Y-100837739D01*
X195225764Y-100240019D01*
X195626543Y-99274835D01*
X195627455Y-98229750D01*
X195228361Y-97263868D01*
X195154622Y-97190000D01*
X197580921Y-97190000D01*
X197580921Y-99730000D01*
X197659506Y-100147641D01*
X197906331Y-100531219D01*
X198282944Y-100788548D01*
X198730000Y-100879079D01*
X201270000Y-100879079D01*
X201687641Y-100800494D01*
X202071219Y-100553669D01*
X202328548Y-100177056D01*
X202419079Y-99730000D01*
X202419079Y-97190000D01*
X202340494Y-96772359D01*
X202093669Y-96388781D01*
X201717056Y-96131452D01*
X201270000Y-96040921D01*
X198730000Y-96040921D01*
X198312359Y-96119506D01*
X197928781Y-96366331D01*
X197671452Y-96742944D01*
X197580921Y-97190000D01*
X195154622Y-97190000D01*
X194490019Y-96524236D01*
X193524835Y-96123457D01*
X192479750Y-96122545D01*
X191513868Y-96521639D01*
X190774236Y-97259981D01*
X190499820Y-97920849D01*
X190228361Y-97263868D01*
X189490019Y-96524236D01*
X188524835Y-96123457D01*
X187479750Y-96122545D01*
X186513868Y-96521639D01*
X185774236Y-97259981D01*
X185373457Y-98225165D01*
X185372545Y-99270250D01*
X185771639Y-100236132D01*
X185917163Y-100381911D01*
X185226313Y-101072761D01*
X185098574Y-101072649D01*
X184353297Y-101380591D01*
X183782595Y-101950298D01*
X183473353Y-102695036D01*
X183472997Y-103102354D01*
X183374260Y-103598740D01*
X183374260Y-108371834D01*
X183051069Y-108694461D01*
X182699910Y-109540145D01*
X182699111Y-110455838D01*
X183048793Y-111302133D01*
X183695721Y-111950191D01*
X184541405Y-112301350D01*
X185457098Y-112302149D01*
X186303393Y-111952467D01*
X186951451Y-111305539D01*
X187302610Y-110459855D01*
X187302613Y-110455838D01*
X187697831Y-110455838D01*
X188047513Y-111302133D01*
X188694441Y-111950191D01*
X189540125Y-112301350D01*
X190455818Y-112302149D01*
X191302113Y-111952467D01*
X191950171Y-111305539D01*
X192301330Y-110459855D01*
X192302129Y-109544162D01*
X191952447Y-108697867D01*
X191305519Y-108049809D01*
X190459835Y-107698650D01*
X189544142Y-107697851D01*
X188697847Y-108047533D01*
X188049789Y-108694461D01*
X187698630Y-109540145D01*
X187697831Y-110455838D01*
X187302613Y-110455838D01*
X187303409Y-109544162D01*
X186953727Y-108697867D01*
X186628260Y-108371832D01*
X186628260Y-104827029D01*
X186646703Y-104819409D01*
X187217405Y-104249702D01*
X187526647Y-103504964D01*
X187526761Y-103374165D01*
X189150463Y-101750463D01*
X189503152Y-101222626D01*
X189567995Y-100896641D01*
X190225764Y-100240019D01*
X190500180Y-99579151D01*
X190771639Y-100236132D01*
X191373000Y-100838544D01*
X191373000Y-103260051D01*
X191282595Y-103350298D01*
X190973353Y-104095036D01*
X190972649Y-104901426D01*
X191280591Y-105646703D01*
X191850298Y-106217405D01*
X192595036Y-106526647D01*
X193401426Y-106527351D01*
X194146703Y-106219409D01*
X194717405Y-105649702D01*
X194873000Y-105274987D01*
X194873000Y-110826074D01*
X193326074Y-112373000D01*
X167173926Y-112373000D01*
X165627000Y-110826074D01*
X165627000Y-106000000D01*
X165503152Y-105377374D01*
X165150463Y-104849537D01*
X163230463Y-102929537D01*
X162702626Y-102576848D01*
X162362477Y-102509188D01*
X162340494Y-102392359D01*
X162093669Y-102008781D01*
X161717056Y-101751452D01*
X161270000Y-101660921D01*
X158730000Y-101660921D01*
X158312359Y-101739506D01*
X157928781Y-101986331D01*
X157671452Y-102362944D01*
X157580921Y-102810000D01*
X157580921Y-105350000D01*
X157659506Y-105767641D01*
X157906331Y-106151219D01*
X158282944Y-106408548D01*
X158730000Y-106499079D01*
X161270000Y-106499079D01*
X161687641Y-106420494D01*
X161950453Y-106251379D01*
X162373000Y-106673926D01*
X162373000Y-111500000D01*
X162496848Y-112122626D01*
X162849537Y-112650463D01*
X163997074Y-113798000D01*
X160670263Y-113798000D01*
X160676508Y-113791766D01*
X161158450Y-112631121D01*
X161159547Y-111374393D01*
X160679631Y-110212908D01*
X159791766Y-109323492D01*
X158631121Y-108841550D01*
X157374393Y-108840453D01*
X156212908Y-109320369D01*
X156202000Y-109331258D01*
X156202000Y-100347777D01*
X158831828Y-100347777D01*
X158963520Y-100642657D01*
X159671036Y-100914261D01*
X160428632Y-100894436D01*
X161036480Y-100642657D01*
X161168172Y-100347777D01*
X160000000Y-99179605D01*
X158831828Y-100347777D01*
X156202000Y-100347777D01*
X156202000Y-98671036D01*
X158085739Y-98671036D01*
X158105564Y-99428632D01*
X158357343Y-100036480D01*
X158652223Y-100168172D01*
X159820395Y-99000000D01*
X160179605Y-99000000D01*
X161347777Y-100168172D01*
X161642657Y-100036480D01*
X161914261Y-99328964D01*
X161894436Y-98571368D01*
X161642657Y-97963520D01*
X161347777Y-97831828D01*
X160179605Y-99000000D01*
X159820395Y-99000000D01*
X158652223Y-97831828D01*
X158357343Y-97963520D01*
X158085739Y-98671036D01*
X156202000Y-98671036D01*
X156202000Y-97652223D01*
X158831828Y-97652223D01*
X160000000Y-98820395D01*
X161168172Y-97652223D01*
X161036480Y-97357343D01*
X160328964Y-97085739D01*
X159571368Y-97105564D01*
X158963520Y-97357343D01*
X158831828Y-97652223D01*
X156202000Y-97652223D01*
X156202000Y-90043000D01*
X165481000Y-90043000D01*
X165481000Y-90466172D01*
X165373457Y-90725165D01*
X165372545Y-91770250D01*
X165481000Y-92032731D01*
X165481000Y-94216172D01*
X165373457Y-94475165D01*
X165372545Y-95520250D01*
X165481000Y-95782731D01*
X165481000Y-95844221D01*
X165150463Y-95349537D01*
X162570463Y-92769537D01*
X162042626Y-92416848D01*
X161847675Y-92378070D01*
X161359564Y-91889107D01*
X160478885Y-91523417D01*
X159525299Y-91522585D01*
X158643982Y-91886737D01*
X157969107Y-92560436D01*
X157603417Y-93441115D01*
X157602585Y-94394701D01*
X157966737Y-95276018D01*
X158640436Y-95950893D01*
X159521115Y-96316583D01*
X160474701Y-96317415D01*
X161211890Y-96012816D01*
X162373000Y-97173926D01*
X162373000Y-101000000D01*
X162496848Y-101622626D01*
X162849537Y-102150463D01*
X168373020Y-107673945D01*
X168373020Y-108371834D01*
X168049829Y-108694461D01*
X167698670Y-109540145D01*
X167697871Y-110455838D01*
X168047553Y-111302133D01*
X168694481Y-111950191D01*
X169540165Y-112301350D01*
X170455858Y-112302149D01*
X171302153Y-111952467D01*
X171950211Y-111305539D01*
X172301370Y-110459855D01*
X172301373Y-110455838D01*
X172696591Y-110455838D01*
X173046273Y-111302133D01*
X173693201Y-111950191D01*
X174538885Y-112301350D01*
X175454578Y-112302149D01*
X176300873Y-111952467D01*
X176948931Y-111305539D01*
X177300090Y-110459855D01*
X177300889Y-109544162D01*
X176951207Y-108697867D01*
X176304279Y-108049809D01*
X175458595Y-107698650D01*
X174542902Y-107697851D01*
X173696607Y-108047533D01*
X173048549Y-108694461D01*
X172697390Y-109540145D01*
X172696591Y-110455838D01*
X172301373Y-110455838D01*
X172302169Y-109544162D01*
X171952487Y-108697867D01*
X171627020Y-108371832D01*
X171627020Y-107000025D01*
X171627021Y-107000020D01*
X171503172Y-106377394D01*
X171352047Y-106151219D01*
X171150483Y-105849557D01*
X171150480Y-105849555D01*
X169218676Y-103917750D01*
X178079400Y-103917750D01*
X178079400Y-104875910D01*
X178176073Y-105109299D01*
X178354702Y-105287927D01*
X178588091Y-105384600D01*
X179546250Y-105384600D01*
X179705000Y-105225850D01*
X179705000Y-103759000D01*
X179959000Y-103759000D01*
X179959000Y-105225850D01*
X180117750Y-105384600D01*
X181075909Y-105384600D01*
X181309298Y-105287927D01*
X181487927Y-105109299D01*
X181584600Y-104875910D01*
X181584600Y-103917750D01*
X181425850Y-103759000D01*
X179959000Y-103759000D01*
X179705000Y-103759000D01*
X178238150Y-103759000D01*
X178079400Y-103917750D01*
X169218676Y-103917750D01*
X167689016Y-102388090D01*
X178079400Y-102388090D01*
X178079400Y-103346250D01*
X178238150Y-103505000D01*
X179705000Y-103505000D01*
X179705000Y-102038150D01*
X179959000Y-102038150D01*
X179959000Y-103505000D01*
X181425850Y-103505000D01*
X181584600Y-103346250D01*
X181584600Y-102388090D01*
X181487927Y-102154701D01*
X181309298Y-101976073D01*
X181075909Y-101879400D01*
X180117750Y-101879400D01*
X179959000Y-102038150D01*
X179705000Y-102038150D01*
X179546250Y-101879400D01*
X178588091Y-101879400D01*
X178354702Y-101976073D01*
X178176073Y-102154701D01*
X178079400Y-102388090D01*
X167689016Y-102388090D01*
X165627000Y-100326074D01*
X165627000Y-99886079D01*
X165771639Y-100236132D01*
X166509981Y-100975764D01*
X167067773Y-101207379D01*
X167296197Y-101435803D01*
X167338211Y-101463666D01*
X167386000Y-101473000D01*
X179324000Y-101473000D01*
X179373410Y-101462994D01*
X179413803Y-101435803D01*
X181445803Y-99403803D01*
X181473666Y-99361789D01*
X181483000Y-99314000D01*
X181483000Y-91770250D01*
X185372545Y-91770250D01*
X185771639Y-92736132D01*
X186509981Y-93475764D01*
X187475165Y-93876543D01*
X188520250Y-93877455D01*
X189486132Y-93478361D01*
X190225764Y-92740019D01*
X190500180Y-92079151D01*
X190771639Y-92736132D01*
X191509981Y-93475764D01*
X192475165Y-93876543D01*
X193520250Y-93877455D01*
X194486132Y-93478361D01*
X195225764Y-92740019D01*
X195626543Y-91774835D01*
X195627455Y-90729750D01*
X195228361Y-89763868D01*
X194490019Y-89024236D01*
X193524835Y-88623457D01*
X192479750Y-88622545D01*
X191513868Y-89021639D01*
X190774236Y-89759981D01*
X190499820Y-90420849D01*
X190228361Y-89763868D01*
X189490019Y-89024236D01*
X188524835Y-88623457D01*
X187479750Y-88622545D01*
X186513868Y-89021639D01*
X185774236Y-89759981D01*
X185373457Y-90725165D01*
X185372545Y-91770250D01*
X181483000Y-91770250D01*
X181483000Y-90222606D01*
X184202606Y-87503000D01*
X195244262Y-87503000D01*
X195323818Y-87902955D01*
X195323818Y-87902955D01*
G37*
X195323818Y-87902955D02*
X195622314Y-88349686D01*
X196384314Y-89111686D01*
X196831045Y-89410182D01*
X196987198Y-89441243D01*
X197066331Y-89564219D01*
X197442944Y-89821548D01*
X197890000Y-89912079D01*
X198890000Y-89912079D01*
X199307641Y-89833494D01*
X199386325Y-89782862D01*
X199442944Y-89821548D01*
X199890000Y-89912079D01*
X200890000Y-89912079D01*
X201307641Y-89833494D01*
X201691219Y-89586669D01*
X201750285Y-89500224D01*
X202202955Y-89410182D01*
X202649686Y-89111686D01*
X203395686Y-88365686D01*
X203694182Y-87918955D01*
X203776921Y-87503000D01*
X203798000Y-87503000D01*
X203798000Y-109329737D01*
X203791766Y-109323492D01*
X202631121Y-108841550D01*
X201374393Y-108840453D01*
X200212908Y-109320369D01*
X199323492Y-110208234D01*
X198841550Y-111368879D01*
X198840453Y-112625607D01*
X199320369Y-113787092D01*
X199331258Y-113798000D01*
X196502926Y-113798000D01*
X197650463Y-112650463D01*
X198003152Y-112122626D01*
X198127000Y-111500000D01*
X198127000Y-105673926D01*
X198435413Y-105365513D01*
X198640436Y-105570893D01*
X199521115Y-105936583D01*
X200474701Y-105937415D01*
X201356018Y-105573263D01*
X202030893Y-104899564D01*
X202396583Y-104018885D01*
X202397415Y-103065299D01*
X202033263Y-102183982D01*
X201359564Y-101509107D01*
X200478885Y-101143417D01*
X199525299Y-101142585D01*
X198643982Y-101506737D01*
X198237010Y-101913000D01*
X197960005Y-101913000D01*
X197960000Y-101912999D01*
X197337374Y-102036848D01*
X196809537Y-102389537D01*
X195349537Y-103849537D01*
X195027147Y-104332028D01*
X195027351Y-104098574D01*
X194719409Y-103353297D01*
X194627000Y-103260727D01*
X194627000Y-100837739D01*
X195225764Y-100240019D01*
X195626543Y-99274835D01*
X195627455Y-98229750D01*
X195228361Y-97263868D01*
X195154622Y-97190000D01*
X197580921Y-97190000D01*
X197580921Y-99730000D01*
X197659506Y-100147641D01*
X197906331Y-100531219D01*
X198282944Y-100788548D01*
X198730000Y-100879079D01*
X201270000Y-100879079D01*
X201687641Y-100800494D01*
X202071219Y-100553669D01*
X202328548Y-100177056D01*
X202419079Y-99730000D01*
X202419079Y-97190000D01*
X202340494Y-96772359D01*
X202093669Y-96388781D01*
X201717056Y-96131452D01*
X201270000Y-96040921D01*
X198730000Y-96040921D01*
X198312359Y-96119506D01*
X197928781Y-96366331D01*
X197671452Y-96742944D01*
X197580921Y-97190000D01*
X195154622Y-97190000D01*
X194490019Y-96524236D01*
X193524835Y-96123457D01*
X192479750Y-96122545D01*
X191513868Y-96521639D01*
X190774236Y-97259981D01*
X190499820Y-97920849D01*
X190228361Y-97263868D01*
X189490019Y-96524236D01*
X188524835Y-96123457D01*
X187479750Y-96122545D01*
X186513868Y-96521639D01*
X185774236Y-97259981D01*
X185373457Y-98225165D01*
X185372545Y-99270250D01*
X185771639Y-100236132D01*
X185917163Y-100381911D01*
X185226313Y-101072761D01*
X185098574Y-101072649D01*
X184353297Y-101380591D01*
X183782595Y-101950298D01*
X183473353Y-102695036D01*
X183472997Y-103102354D01*
X183374260Y-103598740D01*
X183374260Y-108371834D01*
X183051069Y-108694461D01*
X182699910Y-109540145D01*
X182699111Y-110455838D01*
X183048793Y-111302133D01*
X183695721Y-111950191D01*
X184541405Y-112301350D01*
X185457098Y-112302149D01*
X186303393Y-111952467D01*
X186951451Y-111305539D01*
X187302610Y-110459855D01*
X187302613Y-110455838D01*
X187697831Y-110455838D01*
X188047513Y-111302133D01*
X188694441Y-111950191D01*
X189540125Y-112301350D01*
X190455818Y-112302149D01*
X191302113Y-111952467D01*
X191950171Y-111305539D01*
X192301330Y-110459855D01*
X192302129Y-109544162D01*
X191952447Y-108697867D01*
X191305519Y-108049809D01*
X190459835Y-107698650D01*
X189544142Y-107697851D01*
X188697847Y-108047533D01*
X188049789Y-108694461D01*
X187698630Y-109540145D01*
X187697831Y-110455838D01*
X187302613Y-110455838D01*
X187303409Y-109544162D01*
X186953727Y-108697867D01*
X186628260Y-108371832D01*
X186628260Y-104827029D01*
X186646703Y-104819409D01*
X187217405Y-104249702D01*
X187526647Y-103504964D01*
X187526761Y-103374165D01*
X189150463Y-101750463D01*
X189503152Y-101222626D01*
X189567995Y-100896641D01*
X190225764Y-100240019D01*
X190500180Y-99579151D01*
X190771639Y-100236132D01*
X191373000Y-100838544D01*
X191373000Y-103260051D01*
X191282595Y-103350298D01*
X190973353Y-104095036D01*
X190972649Y-104901426D01*
X191280591Y-105646703D01*
X191850298Y-106217405D01*
X192595036Y-106526647D01*
X193401426Y-106527351D01*
X194146703Y-106219409D01*
X194717405Y-105649702D01*
X194873000Y-105274987D01*
X194873000Y-110826074D01*
X193326074Y-112373000D01*
X167173926Y-112373000D01*
X165627000Y-110826074D01*
X165627000Y-106000000D01*
X165503152Y-105377374D01*
X165150463Y-104849537D01*
X163230463Y-102929537D01*
X162702626Y-102576848D01*
X162362477Y-102509188D01*
X162340494Y-102392359D01*
X162093669Y-102008781D01*
X161717056Y-101751452D01*
X161270000Y-101660921D01*
X158730000Y-101660921D01*
X158312359Y-101739506D01*
X157928781Y-101986331D01*
X157671452Y-102362944D01*
X157580921Y-102810000D01*
X157580921Y-105350000D01*
X157659506Y-105767641D01*
X157906331Y-106151219D01*
X158282944Y-106408548D01*
X158730000Y-106499079D01*
X161270000Y-106499079D01*
X161687641Y-106420494D01*
X161950453Y-106251379D01*
X162373000Y-106673926D01*
X162373000Y-111500000D01*
X162496848Y-112122626D01*
X162849537Y-112650463D01*
X163997074Y-113798000D01*
X160670263Y-113798000D01*
X160676508Y-113791766D01*
X161158450Y-112631121D01*
X161159547Y-111374393D01*
X160679631Y-110212908D01*
X159791766Y-109323492D01*
X158631121Y-108841550D01*
X157374393Y-108840453D01*
X156212908Y-109320369D01*
X156202000Y-109331258D01*
X156202000Y-100347777D01*
X158831828Y-100347777D01*
X158963520Y-100642657D01*
X159671036Y-100914261D01*
X160428632Y-100894436D01*
X161036480Y-100642657D01*
X161168172Y-100347777D01*
X160000000Y-99179605D01*
X158831828Y-100347777D01*
X156202000Y-100347777D01*
X156202000Y-98671036D01*
X158085739Y-98671036D01*
X158105564Y-99428632D01*
X158357343Y-100036480D01*
X158652223Y-100168172D01*
X159820395Y-99000000D01*
X160179605Y-99000000D01*
X161347777Y-100168172D01*
X161642657Y-100036480D01*
X161914261Y-99328964D01*
X161894436Y-98571368D01*
X161642657Y-97963520D01*
X161347777Y-97831828D01*
X160179605Y-99000000D01*
X159820395Y-99000000D01*
X158652223Y-97831828D01*
X158357343Y-97963520D01*
X158085739Y-98671036D01*
X156202000Y-98671036D01*
X156202000Y-97652223D01*
X158831828Y-97652223D01*
X160000000Y-98820395D01*
X161168172Y-97652223D01*
X161036480Y-97357343D01*
X160328964Y-97085739D01*
X159571368Y-97105564D01*
X158963520Y-97357343D01*
X158831828Y-97652223D01*
X156202000Y-97652223D01*
X156202000Y-90043000D01*
X165481000Y-90043000D01*
X165481000Y-90466172D01*
X165373457Y-90725165D01*
X165372545Y-91770250D01*
X165481000Y-92032731D01*
X165481000Y-94216172D01*
X165373457Y-94475165D01*
X165372545Y-95520250D01*
X165481000Y-95782731D01*
X165481000Y-95844221D01*
X165150463Y-95349537D01*
X162570463Y-92769537D01*
X162042626Y-92416848D01*
X161847675Y-92378070D01*
X161359564Y-91889107D01*
X160478885Y-91523417D01*
X159525299Y-91522585D01*
X158643982Y-91886737D01*
X157969107Y-92560436D01*
X157603417Y-93441115D01*
X157602585Y-94394701D01*
X157966737Y-95276018D01*
X158640436Y-95950893D01*
X159521115Y-96316583D01*
X160474701Y-96317415D01*
X161211890Y-96012816D01*
X162373000Y-97173926D01*
X162373000Y-101000000D01*
X162496848Y-101622626D01*
X162849537Y-102150463D01*
X168373020Y-107673945D01*
X168373020Y-108371834D01*
X168049829Y-108694461D01*
X167698670Y-109540145D01*
X167697871Y-110455838D01*
X168047553Y-111302133D01*
X168694481Y-111950191D01*
X169540165Y-112301350D01*
X170455858Y-112302149D01*
X171302153Y-111952467D01*
X171950211Y-111305539D01*
X172301370Y-110459855D01*
X172301373Y-110455838D01*
X172696591Y-110455838D01*
X173046273Y-111302133D01*
X173693201Y-111950191D01*
X174538885Y-112301350D01*
X175454578Y-112302149D01*
X176300873Y-111952467D01*
X176948931Y-111305539D01*
X177300090Y-110459855D01*
X177300889Y-109544162D01*
X176951207Y-108697867D01*
X176304279Y-108049809D01*
X175458595Y-107698650D01*
X174542902Y-107697851D01*
X173696607Y-108047533D01*
X173048549Y-108694461D01*
X172697390Y-109540145D01*
X172696591Y-110455838D01*
X172301373Y-110455838D01*
X172302169Y-109544162D01*
X171952487Y-108697867D01*
X171627020Y-108371832D01*
X171627020Y-107000025D01*
X171627021Y-107000020D01*
X171503172Y-106377394D01*
X171352047Y-106151219D01*
X171150483Y-105849557D01*
X171150480Y-105849555D01*
X169218676Y-103917750D01*
X178079400Y-103917750D01*
X178079400Y-104875910D01*
X178176073Y-105109299D01*
X178354702Y-105287927D01*
X178588091Y-105384600D01*
X179546250Y-105384600D01*
X179705000Y-105225850D01*
X179705000Y-103759000D01*
X179959000Y-103759000D01*
X179959000Y-105225850D01*
X180117750Y-105384600D01*
X181075909Y-105384600D01*
X181309298Y-105287927D01*
X181487927Y-105109299D01*
X181584600Y-104875910D01*
X181584600Y-103917750D01*
X181425850Y-103759000D01*
X179959000Y-103759000D01*
X179705000Y-103759000D01*
X178238150Y-103759000D01*
X178079400Y-103917750D01*
X169218676Y-103917750D01*
X167689016Y-102388090D01*
X178079400Y-102388090D01*
X178079400Y-103346250D01*
X178238150Y-103505000D01*
X179705000Y-103505000D01*
X179705000Y-102038150D01*
X179959000Y-102038150D01*
X179959000Y-103505000D01*
X181425850Y-103505000D01*
X181584600Y-103346250D01*
X181584600Y-102388090D01*
X181487927Y-102154701D01*
X181309298Y-101976073D01*
X181075909Y-101879400D01*
X180117750Y-101879400D01*
X179959000Y-102038150D01*
X179705000Y-102038150D01*
X179546250Y-101879400D01*
X178588091Y-101879400D01*
X178354702Y-101976073D01*
X178176073Y-102154701D01*
X178079400Y-102388090D01*
X167689016Y-102388090D01*
X165627000Y-100326074D01*
X165627000Y-99886079D01*
X165771639Y-100236132D01*
X166509981Y-100975764D01*
X167067773Y-101207379D01*
X167296197Y-101435803D01*
X167338211Y-101463666D01*
X167386000Y-101473000D01*
X179324000Y-101473000D01*
X179373410Y-101462994D01*
X179413803Y-101435803D01*
X181445803Y-99403803D01*
X181473666Y-99361789D01*
X181483000Y-99314000D01*
X181483000Y-91770250D01*
X185372545Y-91770250D01*
X185771639Y-92736132D01*
X186509981Y-93475764D01*
X187475165Y-93876543D01*
X188520250Y-93877455D01*
X189486132Y-93478361D01*
X190225764Y-92740019D01*
X190500180Y-92079151D01*
X190771639Y-92736132D01*
X191509981Y-93475764D01*
X192475165Y-93876543D01*
X193520250Y-93877455D01*
X194486132Y-93478361D01*
X195225764Y-92740019D01*
X195626543Y-91774835D01*
X195627455Y-90729750D01*
X195228361Y-89763868D01*
X194490019Y-89024236D01*
X193524835Y-88623457D01*
X192479750Y-88622545D01*
X191513868Y-89021639D01*
X190774236Y-89759981D01*
X190499820Y-90420849D01*
X190228361Y-89763868D01*
X189490019Y-89024236D01*
X188524835Y-88623457D01*
X187479750Y-88622545D01*
X186513868Y-89021639D01*
X185774236Y-89759981D01*
X185373457Y-90725165D01*
X185372545Y-91770250D01*
X181483000Y-91770250D01*
X181483000Y-90222606D01*
X184202606Y-87503000D01*
X195244262Y-87503000D01*
X195323818Y-87902955D01*
G36*
X162266647Y-65734157D02*
X162123483Y-65943683D01*
X162073117Y-66192400D01*
X162073117Y-68427600D01*
X162116837Y-68659952D01*
X162254157Y-68873353D01*
X162463683Y-69016517D01*
X162712400Y-69066883D01*
X164947600Y-69066883D01*
X165179952Y-69023163D01*
X165393353Y-68885843D01*
X165536517Y-68676317D01*
X165586883Y-68427600D01*
X165586883Y-66192400D01*
X165543163Y-65960048D01*
X165405843Y-65746647D01*
X165340500Y-65702000D01*
X166634620Y-65702000D01*
X166584647Y-65734157D01*
X166441483Y-65943683D01*
X166391117Y-66192400D01*
X166391117Y-68427600D01*
X166434837Y-68659952D01*
X166572157Y-68873353D01*
X166781683Y-69016517D01*
X167030400Y-69066883D01*
X169265600Y-69066883D01*
X169497952Y-69023163D01*
X169711353Y-68885843D01*
X169854517Y-68676317D01*
X169904883Y-68427600D01*
X169904883Y-66192400D01*
X169861163Y-65960048D01*
X169723843Y-65746647D01*
X169658500Y-65702000D01*
X170952620Y-65702000D01*
X170902647Y-65734157D01*
X170759483Y-65943683D01*
X170709117Y-66192400D01*
X170709117Y-68427600D01*
X170752837Y-68659952D01*
X170890157Y-68873353D01*
X171099683Y-69016517D01*
X171348400Y-69066883D01*
X173583600Y-69066883D01*
X173815952Y-69023163D01*
X174029353Y-68885843D01*
X174172517Y-68676317D01*
X174222883Y-68427600D01*
X174222883Y-68244188D01*
X175775417Y-68244188D01*
X175837071Y-68479800D01*
X176337480Y-68655927D01*
X176867199Y-68627148D01*
X177222929Y-68479800D01*
X177284583Y-68244188D01*
X183395417Y-68244188D01*
X183457071Y-68479800D01*
X183957480Y-68655927D01*
X184487199Y-68627148D01*
X184842929Y-68479800D01*
X184904583Y-68244188D01*
X184150000Y-67489605D01*
X183395417Y-68244188D01*
X177284583Y-68244188D01*
X176530000Y-67489605D01*
X175775417Y-68244188D01*
X174222883Y-68244188D01*
X174222883Y-67117480D01*
X175184073Y-67117480D01*
X175212852Y-67647199D01*
X175360200Y-68002929D01*
X175595812Y-68064583D01*
X176350395Y-67310000D01*
X176709605Y-67310000D01*
X177464188Y-68064583D01*
X177699800Y-68002929D01*
X177875927Y-67502520D01*
X177855009Y-67117480D01*
X182804073Y-67117480D01*
X182832852Y-67647199D01*
X182980200Y-68002929D01*
X183215812Y-68064583D01*
X183970395Y-67310000D01*
X183215812Y-66555417D01*
X182980200Y-66617071D01*
X182804073Y-67117480D01*
X177855009Y-67117480D01*
X177847148Y-66972801D01*
X177699800Y-66617071D01*
X177464188Y-66555417D01*
X176709605Y-67310000D01*
X176350395Y-67310000D01*
X175595812Y-66555417D01*
X175360200Y-66617071D01*
X175184073Y-67117480D01*
X174222883Y-67117480D01*
X174222883Y-66375812D01*
X175775417Y-66375812D01*
X176530000Y-67130395D01*
X177284583Y-66375812D01*
X183395417Y-66375812D01*
X184150000Y-67130395D01*
X184904583Y-66375812D01*
X184842929Y-66140200D01*
X184342520Y-65964073D01*
X183812801Y-65992852D01*
X183457071Y-66140200D01*
X183395417Y-66375812D01*
X177284583Y-66375812D01*
X177222929Y-66140200D01*
X176722520Y-65964073D01*
X176192801Y-65992852D01*
X175837071Y-66140200D01*
X175775417Y-66375812D01*
X174222883Y-66375812D01*
X174222883Y-66192400D01*
X174179163Y-65960048D01*
X174041843Y-65746647D01*
X173976500Y-65702000D01*
X185293000Y-65702000D01*
X185293000Y-66610058D01*
X185084188Y-66555417D01*
X184329605Y-67310000D01*
X185084188Y-68064583D01*
X185293000Y-68009942D01*
X185293000Y-71685260D01*
X185274359Y-71640146D01*
X184901816Y-71266951D01*
X184414815Y-71064731D01*
X183887498Y-71064270D01*
X183400146Y-71265641D01*
X183026951Y-71638184D01*
X182824731Y-72125185D01*
X182824270Y-72652502D01*
X183025641Y-73139854D01*
X183398184Y-73513049D01*
X183885185Y-73715269D01*
X184412502Y-73715730D01*
X184899854Y-73514359D01*
X185273049Y-73141816D01*
X185293000Y-73093769D01*
X185293000Y-74992058D01*
X185084188Y-74937417D01*
X184329605Y-75692000D01*
X185084188Y-76446583D01*
X185293000Y-76391942D01*
X185293000Y-80067260D01*
X185274359Y-80022146D01*
X184901816Y-79648951D01*
X184414815Y-79446731D01*
X183887498Y-79446270D01*
X183400146Y-79647641D01*
X183026951Y-80020184D01*
X182824731Y-80507185D01*
X182824270Y-81034502D01*
X183025641Y-81521854D01*
X183398184Y-81895049D01*
X183885185Y-82097269D01*
X184412502Y-82097730D01*
X184899854Y-81896359D01*
X185273049Y-81523816D01*
X185293000Y-81475769D01*
X185293000Y-83566000D01*
X185303006Y-83615410D01*
X185331447Y-83657035D01*
X185373841Y-83684315D01*
X185420000Y-83693000D01*
X204298000Y-83693000D01*
X204298000Y-86233000D01*
X203557000Y-86233000D01*
X203557000Y-86137750D01*
X203398250Y-85979000D01*
X202549000Y-85979000D01*
X202549000Y-85999000D01*
X202295000Y-85999000D01*
X202295000Y-85979000D01*
X202275000Y-85979000D01*
X202275000Y-85725000D01*
X202295000Y-85725000D01*
X202295000Y-84750750D01*
X202549000Y-84750750D01*
X202549000Y-85725000D01*
X203398250Y-85725000D01*
X203557000Y-85566250D01*
X203557000Y-85100690D01*
X203460327Y-84867301D01*
X203281698Y-84688673D01*
X203048309Y-84592000D01*
X202707750Y-84592000D01*
X202549000Y-84750750D01*
X202295000Y-84750750D01*
X202136250Y-84592000D01*
X201795691Y-84592000D01*
X201562302Y-84688673D01*
X201415279Y-84835695D01*
X201380243Y-84781247D01*
X201170717Y-84638083D01*
X200922000Y-84587717D01*
X199922000Y-84587717D01*
X199689648Y-84631437D01*
X199476247Y-84768757D01*
X199333083Y-84978283D01*
X199282717Y-85227000D01*
X199282717Y-86233000D01*
X197473000Y-86233000D01*
X197473000Y-86157226D01*
X197522839Y-86037201D01*
X197523161Y-85668417D01*
X197382331Y-85327583D01*
X197121789Y-85066586D01*
X196781201Y-84925161D01*
X196412417Y-84924839D01*
X196071583Y-85065669D01*
X195810586Y-85326211D01*
X195669161Y-85666799D01*
X195668839Y-86035583D01*
X195719000Y-86156982D01*
X195719000Y-86233000D01*
X183388000Y-86233000D01*
X183338590Y-86243006D01*
X183298197Y-86270197D01*
X180250197Y-89318197D01*
X180222334Y-89360211D01*
X180213000Y-89408000D01*
X180213000Y-98499394D01*
X178763394Y-99949000D01*
X169805213Y-99949000D01*
X170126630Y-99174943D01*
X170127227Y-98489750D01*
X173182000Y-98489750D01*
X173182000Y-99105309D01*
X173278673Y-99338698D01*
X173457301Y-99517327D01*
X173690690Y-99614000D01*
X173831250Y-99614000D01*
X173990000Y-99455250D01*
X173990000Y-98331000D01*
X173340750Y-98331000D01*
X173182000Y-98489750D01*
X170127227Y-98489750D01*
X170127368Y-98328770D01*
X169804234Y-97546726D01*
X169206422Y-96947869D01*
X169031469Y-96875222D01*
X169203274Y-96804234D01*
X169217783Y-96789750D01*
X170698000Y-96789750D01*
X170698000Y-97130309D01*
X170794673Y-97363698D01*
X170973301Y-97542327D01*
X171206690Y-97639000D01*
X171672250Y-97639000D01*
X171831000Y-97480250D01*
X171831000Y-96631000D01*
X172085000Y-96631000D01*
X172085000Y-97480250D01*
X172243750Y-97639000D01*
X172709310Y-97639000D01*
X172942699Y-97542327D01*
X173121327Y-97363698D01*
X173146596Y-97302691D01*
X173182000Y-97302691D01*
X173182000Y-97918250D01*
X173340750Y-98077000D01*
X173990000Y-98077000D01*
X173990000Y-96952750D01*
X174244000Y-96952750D01*
X174244000Y-98077000D01*
X174264000Y-98077000D01*
X174264000Y-98331000D01*
X174244000Y-98331000D01*
X174244000Y-99455250D01*
X174402750Y-99614000D01*
X174543310Y-99614000D01*
X174768944Y-99520539D01*
X174838283Y-99567917D01*
X175087000Y-99618283D01*
X175687000Y-99618283D01*
X175919352Y-99574563D01*
X176021660Y-99508730D01*
X176108283Y-99567917D01*
X176357000Y-99618283D01*
X176957000Y-99618283D01*
X177189352Y-99574563D01*
X177291660Y-99508730D01*
X177378283Y-99567917D01*
X177627000Y-99618283D01*
X178227000Y-99618283D01*
X178459352Y-99574563D01*
X178672753Y-99437243D01*
X178815917Y-99227717D01*
X178866283Y-98979000D01*
X178866283Y-97429000D01*
X178822563Y-97196648D01*
X178685243Y-96983247D01*
X178475717Y-96840083D01*
X178227000Y-96789717D01*
X177627000Y-96789717D01*
X177394648Y-96833437D01*
X177292340Y-96899270D01*
X177205717Y-96840083D01*
X176957000Y-96789717D01*
X176357000Y-96789717D01*
X176124648Y-96833437D01*
X176022340Y-96899270D01*
X175935717Y-96840083D01*
X175687000Y-96789717D01*
X175087000Y-96789717D01*
X174854648Y-96833437D01*
X174770008Y-96887901D01*
X174543310Y-96794000D01*
X174402750Y-96794000D01*
X174244000Y-96952750D01*
X173990000Y-96952750D01*
X173831250Y-96794000D01*
X173690690Y-96794000D01*
X173457301Y-96890673D01*
X173278673Y-97069302D01*
X173182000Y-97302691D01*
X173146596Y-97302691D01*
X173218000Y-97130309D01*
X173218000Y-96789750D01*
X173059250Y-96631000D01*
X172085000Y-96631000D01*
X171831000Y-96631000D01*
X170856750Y-96631000D01*
X170698000Y-96789750D01*
X169217783Y-96789750D01*
X169802131Y-96206422D01*
X169938919Y-95877000D01*
X170176000Y-95877000D01*
X170511613Y-95810242D01*
X170796133Y-95620133D01*
X170929267Y-95486999D01*
X170942758Y-95496216D01*
X170794673Y-95644302D01*
X170698000Y-95877691D01*
X170698000Y-96218250D01*
X170856750Y-96377000D01*
X171831000Y-96377000D01*
X171831000Y-96357000D01*
X172085000Y-96357000D01*
X172085000Y-96377000D01*
X173059250Y-96377000D01*
X173218000Y-96218250D01*
X173218000Y-95877691D01*
X173121327Y-95644302D01*
X172974305Y-95497279D01*
X173028753Y-95462243D01*
X173084264Y-95381000D01*
X177530000Y-95381000D01*
X177865613Y-95314242D01*
X178150133Y-95124133D01*
X178547130Y-94727135D01*
X178547133Y-94727133D01*
X178737242Y-94442613D01*
X178755409Y-94351284D01*
X178804001Y-94107000D01*
X178804000Y-94106995D01*
X178804000Y-93845158D01*
X178815917Y-93827717D01*
X178866283Y-93579000D01*
X178866283Y-92192524D01*
X179093414Y-91965789D01*
X179234839Y-91625201D01*
X179235161Y-91256417D01*
X179100958Y-90931621D01*
X179234839Y-90609201D01*
X179235161Y-90240417D01*
X179094331Y-89899583D01*
X178833789Y-89638586D01*
X178493201Y-89497161D01*
X178124417Y-89496839D01*
X177783583Y-89637669D01*
X177721536Y-89699607D01*
X177682717Y-89673083D01*
X177639284Y-89664288D01*
X177793699Y-89600327D01*
X177972327Y-89421698D01*
X178069000Y-89188309D01*
X178069000Y-88997750D01*
X177910250Y-88839000D01*
X176911000Y-88839000D01*
X176911000Y-88859000D01*
X176657000Y-88859000D01*
X176657000Y-88839000D01*
X175657750Y-88839000D01*
X175499000Y-88997750D01*
X175499000Y-89188309D01*
X175562618Y-89341896D01*
X175312912Y-89175049D01*
X175143841Y-89141418D01*
X175123563Y-89033648D01*
X175055000Y-88927098D01*
X175055000Y-88834000D01*
X175005471Y-88585000D01*
X174988242Y-88498386D01*
X174985980Y-88495000D01*
X174995310Y-88495000D01*
X175228699Y-88398327D01*
X175407327Y-88219698D01*
X175504000Y-87986309D01*
X175504000Y-87645750D01*
X175345252Y-87487002D01*
X175499000Y-87487002D01*
X175499000Y-87532309D01*
X175595673Y-87765698D01*
X175713974Y-87884000D01*
X175595673Y-88002302D01*
X175499000Y-88235691D01*
X175499000Y-88426250D01*
X175657750Y-88585000D01*
X176657000Y-88585000D01*
X176657000Y-87885750D01*
X176655250Y-87884000D01*
X176657000Y-87882250D01*
X176657000Y-87183000D01*
X176911000Y-87183000D01*
X176911000Y-87882250D01*
X176912750Y-87884000D01*
X176911000Y-87885750D01*
X176911000Y-88585000D01*
X177910250Y-88585000D01*
X178069000Y-88426250D01*
X178069000Y-88235691D01*
X177972327Y-88002302D01*
X177854026Y-87884000D01*
X177972327Y-87765698D01*
X178069000Y-87532309D01*
X178069000Y-87341750D01*
X177910250Y-87183000D01*
X176911000Y-87183000D01*
X176657000Y-87183000D01*
X176637000Y-87183000D01*
X176637000Y-86929000D01*
X176657000Y-86929000D01*
X176657000Y-86909000D01*
X176911000Y-86909000D01*
X176911000Y-86929000D01*
X177910250Y-86929000D01*
X178069000Y-86770250D01*
X178069000Y-86579691D01*
X177972327Y-86346302D01*
X177793699Y-86167673D01*
X177644171Y-86105737D01*
X177666352Y-86101563D01*
X177879753Y-85964243D01*
X178022917Y-85754717D01*
X178073283Y-85506000D01*
X178073283Y-84806000D01*
X178029563Y-84573648D01*
X177892243Y-84360247D01*
X177682717Y-84217083D01*
X177434000Y-84166717D01*
X176134000Y-84166717D01*
X175901648Y-84210437D01*
X175795098Y-84279000D01*
X175448005Y-84279000D01*
X175448000Y-84278999D01*
X175201162Y-84328099D01*
X175155255Y-84296732D01*
X175170839Y-84259201D01*
X175171161Y-83890417D01*
X175030331Y-83549583D01*
X174769789Y-83288586D01*
X174429201Y-83147161D01*
X174060417Y-83146839D01*
X173719583Y-83287669D01*
X173458586Y-83548211D01*
X173317161Y-83888799D01*
X173316839Y-84257583D01*
X173333739Y-84298483D01*
X173173247Y-84401757D01*
X173030083Y-84611283D01*
X172992016Y-84799266D01*
X172949563Y-84573648D01*
X172812243Y-84360247D01*
X172602717Y-84217083D01*
X172581000Y-84212685D01*
X172581000Y-83363226D01*
X172630839Y-83243201D01*
X172631161Y-82874417D01*
X172490331Y-82533583D01*
X172229789Y-82272586D01*
X171889201Y-82131161D01*
X171520417Y-82130839D01*
X171273819Y-82232732D01*
X171304067Y-82202536D01*
X171552207Y-81604948D01*
X171552772Y-80957890D01*
X171305675Y-80359871D01*
X170848536Y-79901933D01*
X170250948Y-79653793D01*
X169603890Y-79653228D01*
X169005871Y-79900325D01*
X168547933Y-80357464D01*
X168299793Y-80955052D01*
X168299228Y-81602110D01*
X168546325Y-82200129D01*
X169003464Y-82658067D01*
X169049000Y-82676975D01*
X169049000Y-89154000D01*
X169098544Y-89403074D01*
X168802000Y-89279938D01*
X168802000Y-88752000D01*
X168740951Y-88445088D01*
X168567100Y-88184900D01*
X166937100Y-86554900D01*
X166676912Y-86381049D01*
X166370000Y-86319999D01*
X166369995Y-86320000D01*
X161271606Y-86320000D01*
X161103216Y-86067987D01*
X160779969Y-85852000D01*
X161103216Y-85636013D01*
X161426338Y-85152428D01*
X161539803Y-84582000D01*
X161446712Y-84114000D01*
X161543995Y-84114000D01*
X161544000Y-84114001D01*
X161850912Y-84052951D01*
X162111100Y-83879100D01*
X163908200Y-82082000D01*
X164477227Y-82082000D01*
X164477227Y-82279490D01*
X164520947Y-82511842D01*
X164658267Y-82725243D01*
X164867793Y-82868407D01*
X165116510Y-82918773D01*
X167115490Y-82918773D01*
X167347842Y-82875053D01*
X167561243Y-82737733D01*
X167704407Y-82528207D01*
X167754773Y-82279490D01*
X167754773Y-80280510D01*
X167711053Y-80048158D01*
X167573733Y-79834757D01*
X167364207Y-79691593D01*
X167115490Y-79641227D01*
X165116510Y-79641227D01*
X164884158Y-79684947D01*
X164670757Y-79822267D01*
X164527593Y-80031793D01*
X164477227Y-80280510D01*
X164477227Y-80478000D01*
X163576005Y-80478000D01*
X163576000Y-80477999D01*
X163269088Y-80539049D01*
X163008900Y-80712900D01*
X161505041Y-82216759D01*
X161539803Y-82042000D01*
X161426338Y-81471572D01*
X161103216Y-80987987D01*
X160619631Y-80664865D01*
X160049203Y-80551400D01*
X159990797Y-80551400D01*
X159420369Y-80664865D01*
X158948739Y-80979999D01*
X158881927Y-80818701D01*
X158703298Y-80640073D01*
X158469909Y-80543400D01*
X157765750Y-80543400D01*
X157607000Y-80702150D01*
X157607000Y-81915000D01*
X157627000Y-81915000D01*
X157627000Y-82169000D01*
X157607000Y-82169000D01*
X157607000Y-82189000D01*
X157353000Y-82189000D01*
X157353000Y-82169000D01*
X157333000Y-82169000D01*
X157333000Y-81915000D01*
X157353000Y-81915000D01*
X157353000Y-80702150D01*
X157194250Y-80543400D01*
X156810800Y-80543400D01*
X158066199Y-79288000D01*
X173911800Y-79288000D01*
X175204667Y-80580866D01*
X175204270Y-81034502D01*
X175405641Y-81521854D01*
X175778184Y-81895049D01*
X176265185Y-82097269D01*
X176792502Y-82097730D01*
X177279854Y-81896359D01*
X177653049Y-81523816D01*
X177855269Y-81036815D01*
X177855730Y-80509498D01*
X177654359Y-80022146D01*
X177281816Y-79648951D01*
X176794815Y-79446731D01*
X176338531Y-79446332D01*
X174811100Y-77918900D01*
X174550912Y-77745049D01*
X174244000Y-77683999D01*
X174243995Y-77684000D01*
X157734005Y-77684000D01*
X157734000Y-77683999D01*
X157614413Y-77707787D01*
X158696012Y-76626188D01*
X175775417Y-76626188D01*
X175837071Y-76861800D01*
X176337480Y-77037927D01*
X176867199Y-77009148D01*
X177222929Y-76861800D01*
X177284583Y-76626188D01*
X183395417Y-76626188D01*
X183457071Y-76861800D01*
X183957480Y-77037927D01*
X184487199Y-77009148D01*
X184842929Y-76861800D01*
X184904583Y-76626188D01*
X184150000Y-75871605D01*
X183395417Y-76626188D01*
X177284583Y-76626188D01*
X176530000Y-75871605D01*
X175775417Y-76626188D01*
X158696012Y-76626188D01*
X159822720Y-75499480D01*
X175184073Y-75499480D01*
X175212852Y-76029199D01*
X175360200Y-76384929D01*
X175595812Y-76446583D01*
X176350395Y-75692000D01*
X176709605Y-75692000D01*
X177464188Y-76446583D01*
X177699800Y-76384929D01*
X177875927Y-75884520D01*
X177855009Y-75499480D01*
X182804073Y-75499480D01*
X182832852Y-76029199D01*
X182980200Y-76384929D01*
X183215812Y-76446583D01*
X183970395Y-75692000D01*
X183215812Y-74937417D01*
X182980200Y-74999071D01*
X182804073Y-75499480D01*
X177855009Y-75499480D01*
X177847148Y-75354801D01*
X177699800Y-74999071D01*
X177464188Y-74937417D01*
X176709605Y-75692000D01*
X176350395Y-75692000D01*
X175595812Y-74937417D01*
X175360200Y-74999071D01*
X175184073Y-75499480D01*
X159822720Y-75499480D01*
X160564388Y-74757812D01*
X175775417Y-74757812D01*
X176530000Y-75512395D01*
X177284583Y-74757812D01*
X183395417Y-74757812D01*
X184150000Y-75512395D01*
X184904583Y-74757812D01*
X184842929Y-74522200D01*
X184342520Y-74346073D01*
X183812801Y-74374852D01*
X183457071Y-74522200D01*
X183395417Y-74757812D01*
X177284583Y-74757812D01*
X177222929Y-74522200D01*
X176722520Y-74346073D01*
X176192801Y-74374852D01*
X175837071Y-74522200D01*
X175775417Y-74757812D01*
X160564388Y-74757812D01*
X162130200Y-73192000D01*
X175457696Y-73192000D01*
X175778184Y-73513049D01*
X176265185Y-73715269D01*
X176792502Y-73715730D01*
X177279854Y-73514359D01*
X177653049Y-73141816D01*
X177855269Y-72654815D01*
X177855730Y-72127498D01*
X177654359Y-71640146D01*
X177281816Y-71266951D01*
X176794815Y-71064731D01*
X176267498Y-71064270D01*
X175780146Y-71265641D01*
X175457223Y-71588000D01*
X161798000Y-71588000D01*
X161491088Y-71649049D01*
X161230900Y-71822900D01*
X156240445Y-76813355D01*
X155939583Y-76937669D01*
X155702000Y-77174838D01*
X155702000Y-69401389D01*
X155744495Y-69504235D01*
X156491831Y-70252876D01*
X157468772Y-70658538D01*
X158526587Y-70659461D01*
X159504235Y-70255505D01*
X160252876Y-69508169D01*
X160658538Y-68531228D01*
X160659461Y-67473413D01*
X160255505Y-66495765D01*
X159508169Y-65747124D01*
X159399499Y-65702000D01*
X162316620Y-65702000D01*
X162266647Y-65734157D01*
X162266647Y-65734157D01*
G37*
X162266647Y-65734157D02*
X162123483Y-65943683D01*
X162073117Y-66192400D01*
X162073117Y-68427600D01*
X162116837Y-68659952D01*
X162254157Y-68873353D01*
X162463683Y-69016517D01*
X162712400Y-69066883D01*
X164947600Y-69066883D01*
X165179952Y-69023163D01*
X165393353Y-68885843D01*
X165536517Y-68676317D01*
X165586883Y-68427600D01*
X165586883Y-66192400D01*
X165543163Y-65960048D01*
X165405843Y-65746647D01*
X165340500Y-65702000D01*
X166634620Y-65702000D01*
X166584647Y-65734157D01*
X166441483Y-65943683D01*
X166391117Y-66192400D01*
X166391117Y-68427600D01*
X166434837Y-68659952D01*
X166572157Y-68873353D01*
X166781683Y-69016517D01*
X167030400Y-69066883D01*
X169265600Y-69066883D01*
X169497952Y-69023163D01*
X169711353Y-68885843D01*
X169854517Y-68676317D01*
X169904883Y-68427600D01*
X169904883Y-66192400D01*
X169861163Y-65960048D01*
X169723843Y-65746647D01*
X169658500Y-65702000D01*
X170952620Y-65702000D01*
X170902647Y-65734157D01*
X170759483Y-65943683D01*
X170709117Y-66192400D01*
X170709117Y-68427600D01*
X170752837Y-68659952D01*
X170890157Y-68873353D01*
X171099683Y-69016517D01*
X171348400Y-69066883D01*
X173583600Y-69066883D01*
X173815952Y-69023163D01*
X174029353Y-68885843D01*
X174172517Y-68676317D01*
X174222883Y-68427600D01*
X174222883Y-68244188D01*
X175775417Y-68244188D01*
X175837071Y-68479800D01*
X176337480Y-68655927D01*
X176867199Y-68627148D01*
X177222929Y-68479800D01*
X177284583Y-68244188D01*
X183395417Y-68244188D01*
X183457071Y-68479800D01*
X183957480Y-68655927D01*
X184487199Y-68627148D01*
X184842929Y-68479800D01*
X184904583Y-68244188D01*
X184150000Y-67489605D01*
X183395417Y-68244188D01*
X177284583Y-68244188D01*
X176530000Y-67489605D01*
X175775417Y-68244188D01*
X174222883Y-68244188D01*
X174222883Y-67117480D01*
X175184073Y-67117480D01*
X175212852Y-67647199D01*
X175360200Y-68002929D01*
X175595812Y-68064583D01*
X176350395Y-67310000D01*
X176709605Y-67310000D01*
X177464188Y-68064583D01*
X177699800Y-68002929D01*
X177875927Y-67502520D01*
X177855009Y-67117480D01*
X182804073Y-67117480D01*
X182832852Y-67647199D01*
X182980200Y-68002929D01*
X183215812Y-68064583D01*
X183970395Y-67310000D01*
X183215812Y-66555417D01*
X182980200Y-66617071D01*
X182804073Y-67117480D01*
X177855009Y-67117480D01*
X177847148Y-66972801D01*
X177699800Y-66617071D01*
X177464188Y-66555417D01*
X176709605Y-67310000D01*
X176350395Y-67310000D01*
X175595812Y-66555417D01*
X175360200Y-66617071D01*
X175184073Y-67117480D01*
X174222883Y-67117480D01*
X174222883Y-66375812D01*
X175775417Y-66375812D01*
X176530000Y-67130395D01*
X177284583Y-66375812D01*
X183395417Y-66375812D01*
X184150000Y-67130395D01*
X184904583Y-66375812D01*
X184842929Y-66140200D01*
X184342520Y-65964073D01*
X183812801Y-65992852D01*
X183457071Y-66140200D01*
X183395417Y-66375812D01*
X177284583Y-66375812D01*
X177222929Y-66140200D01*
X176722520Y-65964073D01*
X176192801Y-65992852D01*
X175837071Y-66140200D01*
X175775417Y-66375812D01*
X174222883Y-66375812D01*
X174222883Y-66192400D01*
X174179163Y-65960048D01*
X174041843Y-65746647D01*
X173976500Y-65702000D01*
X185293000Y-65702000D01*
X185293000Y-66610058D01*
X185084188Y-66555417D01*
X184329605Y-67310000D01*
X185084188Y-68064583D01*
X185293000Y-68009942D01*
X185293000Y-71685260D01*
X185274359Y-71640146D01*
X184901816Y-71266951D01*
X184414815Y-71064731D01*
X183887498Y-71064270D01*
X183400146Y-71265641D01*
X183026951Y-71638184D01*
X182824731Y-72125185D01*
X182824270Y-72652502D01*
X183025641Y-73139854D01*
X183398184Y-73513049D01*
X183885185Y-73715269D01*
X184412502Y-73715730D01*
X184899854Y-73514359D01*
X185273049Y-73141816D01*
X185293000Y-73093769D01*
X185293000Y-74992058D01*
X185084188Y-74937417D01*
X184329605Y-75692000D01*
X185084188Y-76446583D01*
X185293000Y-76391942D01*
X185293000Y-80067260D01*
X185274359Y-80022146D01*
X184901816Y-79648951D01*
X184414815Y-79446731D01*
X183887498Y-79446270D01*
X183400146Y-79647641D01*
X183026951Y-80020184D01*
X182824731Y-80507185D01*
X182824270Y-81034502D01*
X183025641Y-81521854D01*
X183398184Y-81895049D01*
X183885185Y-82097269D01*
X184412502Y-82097730D01*
X184899854Y-81896359D01*
X185273049Y-81523816D01*
X185293000Y-81475769D01*
X185293000Y-83566000D01*
X185303006Y-83615410D01*
X185331447Y-83657035D01*
X185373841Y-83684315D01*
X185420000Y-83693000D01*
X204298000Y-83693000D01*
X204298000Y-86233000D01*
X203557000Y-86233000D01*
X203557000Y-86137750D01*
X203398250Y-85979000D01*
X202549000Y-85979000D01*
X202549000Y-85999000D01*
X202295000Y-85999000D01*
X202295000Y-85979000D01*
X202275000Y-85979000D01*
X202275000Y-85725000D01*
X202295000Y-85725000D01*
X202295000Y-84750750D01*
X202549000Y-84750750D01*
X202549000Y-85725000D01*
X203398250Y-85725000D01*
X203557000Y-85566250D01*
X203557000Y-85100690D01*
X203460327Y-84867301D01*
X203281698Y-84688673D01*
X203048309Y-84592000D01*
X202707750Y-84592000D01*
X202549000Y-84750750D01*
X202295000Y-84750750D01*
X202136250Y-84592000D01*
X201795691Y-84592000D01*
X201562302Y-84688673D01*
X201415279Y-84835695D01*
X201380243Y-84781247D01*
X201170717Y-84638083D01*
X200922000Y-84587717D01*
X199922000Y-84587717D01*
X199689648Y-84631437D01*
X199476247Y-84768757D01*
X199333083Y-84978283D01*
X199282717Y-85227000D01*
X199282717Y-86233000D01*
X197473000Y-86233000D01*
X197473000Y-86157226D01*
X197522839Y-86037201D01*
X197523161Y-85668417D01*
X197382331Y-85327583D01*
X197121789Y-85066586D01*
X196781201Y-84925161D01*
X196412417Y-84924839D01*
X196071583Y-85065669D01*
X195810586Y-85326211D01*
X195669161Y-85666799D01*
X195668839Y-86035583D01*
X195719000Y-86156982D01*
X195719000Y-86233000D01*
X183388000Y-86233000D01*
X183338590Y-86243006D01*
X183298197Y-86270197D01*
X180250197Y-89318197D01*
X180222334Y-89360211D01*
X180213000Y-89408000D01*
X180213000Y-98499394D01*
X178763394Y-99949000D01*
X169805213Y-99949000D01*
X170126630Y-99174943D01*
X170127227Y-98489750D01*
X173182000Y-98489750D01*
X173182000Y-99105309D01*
X173278673Y-99338698D01*
X173457301Y-99517327D01*
X173690690Y-99614000D01*
X173831250Y-99614000D01*
X173990000Y-99455250D01*
X173990000Y-98331000D01*
X173340750Y-98331000D01*
X173182000Y-98489750D01*
X170127227Y-98489750D01*
X170127368Y-98328770D01*
X169804234Y-97546726D01*
X169206422Y-96947869D01*
X169031469Y-96875222D01*
X169203274Y-96804234D01*
X169217783Y-96789750D01*
X170698000Y-96789750D01*
X170698000Y-97130309D01*
X170794673Y-97363698D01*
X170973301Y-97542327D01*
X171206690Y-97639000D01*
X171672250Y-97639000D01*
X171831000Y-97480250D01*
X171831000Y-96631000D01*
X172085000Y-96631000D01*
X172085000Y-97480250D01*
X172243750Y-97639000D01*
X172709310Y-97639000D01*
X172942699Y-97542327D01*
X173121327Y-97363698D01*
X173146596Y-97302691D01*
X173182000Y-97302691D01*
X173182000Y-97918250D01*
X173340750Y-98077000D01*
X173990000Y-98077000D01*
X173990000Y-96952750D01*
X174244000Y-96952750D01*
X174244000Y-98077000D01*
X174264000Y-98077000D01*
X174264000Y-98331000D01*
X174244000Y-98331000D01*
X174244000Y-99455250D01*
X174402750Y-99614000D01*
X174543310Y-99614000D01*
X174768944Y-99520539D01*
X174838283Y-99567917D01*
X175087000Y-99618283D01*
X175687000Y-99618283D01*
X175919352Y-99574563D01*
X176021660Y-99508730D01*
X176108283Y-99567917D01*
X176357000Y-99618283D01*
X176957000Y-99618283D01*
X177189352Y-99574563D01*
X177291660Y-99508730D01*
X177378283Y-99567917D01*
X177627000Y-99618283D01*
X178227000Y-99618283D01*
X178459352Y-99574563D01*
X178672753Y-99437243D01*
X178815917Y-99227717D01*
X178866283Y-98979000D01*
X178866283Y-97429000D01*
X178822563Y-97196648D01*
X178685243Y-96983247D01*
X178475717Y-96840083D01*
X178227000Y-96789717D01*
X177627000Y-96789717D01*
X177394648Y-96833437D01*
X177292340Y-96899270D01*
X177205717Y-96840083D01*
X176957000Y-96789717D01*
X176357000Y-96789717D01*
X176124648Y-96833437D01*
X176022340Y-96899270D01*
X175935717Y-96840083D01*
X175687000Y-96789717D01*
X175087000Y-96789717D01*
X174854648Y-96833437D01*
X174770008Y-96887901D01*
X174543310Y-96794000D01*
X174402750Y-96794000D01*
X174244000Y-96952750D01*
X173990000Y-96952750D01*
X173831250Y-96794000D01*
X173690690Y-96794000D01*
X173457301Y-96890673D01*
X173278673Y-97069302D01*
X173182000Y-97302691D01*
X173146596Y-97302691D01*
X173218000Y-97130309D01*
X173218000Y-96789750D01*
X173059250Y-96631000D01*
X172085000Y-96631000D01*
X171831000Y-96631000D01*
X170856750Y-96631000D01*
X170698000Y-96789750D01*
X169217783Y-96789750D01*
X169802131Y-96206422D01*
X169938919Y-95877000D01*
X170176000Y-95877000D01*
X170511613Y-95810242D01*
X170796133Y-95620133D01*
X170929267Y-95486999D01*
X170942758Y-95496216D01*
X170794673Y-95644302D01*
X170698000Y-95877691D01*
X170698000Y-96218250D01*
X170856750Y-96377000D01*
X171831000Y-96377000D01*
X171831000Y-96357000D01*
X172085000Y-96357000D01*
X172085000Y-96377000D01*
X173059250Y-96377000D01*
X173218000Y-96218250D01*
X173218000Y-95877691D01*
X173121327Y-95644302D01*
X172974305Y-95497279D01*
X173028753Y-95462243D01*
X173084264Y-95381000D01*
X177530000Y-95381000D01*
X177865613Y-95314242D01*
X178150133Y-95124133D01*
X178547130Y-94727135D01*
X178547133Y-94727133D01*
X178737242Y-94442613D01*
X178755409Y-94351284D01*
X178804001Y-94107000D01*
X178804000Y-94106995D01*
X178804000Y-93845158D01*
X178815917Y-93827717D01*
X178866283Y-93579000D01*
X178866283Y-92192524D01*
X179093414Y-91965789D01*
X179234839Y-91625201D01*
X179235161Y-91256417D01*
X179100958Y-90931621D01*
X179234839Y-90609201D01*
X179235161Y-90240417D01*
X179094331Y-89899583D01*
X178833789Y-89638586D01*
X178493201Y-89497161D01*
X178124417Y-89496839D01*
X177783583Y-89637669D01*
X177721536Y-89699607D01*
X177682717Y-89673083D01*
X177639284Y-89664288D01*
X177793699Y-89600327D01*
X177972327Y-89421698D01*
X178069000Y-89188309D01*
X178069000Y-88997750D01*
X177910250Y-88839000D01*
X176911000Y-88839000D01*
X176911000Y-88859000D01*
X176657000Y-88859000D01*
X176657000Y-88839000D01*
X175657750Y-88839000D01*
X175499000Y-88997750D01*
X175499000Y-89188309D01*
X175562618Y-89341896D01*
X175312912Y-89175049D01*
X175143841Y-89141418D01*
X175123563Y-89033648D01*
X175055000Y-88927098D01*
X175055000Y-88834000D01*
X175005471Y-88585000D01*
X174988242Y-88498386D01*
X174985980Y-88495000D01*
X174995310Y-88495000D01*
X175228699Y-88398327D01*
X175407327Y-88219698D01*
X175504000Y-87986309D01*
X175504000Y-87645750D01*
X175345252Y-87487002D01*
X175499000Y-87487002D01*
X175499000Y-87532309D01*
X175595673Y-87765698D01*
X175713974Y-87884000D01*
X175595673Y-88002302D01*
X175499000Y-88235691D01*
X175499000Y-88426250D01*
X175657750Y-88585000D01*
X176657000Y-88585000D01*
X176657000Y-87885750D01*
X176655250Y-87884000D01*
X176657000Y-87882250D01*
X176657000Y-87183000D01*
X176911000Y-87183000D01*
X176911000Y-87882250D01*
X176912750Y-87884000D01*
X176911000Y-87885750D01*
X176911000Y-88585000D01*
X177910250Y-88585000D01*
X178069000Y-88426250D01*
X178069000Y-88235691D01*
X177972327Y-88002302D01*
X177854026Y-87884000D01*
X177972327Y-87765698D01*
X178069000Y-87532309D01*
X178069000Y-87341750D01*
X177910250Y-87183000D01*
X176911000Y-87183000D01*
X176657000Y-87183000D01*
X176637000Y-87183000D01*
X176637000Y-86929000D01*
X176657000Y-86929000D01*
X176657000Y-86909000D01*
X176911000Y-86909000D01*
X176911000Y-86929000D01*
X177910250Y-86929000D01*
X178069000Y-86770250D01*
X178069000Y-86579691D01*
X177972327Y-86346302D01*
X177793699Y-86167673D01*
X177644171Y-86105737D01*
X177666352Y-86101563D01*
X177879753Y-85964243D01*
X178022917Y-85754717D01*
X178073283Y-85506000D01*
X178073283Y-84806000D01*
X178029563Y-84573648D01*
X177892243Y-84360247D01*
X177682717Y-84217083D01*
X177434000Y-84166717D01*
X176134000Y-84166717D01*
X175901648Y-84210437D01*
X175795098Y-84279000D01*
X175448005Y-84279000D01*
X175448000Y-84278999D01*
X175201162Y-84328099D01*
X175155255Y-84296732D01*
X175170839Y-84259201D01*
X175171161Y-83890417D01*
X175030331Y-83549583D01*
X174769789Y-83288586D01*
X174429201Y-83147161D01*
X174060417Y-83146839D01*
X173719583Y-83287669D01*
X173458586Y-83548211D01*
X173317161Y-83888799D01*
X173316839Y-84257583D01*
X173333739Y-84298483D01*
X173173247Y-84401757D01*
X173030083Y-84611283D01*
X172992016Y-84799266D01*
X172949563Y-84573648D01*
X172812243Y-84360247D01*
X172602717Y-84217083D01*
X172581000Y-84212685D01*
X172581000Y-83363226D01*
X172630839Y-83243201D01*
X172631161Y-82874417D01*
X172490331Y-82533583D01*
X172229789Y-82272586D01*
X171889201Y-82131161D01*
X171520417Y-82130839D01*
X171273819Y-82232732D01*
X171304067Y-82202536D01*
X171552207Y-81604948D01*
X171552772Y-80957890D01*
X171305675Y-80359871D01*
X170848536Y-79901933D01*
X170250948Y-79653793D01*
X169603890Y-79653228D01*
X169005871Y-79900325D01*
X168547933Y-80357464D01*
X168299793Y-80955052D01*
X168299228Y-81602110D01*
X168546325Y-82200129D01*
X169003464Y-82658067D01*
X169049000Y-82676975D01*
X169049000Y-89154000D01*
X169098544Y-89403074D01*
X168802000Y-89279938D01*
X168802000Y-88752000D01*
X168740951Y-88445088D01*
X168567100Y-88184900D01*
X166937100Y-86554900D01*
X166676912Y-86381049D01*
X166370000Y-86319999D01*
X166369995Y-86320000D01*
X161271606Y-86320000D01*
X161103216Y-86067987D01*
X160779969Y-85852000D01*
X161103216Y-85636013D01*
X161426338Y-85152428D01*
X161539803Y-84582000D01*
X161446712Y-84114000D01*
X161543995Y-84114000D01*
X161544000Y-84114001D01*
X161850912Y-84052951D01*
X162111100Y-83879100D01*
X163908200Y-82082000D01*
X164477227Y-82082000D01*
X164477227Y-82279490D01*
X164520947Y-82511842D01*
X164658267Y-82725243D01*
X164867793Y-82868407D01*
X165116510Y-82918773D01*
X167115490Y-82918773D01*
X167347842Y-82875053D01*
X167561243Y-82737733D01*
X167704407Y-82528207D01*
X167754773Y-82279490D01*
X167754773Y-80280510D01*
X167711053Y-80048158D01*
X167573733Y-79834757D01*
X167364207Y-79691593D01*
X167115490Y-79641227D01*
X165116510Y-79641227D01*
X164884158Y-79684947D01*
X164670757Y-79822267D01*
X164527593Y-80031793D01*
X164477227Y-80280510D01*
X164477227Y-80478000D01*
X163576005Y-80478000D01*
X163576000Y-80477999D01*
X163269088Y-80539049D01*
X163008900Y-80712900D01*
X161505041Y-82216759D01*
X161539803Y-82042000D01*
X161426338Y-81471572D01*
X161103216Y-80987987D01*
X160619631Y-80664865D01*
X160049203Y-80551400D01*
X159990797Y-80551400D01*
X159420369Y-80664865D01*
X158948739Y-80979999D01*
X158881927Y-80818701D01*
X158703298Y-80640073D01*
X158469909Y-80543400D01*
X157765750Y-80543400D01*
X157607000Y-80702150D01*
X157607000Y-81915000D01*
X157627000Y-81915000D01*
X157627000Y-82169000D01*
X157607000Y-82169000D01*
X157607000Y-82189000D01*
X157353000Y-82189000D01*
X157353000Y-82169000D01*
X157333000Y-82169000D01*
X157333000Y-81915000D01*
X157353000Y-81915000D01*
X157353000Y-80702150D01*
X157194250Y-80543400D01*
X156810800Y-80543400D01*
X158066199Y-79288000D01*
X173911800Y-79288000D01*
X175204667Y-80580866D01*
X175204270Y-81034502D01*
X175405641Y-81521854D01*
X175778184Y-81895049D01*
X176265185Y-82097269D01*
X176792502Y-82097730D01*
X177279854Y-81896359D01*
X177653049Y-81523816D01*
X177855269Y-81036815D01*
X177855730Y-80509498D01*
X177654359Y-80022146D01*
X177281816Y-79648951D01*
X176794815Y-79446731D01*
X176338531Y-79446332D01*
X174811100Y-77918900D01*
X174550912Y-77745049D01*
X174244000Y-77683999D01*
X174243995Y-77684000D01*
X157734005Y-77684000D01*
X157734000Y-77683999D01*
X157614413Y-77707787D01*
X158696012Y-76626188D01*
X175775417Y-76626188D01*
X175837071Y-76861800D01*
X176337480Y-77037927D01*
X176867199Y-77009148D01*
X177222929Y-76861800D01*
X177284583Y-76626188D01*
X183395417Y-76626188D01*
X183457071Y-76861800D01*
X183957480Y-77037927D01*
X184487199Y-77009148D01*
X184842929Y-76861800D01*
X184904583Y-76626188D01*
X184150000Y-75871605D01*
X183395417Y-76626188D01*
X177284583Y-76626188D01*
X176530000Y-75871605D01*
X175775417Y-76626188D01*
X158696012Y-76626188D01*
X159822720Y-75499480D01*
X175184073Y-75499480D01*
X175212852Y-76029199D01*
X175360200Y-76384929D01*
X175595812Y-76446583D01*
X176350395Y-75692000D01*
X176709605Y-75692000D01*
X177464188Y-76446583D01*
X177699800Y-76384929D01*
X177875927Y-75884520D01*
X177855009Y-75499480D01*
X182804073Y-75499480D01*
X182832852Y-76029199D01*
X182980200Y-76384929D01*
X183215812Y-76446583D01*
X183970395Y-75692000D01*
X183215812Y-74937417D01*
X182980200Y-74999071D01*
X182804073Y-75499480D01*
X177855009Y-75499480D01*
X177847148Y-75354801D01*
X177699800Y-74999071D01*
X177464188Y-74937417D01*
X176709605Y-75692000D01*
X176350395Y-75692000D01*
X175595812Y-74937417D01*
X175360200Y-74999071D01*
X175184073Y-75499480D01*
X159822720Y-75499480D01*
X160564388Y-74757812D01*
X175775417Y-74757812D01*
X176530000Y-75512395D01*
X177284583Y-74757812D01*
X183395417Y-74757812D01*
X184150000Y-75512395D01*
X184904583Y-74757812D01*
X184842929Y-74522200D01*
X184342520Y-74346073D01*
X183812801Y-74374852D01*
X183457071Y-74522200D01*
X183395417Y-74757812D01*
X177284583Y-74757812D01*
X177222929Y-74522200D01*
X176722520Y-74346073D01*
X176192801Y-74374852D01*
X175837071Y-74522200D01*
X175775417Y-74757812D01*
X160564388Y-74757812D01*
X162130200Y-73192000D01*
X175457696Y-73192000D01*
X175778184Y-73513049D01*
X176265185Y-73715269D01*
X176792502Y-73715730D01*
X177279854Y-73514359D01*
X177653049Y-73141816D01*
X177855269Y-72654815D01*
X177855730Y-72127498D01*
X177654359Y-71640146D01*
X177281816Y-71266951D01*
X176794815Y-71064731D01*
X176267498Y-71064270D01*
X175780146Y-71265641D01*
X175457223Y-71588000D01*
X161798000Y-71588000D01*
X161491088Y-71649049D01*
X161230900Y-71822900D01*
X156240445Y-76813355D01*
X155939583Y-76937669D01*
X155702000Y-77174838D01*
X155702000Y-69401389D01*
X155744495Y-69504235D01*
X156491831Y-70252876D01*
X157468772Y-70658538D01*
X158526587Y-70659461D01*
X159504235Y-70255505D01*
X160252876Y-69508169D01*
X160658538Y-68531228D01*
X160659461Y-67473413D01*
X160255505Y-66495765D01*
X159508169Y-65747124D01*
X159399499Y-65702000D01*
X162316620Y-65702000D01*
X162266647Y-65734157D01*
G36*
X174371000Y-87233000D02*
X174391000Y-87233000D01*
X174391000Y-87487000D01*
X174371000Y-87487000D01*
X174371000Y-87507000D01*
X174117000Y-87507000D01*
X174117000Y-87487000D01*
X174097000Y-87487000D01*
X174097000Y-87233000D01*
X174117000Y-87233000D01*
X174117000Y-87213000D01*
X174371000Y-87213000D01*
X174371000Y-87233000D01*
X174371000Y-87233000D01*
G37*
X174371000Y-87233000D02*
X174391000Y-87233000D01*
X174391000Y-87487000D01*
X174371000Y-87487000D01*
X174371000Y-87507000D01*
X174117000Y-87507000D01*
X174117000Y-87487000D01*
X174097000Y-87487000D01*
X174097000Y-87233000D01*
X174117000Y-87233000D01*
X174117000Y-87213000D01*
X174371000Y-87213000D01*
X174371000Y-87233000D01*
M02*
