G04 #@! TF.FileFunction,Copper,L2,Bot,Signal*
%FSLAX46Y46*%
G04 Gerber Fmt 4.6, Leading zero omitted, Abs format (unit mm)*
G04 Created by KiCad (PCBNEW 4.0.0-2.201511301920+6191~38~ubuntu14.04.1-stable) date Fri 11 Dec 2015 10:08:10 PM CET*
%MOMM*%
G01*
G04 APERTURE LIST*
%ADD10C,0.100000*%
%ADD11C,1.998980*%
%ADD12R,1.998980X1.998980*%
%ADD13R,1.250000X1.500000*%
%ADD14R,1.500000X1.250000*%
%ADD15C,2.349500*%
%ADD16R,1.727200X1.727200*%
%ADD17O,1.727200X1.727200*%
%ADD18R,2.540000X2.540000*%
%ADD19C,2.540000*%
%ADD20R,2.235200X2.235200*%
%ADD21R,1.500000X1.300000*%
%ADD22R,1.300000X1.500000*%
%ADD23C,3.000000*%
%ADD24R,0.600000X1.550000*%
%ADD25C,4.064000*%
%ADD26C,0.600000*%
%ADD27C,0.500000*%
%ADD28C,1.000000*%
%ADD29C,0.254000*%
G04 APERTURE END LIST*
D10*
D11*
X106190000Y-96000000D03*
D12*
X110000000Y-96000000D03*
D13*
X104000000Y-104250000D03*
X104000000Y-101750000D03*
X105918000Y-92690000D03*
X105918000Y-90190000D03*
D14*
X123750000Y-101000000D03*
X126250000Y-101000000D03*
D15*
X99998740Y-119000000D03*
X95000020Y-119000000D03*
X110001260Y-119000000D03*
X114999980Y-119000000D03*
D16*
X83000000Y-98000000D03*
D17*
X85540000Y-98000000D03*
X83000000Y-100540000D03*
X85540000Y-100540000D03*
X83000000Y-103080000D03*
X85540000Y-103080000D03*
D18*
X85000000Y-114540000D03*
D19*
X85000000Y-109460000D03*
D20*
X99060000Y-91948000D03*
X114000000Y-91000000D03*
X110000000Y-91000000D03*
D18*
X125000000Y-109460000D03*
D19*
X125000000Y-114540000D03*
D21*
X94350000Y-98000000D03*
X91650000Y-98000000D03*
D22*
X118364000Y-89836000D03*
X118364000Y-92536000D03*
D21*
X98650000Y-109000000D03*
X101350000Y-109000000D03*
D22*
X103632000Y-90090000D03*
X103632000Y-92790000D03*
D23*
X92000000Y-102250000D03*
X92000000Y-106000000D03*
X92000000Y-109750000D03*
X112000000Y-102250000D03*
X112000000Y-109750000D03*
X117000000Y-102250000D03*
X117000000Y-109750000D03*
D24*
X100905000Y-104700000D03*
X99635000Y-104700000D03*
X98365000Y-104700000D03*
X97095000Y-104700000D03*
X97095000Y-99300000D03*
X98365000Y-99300000D03*
X99635000Y-99300000D03*
X100905000Y-99300000D03*
D25*
X83312000Y-121666000D03*
X83566000Y-91440000D03*
X126492000Y-91440000D03*
X126492000Y-121666000D03*
D26*
X102362000Y-100584000D03*
X121666000Y-98298000D03*
X128016000Y-98298000D03*
X121158000Y-89916000D03*
X92456000Y-88900000D03*
X98044000Y-102362000D03*
X108966000Y-93980000D03*
X116840000Y-91694000D03*
X126238000Y-106172000D03*
D27*
X100905000Y-104700000D02*
X100905000Y-102041000D01*
X100905000Y-102041000D02*
X102362000Y-100584000D01*
X101350000Y-109000000D02*
X101350000Y-107446000D01*
X101350000Y-107446000D02*
X100905000Y-107001000D01*
X100905000Y-107001000D02*
X100905000Y-104700000D01*
X83000000Y-100540000D02*
X82252000Y-100540000D01*
X82252000Y-100540000D02*
X81534000Y-99822000D01*
X81534000Y-99822000D02*
X81534000Y-96520000D01*
X81534000Y-96520000D02*
X82804000Y-95250000D01*
X82804000Y-95250000D02*
X101172000Y-95250000D01*
X101172000Y-95250000D02*
X103632000Y-92790000D01*
X105918000Y-92690000D02*
X109494000Y-92690000D01*
X109494000Y-92690000D02*
X110000000Y-92184000D01*
X110000000Y-92184000D02*
X110000000Y-91000000D01*
X103732000Y-92690000D02*
X105918000Y-92690000D01*
X104000000Y-104250000D02*
X105808000Y-104250000D01*
X105808000Y-104250000D02*
X106934000Y-103124000D01*
X106934000Y-103124000D02*
X106934000Y-99568000D01*
X106934000Y-99568000D02*
X108204000Y-98298000D01*
X108204000Y-98298000D02*
X121666000Y-98298000D01*
X123750000Y-101000000D02*
X122590000Y-101000000D01*
X122590000Y-101000000D02*
X121666000Y-100076000D01*
X121666000Y-100076000D02*
X121666000Y-98298000D01*
X97095000Y-104700000D02*
X96468000Y-104700000D01*
X96468000Y-104700000D02*
X94742000Y-106426000D01*
X104000000Y-104250000D02*
X104000000Y-109614000D01*
X104000000Y-109614000D02*
X102616000Y-110998000D01*
X102616000Y-110998000D02*
X97028000Y-110998000D01*
X97028000Y-110998000D02*
X95250000Y-109220000D01*
X95250000Y-109220000D02*
X95250000Y-106934000D01*
X95250000Y-106934000D02*
X94742000Y-106426000D01*
X94742000Y-106426000D02*
X94316000Y-106000000D01*
X94316000Y-106000000D02*
X92000000Y-106000000D01*
X92000000Y-106000000D02*
X90252000Y-106000000D01*
X90252000Y-106000000D02*
X89154000Y-104902000D01*
X89154000Y-104902000D02*
X89154000Y-99060000D01*
X89154000Y-99060000D02*
X88094000Y-98000000D01*
X88094000Y-98000000D02*
X85540000Y-98000000D01*
X128016000Y-98298000D02*
X123444000Y-98298000D01*
X123444000Y-98298000D02*
X121158000Y-96012000D01*
X121158000Y-96012000D02*
X121158000Y-89916000D01*
X83000000Y-98000000D02*
X83000000Y-96578000D01*
X83000000Y-96578000D02*
X83566000Y-96012000D01*
X83566000Y-96012000D02*
X100076000Y-96012000D01*
X100905000Y-99300000D02*
X100905000Y-96841000D01*
X100905000Y-96841000D02*
X100076000Y-96012000D01*
X126250000Y-101000000D02*
X127600000Y-101000000D01*
X127600000Y-101000000D02*
X128016000Y-100584000D01*
X128016000Y-100584000D02*
X128016000Y-98298000D01*
X121158000Y-89916000D02*
X121078000Y-89836000D01*
X121078000Y-89836000D02*
X118364000Y-89836000D01*
X105918000Y-90190000D02*
X106660000Y-90190000D01*
X106660000Y-90190000D02*
X108204000Y-88646000D01*
X108204000Y-88646000D02*
X117174000Y-88646000D01*
X117174000Y-88646000D02*
X118364000Y-89836000D01*
X100905000Y-99300000D02*
X103618000Y-99300000D01*
X103618000Y-99300000D02*
X104000000Y-99682000D01*
X104000000Y-99682000D02*
X104000000Y-101750000D01*
X92456000Y-88900000D02*
X102362000Y-88900000D01*
X102362000Y-88900000D02*
X103552000Y-90090000D01*
X103552000Y-90090000D02*
X105818000Y-90090000D01*
X105818000Y-90090000D02*
X105918000Y-90190000D01*
D28*
X85000000Y-109460000D02*
X86346000Y-109460000D01*
X86346000Y-109460000D02*
X88900000Y-112014000D01*
X88900000Y-112014000D02*
X88900000Y-112899980D01*
X88900000Y-112899980D02*
X95000020Y-119000000D01*
X99998740Y-119000000D02*
X95000020Y-119000000D01*
X114999980Y-119000000D02*
X110001260Y-119000000D01*
X110001260Y-119000000D02*
X109982000Y-118980740D01*
X109982000Y-118980740D02*
X109982000Y-111768000D01*
X109982000Y-111768000D02*
X112000000Y-109750000D01*
D27*
X92000000Y-109750000D02*
X91970000Y-109750000D01*
X91970000Y-109750000D02*
X88392000Y-106172000D01*
X88392000Y-106172000D02*
X88392000Y-101600000D01*
X88392000Y-101600000D02*
X87332000Y-100540000D01*
X87332000Y-100540000D02*
X85540000Y-100540000D01*
D28*
X125000000Y-114540000D02*
X122442000Y-114540000D01*
X122442000Y-114540000D02*
X119380000Y-117602000D01*
X119380000Y-117602000D02*
X119380000Y-121412000D01*
X119380000Y-121412000D02*
X117348000Y-123444000D01*
X117348000Y-123444000D02*
X90424000Y-123444000D01*
X90424000Y-123444000D02*
X88646000Y-121666000D01*
X88646000Y-121666000D02*
X88646000Y-118186000D01*
X88646000Y-118186000D02*
X85000000Y-114540000D01*
D27*
X98650000Y-109000000D02*
X98650000Y-107598000D01*
X98650000Y-107598000D02*
X99635000Y-106613000D01*
X99635000Y-106613000D02*
X99635000Y-104700000D01*
X99635000Y-104700000D02*
X99635000Y-102175000D01*
X99635000Y-102175000D02*
X98298000Y-100838000D01*
X98298000Y-100838000D02*
X95758000Y-100838000D01*
X95758000Y-100838000D02*
X94350000Y-99430000D01*
X94350000Y-99430000D02*
X94350000Y-98000000D01*
X117682000Y-92536000D02*
X116840000Y-92536000D01*
X98365000Y-104700000D02*
X98365000Y-102683000D01*
X98365000Y-102683000D02*
X98044000Y-102362000D01*
X108966000Y-93980000D02*
X113538000Y-93980000D01*
X113538000Y-93980000D02*
X115824000Y-93980000D01*
X115824000Y-93980000D02*
X116840000Y-92964000D01*
X116840000Y-92964000D02*
X116840000Y-92536000D01*
X116840000Y-92536000D02*
X116840000Y-91694000D01*
X117682000Y-92536000D02*
X118364000Y-92536000D01*
D28*
X125000000Y-109460000D02*
X125000000Y-107410000D01*
X125000000Y-107410000D02*
X126238000Y-106172000D01*
D29*
G36*
X129290000Y-124290000D02*
X127125358Y-124290000D01*
X128000761Y-123928291D01*
X128751655Y-123178707D01*
X129158536Y-122198827D01*
X129159462Y-121137828D01*
X128754291Y-120157239D01*
X128004707Y-119406345D01*
X127024827Y-118999464D01*
X125963828Y-118998538D01*
X124983239Y-119403709D01*
X124232345Y-120153293D01*
X123825464Y-121133173D01*
X123824538Y-122194172D01*
X124229709Y-123174761D01*
X124979293Y-123925655D01*
X125856735Y-124290000D01*
X118085562Y-124290000D01*
X118150566Y-124246566D01*
X120182566Y-122214566D01*
X120258886Y-122100345D01*
X120428603Y-121846346D01*
X120515000Y-121412000D01*
X120515000Y-118072132D01*
X122912132Y-115675000D01*
X123441292Y-115675000D01*
X123919495Y-116154039D01*
X124619410Y-116444668D01*
X125377265Y-116445330D01*
X126077686Y-116155922D01*
X126614039Y-115620505D01*
X126904668Y-114920590D01*
X126905330Y-114162735D01*
X126615922Y-113462314D01*
X126080505Y-112925961D01*
X125380590Y-112635332D01*
X124622735Y-112634670D01*
X123922314Y-112924078D01*
X123440551Y-113405000D01*
X122442000Y-113405000D01*
X122007654Y-113491397D01*
X121691648Y-113702546D01*
X121639434Y-113737434D01*
X118577434Y-116799434D01*
X118331397Y-117167654D01*
X118245000Y-117602000D01*
X118245000Y-120941868D01*
X116877868Y-122309000D01*
X90894132Y-122309000D01*
X89781000Y-121195868D01*
X89781000Y-118186000D01*
X89739268Y-117976198D01*
X89694604Y-117751655D01*
X89448566Y-117383434D01*
X86917440Y-114852308D01*
X86917440Y-113270000D01*
X86873162Y-113034683D01*
X86734090Y-112818559D01*
X86521890Y-112673569D01*
X86270000Y-112622560D01*
X83730000Y-112622560D01*
X83494683Y-112666838D01*
X83278559Y-112805910D01*
X83133569Y-113018110D01*
X83082560Y-113270000D01*
X83082560Y-115810000D01*
X83126838Y-116045317D01*
X83265910Y-116261441D01*
X83478110Y-116406431D01*
X83730000Y-116457440D01*
X85312308Y-116457440D01*
X87511000Y-118656132D01*
X87511000Y-121666000D01*
X87597397Y-122100346D01*
X87794544Y-122395397D01*
X87843434Y-122468566D01*
X89621434Y-124246566D01*
X89686438Y-124290000D01*
X83945358Y-124290000D01*
X84820761Y-123928291D01*
X85571655Y-123178707D01*
X85978536Y-122198827D01*
X85979462Y-121137828D01*
X85574291Y-120157239D01*
X84824707Y-119406345D01*
X83844827Y-118999464D01*
X82783828Y-118998538D01*
X81803239Y-119403709D01*
X81052345Y-120153293D01*
X80710000Y-120977753D01*
X80710000Y-109837265D01*
X83094670Y-109837265D01*
X83384078Y-110537686D01*
X83919495Y-111074039D01*
X84619410Y-111364668D01*
X85377265Y-111365330D01*
X86077686Y-111075922D01*
X86217360Y-110936492D01*
X87765000Y-112484133D01*
X87765000Y-112899980D01*
X87851397Y-113334326D01*
X87936916Y-113462314D01*
X88097434Y-113702546D01*
X93190448Y-118795560D01*
X93189957Y-119358402D01*
X93464894Y-120023802D01*
X93973541Y-120533337D01*
X94638459Y-120809435D01*
X95358422Y-120810063D01*
X96023822Y-120535126D01*
X96424647Y-120135000D01*
X98574618Y-120135000D01*
X98972261Y-120533337D01*
X99637179Y-120809435D01*
X100357142Y-120810063D01*
X101022542Y-120535126D01*
X101532077Y-120026479D01*
X101808175Y-119361561D01*
X101808177Y-119358402D01*
X108191197Y-119358402D01*
X108466134Y-120023802D01*
X108974781Y-120533337D01*
X109639699Y-120809435D01*
X110359662Y-120810063D01*
X111025062Y-120535126D01*
X111425887Y-120135000D01*
X113575858Y-120135000D01*
X113973501Y-120533337D01*
X114638419Y-120809435D01*
X115358382Y-120810063D01*
X116023782Y-120535126D01*
X116533317Y-120026479D01*
X116809415Y-119361561D01*
X116810043Y-118641598D01*
X116535106Y-117976198D01*
X116026459Y-117466663D01*
X115361541Y-117190565D01*
X114641578Y-117189937D01*
X113976178Y-117464874D01*
X113575353Y-117865000D01*
X111425382Y-117865000D01*
X111117000Y-117556080D01*
X111117000Y-112238132D01*
X111500711Y-111854421D01*
X111573459Y-111884628D01*
X112422815Y-111885370D01*
X113207800Y-111561020D01*
X113808909Y-110960959D01*
X114134628Y-110176541D01*
X114134631Y-110172815D01*
X114864630Y-110172815D01*
X115188980Y-110957800D01*
X115789041Y-111558909D01*
X116573459Y-111884628D01*
X117422815Y-111885370D01*
X118207800Y-111561020D01*
X118808909Y-110960959D01*
X119134628Y-110176541D01*
X119135370Y-109327185D01*
X118811020Y-108542200D01*
X118459435Y-108190000D01*
X123082560Y-108190000D01*
X123082560Y-110730000D01*
X123126838Y-110965317D01*
X123265910Y-111181441D01*
X123478110Y-111326431D01*
X123730000Y-111377440D01*
X126270000Y-111377440D01*
X126505317Y-111333162D01*
X126721441Y-111194090D01*
X126866431Y-110981890D01*
X126917440Y-110730000D01*
X126917440Y-108190000D01*
X126873162Y-107954683D01*
X126734090Y-107738559D01*
X126521890Y-107593569D01*
X126438458Y-107576674D01*
X127040566Y-106974566D01*
X127286603Y-106606346D01*
X127372999Y-106172000D01*
X127286603Y-105737655D01*
X127040566Y-105369434D01*
X126672345Y-105123397D01*
X126238000Y-105037001D01*
X125803654Y-105123397D01*
X125435434Y-105369434D01*
X124197434Y-106607434D01*
X123951397Y-106975654D01*
X123865000Y-107410000D01*
X123865000Y-107542560D01*
X123730000Y-107542560D01*
X123494683Y-107586838D01*
X123278559Y-107725910D01*
X123133569Y-107938110D01*
X123082560Y-108190000D01*
X118459435Y-108190000D01*
X118210959Y-107941091D01*
X117426541Y-107615372D01*
X116577185Y-107614630D01*
X115792200Y-107938980D01*
X115191091Y-108539041D01*
X114865372Y-109323459D01*
X114864630Y-110172815D01*
X114134631Y-110172815D01*
X114135370Y-109327185D01*
X113811020Y-108542200D01*
X113210959Y-107941091D01*
X112426541Y-107615372D01*
X111577185Y-107614630D01*
X110792200Y-107938980D01*
X110191091Y-108539041D01*
X109865372Y-109323459D01*
X109864630Y-110172815D01*
X109896039Y-110248829D01*
X109179434Y-110965434D01*
X108933397Y-111333654D01*
X108847000Y-111768000D01*
X108847000Y-117595105D01*
X108467923Y-117973521D01*
X108191825Y-118638439D01*
X108191197Y-119358402D01*
X101808177Y-119358402D01*
X101808803Y-118641598D01*
X101533866Y-117976198D01*
X101025219Y-117466663D01*
X100360301Y-117190565D01*
X99640338Y-117189937D01*
X98974938Y-117464874D01*
X98574113Y-117865000D01*
X96424142Y-117865000D01*
X96026499Y-117466663D01*
X95361581Y-117190565D01*
X94795223Y-117190071D01*
X90035000Y-112429848D01*
X90035000Y-112014000D01*
X89948603Y-111579654D01*
X89813488Y-111377440D01*
X89702566Y-111211433D01*
X87148566Y-108657434D01*
X87085059Y-108615000D01*
X86780346Y-108411397D01*
X86611409Y-108377793D01*
X86080505Y-107845961D01*
X85380590Y-107555332D01*
X84622735Y-107554670D01*
X83922314Y-107844078D01*
X83385961Y-108379495D01*
X83095332Y-109079410D01*
X83094670Y-109837265D01*
X80710000Y-109837265D01*
X80710000Y-100128666D01*
X80716367Y-100160675D01*
X80816354Y-100310317D01*
X80908210Y-100447790D01*
X81610692Y-101150271D01*
X81910971Y-101599670D01*
X82225752Y-101810000D01*
X81910971Y-102020330D01*
X81586115Y-102506511D01*
X81472041Y-103080000D01*
X81586115Y-103653489D01*
X81910971Y-104139670D01*
X82397152Y-104464526D01*
X82970641Y-104578600D01*
X83029359Y-104578600D01*
X83602848Y-104464526D01*
X84089029Y-104139670D01*
X84270000Y-103868828D01*
X84450971Y-104139670D01*
X84937152Y-104464526D01*
X85510641Y-104578600D01*
X85569359Y-104578600D01*
X86142848Y-104464526D01*
X86629029Y-104139670D01*
X86953885Y-103653489D01*
X87067959Y-103080000D01*
X86953885Y-102506511D01*
X86629029Y-102020330D01*
X86314248Y-101810000D01*
X86629029Y-101599670D01*
X86745740Y-101425000D01*
X86965420Y-101425000D01*
X87507000Y-101966579D01*
X87507000Y-106171995D01*
X87506999Y-106172000D01*
X87547421Y-106375210D01*
X87574367Y-106510675D01*
X87744083Y-106764674D01*
X87766210Y-106797790D01*
X89990511Y-109022091D01*
X89865372Y-109323459D01*
X89864630Y-110172815D01*
X90188980Y-110957800D01*
X90789041Y-111558909D01*
X91573459Y-111884628D01*
X92422815Y-111885370D01*
X93207800Y-111561020D01*
X93808909Y-110960959D01*
X94134628Y-110176541D01*
X94135370Y-109327185D01*
X93811020Y-108542200D01*
X93210959Y-107941091D01*
X93052374Y-107875241D01*
X93207800Y-107811020D01*
X93808909Y-107210959D01*
X93944259Y-106885000D01*
X93949421Y-106885000D01*
X94116208Y-107051787D01*
X94116210Y-107051790D01*
X94365000Y-107300580D01*
X94365000Y-109219995D01*
X94364999Y-109220000D01*
X94403057Y-109411325D01*
X94432367Y-109558675D01*
X94624210Y-109845790D01*
X96402208Y-111623787D01*
X96402210Y-111623790D01*
X96689325Y-111815633D01*
X96745516Y-111826810D01*
X97028000Y-111883001D01*
X97028005Y-111883000D01*
X102615995Y-111883000D01*
X102616000Y-111883001D01*
X102898484Y-111826810D01*
X102954675Y-111815633D01*
X103241790Y-111623790D01*
X104625787Y-110239792D01*
X104625790Y-110239790D01*
X104817633Y-109952675D01*
X104817634Y-109952674D01*
X104885001Y-109614000D01*
X104885000Y-109613995D01*
X104885000Y-105587279D01*
X105076441Y-105464090D01*
X105221431Y-105251890D01*
X105245102Y-105135000D01*
X105807995Y-105135000D01*
X105808000Y-105135001D01*
X106090484Y-105078810D01*
X106146675Y-105067633D01*
X106433790Y-104875790D01*
X107559787Y-103749792D01*
X107559790Y-103749790D01*
X107751633Y-103462675D01*
X107819000Y-103124000D01*
X107819000Y-102672815D01*
X109864630Y-102672815D01*
X110188980Y-103457800D01*
X110789041Y-104058909D01*
X111573459Y-104384628D01*
X112422815Y-104385370D01*
X113207800Y-104061020D01*
X113808909Y-103460959D01*
X114134628Y-102676541D01*
X114134631Y-102672815D01*
X114864630Y-102672815D01*
X115188980Y-103457800D01*
X115789041Y-104058909D01*
X116573459Y-104384628D01*
X117422815Y-104385370D01*
X118207800Y-104061020D01*
X118808909Y-103460959D01*
X119134628Y-102676541D01*
X119135370Y-101827185D01*
X118811020Y-101042200D01*
X118210959Y-100441091D01*
X117426541Y-100115372D01*
X116577185Y-100114630D01*
X115792200Y-100438980D01*
X115191091Y-101039041D01*
X114865372Y-101823459D01*
X114864630Y-102672815D01*
X114134631Y-102672815D01*
X114135370Y-101827185D01*
X113811020Y-101042200D01*
X113210959Y-100441091D01*
X112426541Y-100115372D01*
X111577185Y-100114630D01*
X110792200Y-100438980D01*
X110191091Y-101039041D01*
X109865372Y-101823459D01*
X109864630Y-102672815D01*
X107819000Y-102672815D01*
X107819000Y-99934580D01*
X108570579Y-99183000D01*
X120781000Y-99183000D01*
X120781000Y-100075995D01*
X120780999Y-100076000D01*
X120808094Y-100212211D01*
X120848367Y-100414675D01*
X120931498Y-100539090D01*
X121040210Y-100701790D01*
X121964208Y-101625787D01*
X121964210Y-101625790D01*
X122221942Y-101798000D01*
X122251325Y-101817633D01*
X122394152Y-101846043D01*
X122396838Y-101860317D01*
X122535910Y-102076441D01*
X122748110Y-102221431D01*
X123000000Y-102272440D01*
X124500000Y-102272440D01*
X124735317Y-102228162D01*
X124951441Y-102089090D01*
X124997969Y-102020994D01*
X125140302Y-102163327D01*
X125373691Y-102260000D01*
X125964250Y-102260000D01*
X126123000Y-102101250D01*
X126123000Y-101127000D01*
X126377000Y-101127000D01*
X126377000Y-102101250D01*
X126535750Y-102260000D01*
X127126309Y-102260000D01*
X127359698Y-102163327D01*
X127538327Y-101984699D01*
X127635000Y-101751310D01*
X127635000Y-101285750D01*
X127476250Y-101127000D01*
X126377000Y-101127000D01*
X126123000Y-101127000D01*
X126103000Y-101127000D01*
X126103000Y-100873000D01*
X126123000Y-100873000D01*
X126123000Y-99898750D01*
X126377000Y-99898750D01*
X126377000Y-100873000D01*
X127476250Y-100873000D01*
X127635000Y-100714250D01*
X127635000Y-100248690D01*
X127538327Y-100015301D01*
X127359698Y-99836673D01*
X127126309Y-99740000D01*
X126535750Y-99740000D01*
X126377000Y-99898750D01*
X126123000Y-99898750D01*
X125964250Y-99740000D01*
X125373691Y-99740000D01*
X125140302Y-99836673D01*
X124999064Y-99977910D01*
X124964090Y-99923559D01*
X124751890Y-99778569D01*
X124500000Y-99727560D01*
X123000000Y-99727560D01*
X122764683Y-99771838D01*
X122672643Y-99831064D01*
X122551000Y-99709420D01*
X122551000Y-98604822D01*
X122600838Y-98484799D01*
X122601162Y-98112833D01*
X122459117Y-97769057D01*
X122196327Y-97505808D01*
X121852799Y-97363162D01*
X121480833Y-97362838D01*
X121359431Y-97413000D01*
X111485491Y-97413000D01*
X111595921Y-97251380D01*
X111646930Y-96999490D01*
X111646930Y-95000510D01*
X111621432Y-94865000D01*
X115823995Y-94865000D01*
X115824000Y-94865001D01*
X116106484Y-94808810D01*
X116162675Y-94797633D01*
X116449790Y-94605790D01*
X117290443Y-93765136D01*
X117462110Y-93882431D01*
X117714000Y-93933440D01*
X119014000Y-93933440D01*
X119249317Y-93889162D01*
X119465441Y-93750090D01*
X119610431Y-93537890D01*
X119661440Y-93286000D01*
X119661440Y-91968172D01*
X123824538Y-91968172D01*
X124229709Y-92948761D01*
X124979293Y-93699655D01*
X125959173Y-94106536D01*
X127020172Y-94107462D01*
X128000761Y-93702291D01*
X128751655Y-92952707D01*
X129158536Y-91972827D01*
X129159462Y-90911828D01*
X128754291Y-89931239D01*
X128004707Y-89180345D01*
X127024827Y-88773464D01*
X125963828Y-88772538D01*
X124983239Y-89177709D01*
X124232345Y-89927293D01*
X123825464Y-90907173D01*
X123824538Y-91968172D01*
X119661440Y-91968172D01*
X119661440Y-91786000D01*
X119617162Y-91550683D01*
X119478090Y-91334559D01*
X119265890Y-91189569D01*
X119232510Y-91182809D01*
X119373699Y-91124327D01*
X119552327Y-90945698D01*
X119649000Y-90712309D01*
X119649000Y-90121750D01*
X119490250Y-89963000D01*
X118491000Y-89963000D01*
X118491000Y-89983000D01*
X118237000Y-89983000D01*
X118237000Y-89963000D01*
X117237750Y-89963000D01*
X117079000Y-90121750D01*
X117079000Y-90712309D01*
X117113282Y-90795073D01*
X117026799Y-90759162D01*
X116654833Y-90758838D01*
X116311057Y-90900883D01*
X116047808Y-91163673D01*
X115905162Y-91507201D01*
X115904838Y-91879167D01*
X115955000Y-92000569D01*
X115955000Y-92597421D01*
X115457420Y-93095000D01*
X110340580Y-93095000D01*
X110625787Y-92809792D01*
X110625790Y-92809790D01*
X110655691Y-92765040D01*
X111117600Y-92765040D01*
X111352917Y-92720762D01*
X111569041Y-92581690D01*
X111714031Y-92369490D01*
X111765040Y-92117600D01*
X111765040Y-89882400D01*
X112234960Y-89882400D01*
X112234960Y-92117600D01*
X112279238Y-92352917D01*
X112418310Y-92569041D01*
X112630510Y-92714031D01*
X112882400Y-92765040D01*
X115117600Y-92765040D01*
X115352917Y-92720762D01*
X115569041Y-92581690D01*
X115714031Y-92369490D01*
X115765040Y-92117600D01*
X115765040Y-89882400D01*
X115720762Y-89647083D01*
X115581690Y-89430959D01*
X115369490Y-89285969D01*
X115117600Y-89234960D01*
X112882400Y-89234960D01*
X112647083Y-89279238D01*
X112430959Y-89418310D01*
X112285969Y-89630510D01*
X112234960Y-89882400D01*
X111765040Y-89882400D01*
X111720762Y-89647083D01*
X111581690Y-89430959D01*
X111369490Y-89285969D01*
X111117600Y-89234960D01*
X108882400Y-89234960D01*
X108647083Y-89279238D01*
X108430959Y-89418310D01*
X108285969Y-89630510D01*
X108234960Y-89882400D01*
X108234960Y-91805000D01*
X107165038Y-91805000D01*
X107146162Y-91704683D01*
X107007090Y-91488559D01*
X106938994Y-91442031D01*
X107081327Y-91299698D01*
X107178000Y-91066309D01*
X107178000Y-90475750D01*
X107019250Y-90317000D01*
X106045000Y-90317000D01*
X106045000Y-90337000D01*
X105791000Y-90337000D01*
X105791000Y-90317000D01*
X104858250Y-90317000D01*
X104758250Y-90217000D01*
X103759000Y-90217000D01*
X103759000Y-90237000D01*
X103505000Y-90237000D01*
X103505000Y-90217000D01*
X102505750Y-90217000D01*
X102347000Y-90375750D01*
X102347000Y-90966309D01*
X102443673Y-91199698D01*
X102622301Y-91378327D01*
X102758287Y-91434654D01*
X102746683Y-91436838D01*
X102530559Y-91575910D01*
X102385569Y-91788110D01*
X102334560Y-92040000D01*
X102334560Y-92835861D01*
X100805420Y-94365000D01*
X82804005Y-94365000D01*
X82804000Y-94364999D01*
X82465325Y-94432367D01*
X82178210Y-94624210D01*
X82178208Y-94624213D01*
X80908210Y-95894210D01*
X80716367Y-96181325D01*
X80716367Y-96181326D01*
X80710000Y-96213334D01*
X80710000Y-91968172D01*
X80898538Y-91968172D01*
X81303709Y-92948761D01*
X82053293Y-93699655D01*
X83033173Y-94106536D01*
X84094172Y-94107462D01*
X85074761Y-93702291D01*
X85825655Y-92952707D01*
X86232536Y-91972827D01*
X86233462Y-90911828D01*
X86199817Y-90830400D01*
X97294960Y-90830400D01*
X97294960Y-93065600D01*
X97339238Y-93300917D01*
X97478310Y-93517041D01*
X97690510Y-93662031D01*
X97942400Y-93713040D01*
X100177600Y-93713040D01*
X100412917Y-93668762D01*
X100629041Y-93529690D01*
X100774031Y-93317490D01*
X100825040Y-93065600D01*
X100825040Y-90830400D01*
X100780762Y-90595083D01*
X100641690Y-90378959D01*
X100429490Y-90233969D01*
X100177600Y-90182960D01*
X97942400Y-90182960D01*
X97707083Y-90227238D01*
X97490959Y-90366310D01*
X97345969Y-90578510D01*
X97294960Y-90830400D01*
X86199817Y-90830400D01*
X85828291Y-89931239D01*
X85078707Y-89180345D01*
X84098827Y-88773464D01*
X83037828Y-88772538D01*
X82057239Y-89177709D01*
X81306345Y-89927293D01*
X80899464Y-90907173D01*
X80898538Y-91968172D01*
X80710000Y-91968172D01*
X80710000Y-88643730D01*
X80728295Y-88655954D01*
X81000000Y-88710000D01*
X102843619Y-88710000D01*
X102622301Y-88801673D01*
X102443673Y-88980302D01*
X102347000Y-89213691D01*
X102347000Y-89804250D01*
X102505750Y-89963000D01*
X103505000Y-89963000D01*
X103505000Y-89943000D01*
X103759000Y-89943000D01*
X103759000Y-89963000D01*
X104716750Y-89963000D01*
X104816750Y-90063000D01*
X105791000Y-90063000D01*
X105791000Y-88963750D01*
X106045000Y-88963750D01*
X106045000Y-90063000D01*
X107019250Y-90063000D01*
X107178000Y-89904250D01*
X107178000Y-89313691D01*
X107081327Y-89080302D01*
X106902699Y-88901673D01*
X106669310Y-88805000D01*
X106203750Y-88805000D01*
X106045000Y-88963750D01*
X105791000Y-88963750D01*
X105632250Y-88805000D01*
X105166690Y-88805000D01*
X104933301Y-88901673D01*
X104830387Y-89004588D01*
X104820327Y-88980302D01*
X104641699Y-88801673D01*
X104420381Y-88710000D01*
X117191975Y-88710000D01*
X117175673Y-88726302D01*
X117079000Y-88959691D01*
X117079000Y-89550250D01*
X117237750Y-89709000D01*
X118237000Y-89709000D01*
X118237000Y-89689000D01*
X118491000Y-89689000D01*
X118491000Y-89709000D01*
X119490250Y-89709000D01*
X119649000Y-89550250D01*
X119649000Y-88959691D01*
X119552327Y-88726302D01*
X119536025Y-88710000D01*
X129000000Y-88710000D01*
X129271705Y-88655954D01*
X129290000Y-88643730D01*
X129290000Y-124290000D01*
X129290000Y-124290000D01*
G37*
X129290000Y-124290000D02*
X127125358Y-124290000D01*
X128000761Y-123928291D01*
X128751655Y-123178707D01*
X129158536Y-122198827D01*
X129159462Y-121137828D01*
X128754291Y-120157239D01*
X128004707Y-119406345D01*
X127024827Y-118999464D01*
X125963828Y-118998538D01*
X124983239Y-119403709D01*
X124232345Y-120153293D01*
X123825464Y-121133173D01*
X123824538Y-122194172D01*
X124229709Y-123174761D01*
X124979293Y-123925655D01*
X125856735Y-124290000D01*
X118085562Y-124290000D01*
X118150566Y-124246566D01*
X120182566Y-122214566D01*
X120258886Y-122100345D01*
X120428603Y-121846346D01*
X120515000Y-121412000D01*
X120515000Y-118072132D01*
X122912132Y-115675000D01*
X123441292Y-115675000D01*
X123919495Y-116154039D01*
X124619410Y-116444668D01*
X125377265Y-116445330D01*
X126077686Y-116155922D01*
X126614039Y-115620505D01*
X126904668Y-114920590D01*
X126905330Y-114162735D01*
X126615922Y-113462314D01*
X126080505Y-112925961D01*
X125380590Y-112635332D01*
X124622735Y-112634670D01*
X123922314Y-112924078D01*
X123440551Y-113405000D01*
X122442000Y-113405000D01*
X122007654Y-113491397D01*
X121691648Y-113702546D01*
X121639434Y-113737434D01*
X118577434Y-116799434D01*
X118331397Y-117167654D01*
X118245000Y-117602000D01*
X118245000Y-120941868D01*
X116877868Y-122309000D01*
X90894132Y-122309000D01*
X89781000Y-121195868D01*
X89781000Y-118186000D01*
X89739268Y-117976198D01*
X89694604Y-117751655D01*
X89448566Y-117383434D01*
X86917440Y-114852308D01*
X86917440Y-113270000D01*
X86873162Y-113034683D01*
X86734090Y-112818559D01*
X86521890Y-112673569D01*
X86270000Y-112622560D01*
X83730000Y-112622560D01*
X83494683Y-112666838D01*
X83278559Y-112805910D01*
X83133569Y-113018110D01*
X83082560Y-113270000D01*
X83082560Y-115810000D01*
X83126838Y-116045317D01*
X83265910Y-116261441D01*
X83478110Y-116406431D01*
X83730000Y-116457440D01*
X85312308Y-116457440D01*
X87511000Y-118656132D01*
X87511000Y-121666000D01*
X87597397Y-122100346D01*
X87794544Y-122395397D01*
X87843434Y-122468566D01*
X89621434Y-124246566D01*
X89686438Y-124290000D01*
X83945358Y-124290000D01*
X84820761Y-123928291D01*
X85571655Y-123178707D01*
X85978536Y-122198827D01*
X85979462Y-121137828D01*
X85574291Y-120157239D01*
X84824707Y-119406345D01*
X83844827Y-118999464D01*
X82783828Y-118998538D01*
X81803239Y-119403709D01*
X81052345Y-120153293D01*
X80710000Y-120977753D01*
X80710000Y-109837265D01*
X83094670Y-109837265D01*
X83384078Y-110537686D01*
X83919495Y-111074039D01*
X84619410Y-111364668D01*
X85377265Y-111365330D01*
X86077686Y-111075922D01*
X86217360Y-110936492D01*
X87765000Y-112484133D01*
X87765000Y-112899980D01*
X87851397Y-113334326D01*
X87936916Y-113462314D01*
X88097434Y-113702546D01*
X93190448Y-118795560D01*
X93189957Y-119358402D01*
X93464894Y-120023802D01*
X93973541Y-120533337D01*
X94638459Y-120809435D01*
X95358422Y-120810063D01*
X96023822Y-120535126D01*
X96424647Y-120135000D01*
X98574618Y-120135000D01*
X98972261Y-120533337D01*
X99637179Y-120809435D01*
X100357142Y-120810063D01*
X101022542Y-120535126D01*
X101532077Y-120026479D01*
X101808175Y-119361561D01*
X101808177Y-119358402D01*
X108191197Y-119358402D01*
X108466134Y-120023802D01*
X108974781Y-120533337D01*
X109639699Y-120809435D01*
X110359662Y-120810063D01*
X111025062Y-120535126D01*
X111425887Y-120135000D01*
X113575858Y-120135000D01*
X113973501Y-120533337D01*
X114638419Y-120809435D01*
X115358382Y-120810063D01*
X116023782Y-120535126D01*
X116533317Y-120026479D01*
X116809415Y-119361561D01*
X116810043Y-118641598D01*
X116535106Y-117976198D01*
X116026459Y-117466663D01*
X115361541Y-117190565D01*
X114641578Y-117189937D01*
X113976178Y-117464874D01*
X113575353Y-117865000D01*
X111425382Y-117865000D01*
X111117000Y-117556080D01*
X111117000Y-112238132D01*
X111500711Y-111854421D01*
X111573459Y-111884628D01*
X112422815Y-111885370D01*
X113207800Y-111561020D01*
X113808909Y-110960959D01*
X114134628Y-110176541D01*
X114134631Y-110172815D01*
X114864630Y-110172815D01*
X115188980Y-110957800D01*
X115789041Y-111558909D01*
X116573459Y-111884628D01*
X117422815Y-111885370D01*
X118207800Y-111561020D01*
X118808909Y-110960959D01*
X119134628Y-110176541D01*
X119135370Y-109327185D01*
X118811020Y-108542200D01*
X118459435Y-108190000D01*
X123082560Y-108190000D01*
X123082560Y-110730000D01*
X123126838Y-110965317D01*
X123265910Y-111181441D01*
X123478110Y-111326431D01*
X123730000Y-111377440D01*
X126270000Y-111377440D01*
X126505317Y-111333162D01*
X126721441Y-111194090D01*
X126866431Y-110981890D01*
X126917440Y-110730000D01*
X126917440Y-108190000D01*
X126873162Y-107954683D01*
X126734090Y-107738559D01*
X126521890Y-107593569D01*
X126438458Y-107576674D01*
X127040566Y-106974566D01*
X127286603Y-106606346D01*
X127372999Y-106172000D01*
X127286603Y-105737655D01*
X127040566Y-105369434D01*
X126672345Y-105123397D01*
X126238000Y-105037001D01*
X125803654Y-105123397D01*
X125435434Y-105369434D01*
X124197434Y-106607434D01*
X123951397Y-106975654D01*
X123865000Y-107410000D01*
X123865000Y-107542560D01*
X123730000Y-107542560D01*
X123494683Y-107586838D01*
X123278559Y-107725910D01*
X123133569Y-107938110D01*
X123082560Y-108190000D01*
X118459435Y-108190000D01*
X118210959Y-107941091D01*
X117426541Y-107615372D01*
X116577185Y-107614630D01*
X115792200Y-107938980D01*
X115191091Y-108539041D01*
X114865372Y-109323459D01*
X114864630Y-110172815D01*
X114134631Y-110172815D01*
X114135370Y-109327185D01*
X113811020Y-108542200D01*
X113210959Y-107941091D01*
X112426541Y-107615372D01*
X111577185Y-107614630D01*
X110792200Y-107938980D01*
X110191091Y-108539041D01*
X109865372Y-109323459D01*
X109864630Y-110172815D01*
X109896039Y-110248829D01*
X109179434Y-110965434D01*
X108933397Y-111333654D01*
X108847000Y-111768000D01*
X108847000Y-117595105D01*
X108467923Y-117973521D01*
X108191825Y-118638439D01*
X108191197Y-119358402D01*
X101808177Y-119358402D01*
X101808803Y-118641598D01*
X101533866Y-117976198D01*
X101025219Y-117466663D01*
X100360301Y-117190565D01*
X99640338Y-117189937D01*
X98974938Y-117464874D01*
X98574113Y-117865000D01*
X96424142Y-117865000D01*
X96026499Y-117466663D01*
X95361581Y-117190565D01*
X94795223Y-117190071D01*
X90035000Y-112429848D01*
X90035000Y-112014000D01*
X89948603Y-111579654D01*
X89813488Y-111377440D01*
X89702566Y-111211433D01*
X87148566Y-108657434D01*
X87085059Y-108615000D01*
X86780346Y-108411397D01*
X86611409Y-108377793D01*
X86080505Y-107845961D01*
X85380590Y-107555332D01*
X84622735Y-107554670D01*
X83922314Y-107844078D01*
X83385961Y-108379495D01*
X83095332Y-109079410D01*
X83094670Y-109837265D01*
X80710000Y-109837265D01*
X80710000Y-100128666D01*
X80716367Y-100160675D01*
X80816354Y-100310317D01*
X80908210Y-100447790D01*
X81610692Y-101150271D01*
X81910971Y-101599670D01*
X82225752Y-101810000D01*
X81910971Y-102020330D01*
X81586115Y-102506511D01*
X81472041Y-103080000D01*
X81586115Y-103653489D01*
X81910971Y-104139670D01*
X82397152Y-104464526D01*
X82970641Y-104578600D01*
X83029359Y-104578600D01*
X83602848Y-104464526D01*
X84089029Y-104139670D01*
X84270000Y-103868828D01*
X84450971Y-104139670D01*
X84937152Y-104464526D01*
X85510641Y-104578600D01*
X85569359Y-104578600D01*
X86142848Y-104464526D01*
X86629029Y-104139670D01*
X86953885Y-103653489D01*
X87067959Y-103080000D01*
X86953885Y-102506511D01*
X86629029Y-102020330D01*
X86314248Y-101810000D01*
X86629029Y-101599670D01*
X86745740Y-101425000D01*
X86965420Y-101425000D01*
X87507000Y-101966579D01*
X87507000Y-106171995D01*
X87506999Y-106172000D01*
X87547421Y-106375210D01*
X87574367Y-106510675D01*
X87744083Y-106764674D01*
X87766210Y-106797790D01*
X89990511Y-109022091D01*
X89865372Y-109323459D01*
X89864630Y-110172815D01*
X90188980Y-110957800D01*
X90789041Y-111558909D01*
X91573459Y-111884628D01*
X92422815Y-111885370D01*
X93207800Y-111561020D01*
X93808909Y-110960959D01*
X94134628Y-110176541D01*
X94135370Y-109327185D01*
X93811020Y-108542200D01*
X93210959Y-107941091D01*
X93052374Y-107875241D01*
X93207800Y-107811020D01*
X93808909Y-107210959D01*
X93944259Y-106885000D01*
X93949421Y-106885000D01*
X94116208Y-107051787D01*
X94116210Y-107051790D01*
X94365000Y-107300580D01*
X94365000Y-109219995D01*
X94364999Y-109220000D01*
X94403057Y-109411325D01*
X94432367Y-109558675D01*
X94624210Y-109845790D01*
X96402208Y-111623787D01*
X96402210Y-111623790D01*
X96689325Y-111815633D01*
X96745516Y-111826810D01*
X97028000Y-111883001D01*
X97028005Y-111883000D01*
X102615995Y-111883000D01*
X102616000Y-111883001D01*
X102898484Y-111826810D01*
X102954675Y-111815633D01*
X103241790Y-111623790D01*
X104625787Y-110239792D01*
X104625790Y-110239790D01*
X104817633Y-109952675D01*
X104817634Y-109952674D01*
X104885001Y-109614000D01*
X104885000Y-109613995D01*
X104885000Y-105587279D01*
X105076441Y-105464090D01*
X105221431Y-105251890D01*
X105245102Y-105135000D01*
X105807995Y-105135000D01*
X105808000Y-105135001D01*
X106090484Y-105078810D01*
X106146675Y-105067633D01*
X106433790Y-104875790D01*
X107559787Y-103749792D01*
X107559790Y-103749790D01*
X107751633Y-103462675D01*
X107819000Y-103124000D01*
X107819000Y-102672815D01*
X109864630Y-102672815D01*
X110188980Y-103457800D01*
X110789041Y-104058909D01*
X111573459Y-104384628D01*
X112422815Y-104385370D01*
X113207800Y-104061020D01*
X113808909Y-103460959D01*
X114134628Y-102676541D01*
X114134631Y-102672815D01*
X114864630Y-102672815D01*
X115188980Y-103457800D01*
X115789041Y-104058909D01*
X116573459Y-104384628D01*
X117422815Y-104385370D01*
X118207800Y-104061020D01*
X118808909Y-103460959D01*
X119134628Y-102676541D01*
X119135370Y-101827185D01*
X118811020Y-101042200D01*
X118210959Y-100441091D01*
X117426541Y-100115372D01*
X116577185Y-100114630D01*
X115792200Y-100438980D01*
X115191091Y-101039041D01*
X114865372Y-101823459D01*
X114864630Y-102672815D01*
X114134631Y-102672815D01*
X114135370Y-101827185D01*
X113811020Y-101042200D01*
X113210959Y-100441091D01*
X112426541Y-100115372D01*
X111577185Y-100114630D01*
X110792200Y-100438980D01*
X110191091Y-101039041D01*
X109865372Y-101823459D01*
X109864630Y-102672815D01*
X107819000Y-102672815D01*
X107819000Y-99934580D01*
X108570579Y-99183000D01*
X120781000Y-99183000D01*
X120781000Y-100075995D01*
X120780999Y-100076000D01*
X120808094Y-100212211D01*
X120848367Y-100414675D01*
X120931498Y-100539090D01*
X121040210Y-100701790D01*
X121964208Y-101625787D01*
X121964210Y-101625790D01*
X122221942Y-101798000D01*
X122251325Y-101817633D01*
X122394152Y-101846043D01*
X122396838Y-101860317D01*
X122535910Y-102076441D01*
X122748110Y-102221431D01*
X123000000Y-102272440D01*
X124500000Y-102272440D01*
X124735317Y-102228162D01*
X124951441Y-102089090D01*
X124997969Y-102020994D01*
X125140302Y-102163327D01*
X125373691Y-102260000D01*
X125964250Y-102260000D01*
X126123000Y-102101250D01*
X126123000Y-101127000D01*
X126377000Y-101127000D01*
X126377000Y-102101250D01*
X126535750Y-102260000D01*
X127126309Y-102260000D01*
X127359698Y-102163327D01*
X127538327Y-101984699D01*
X127635000Y-101751310D01*
X127635000Y-101285750D01*
X127476250Y-101127000D01*
X126377000Y-101127000D01*
X126123000Y-101127000D01*
X126103000Y-101127000D01*
X126103000Y-100873000D01*
X126123000Y-100873000D01*
X126123000Y-99898750D01*
X126377000Y-99898750D01*
X126377000Y-100873000D01*
X127476250Y-100873000D01*
X127635000Y-100714250D01*
X127635000Y-100248690D01*
X127538327Y-100015301D01*
X127359698Y-99836673D01*
X127126309Y-99740000D01*
X126535750Y-99740000D01*
X126377000Y-99898750D01*
X126123000Y-99898750D01*
X125964250Y-99740000D01*
X125373691Y-99740000D01*
X125140302Y-99836673D01*
X124999064Y-99977910D01*
X124964090Y-99923559D01*
X124751890Y-99778569D01*
X124500000Y-99727560D01*
X123000000Y-99727560D01*
X122764683Y-99771838D01*
X122672643Y-99831064D01*
X122551000Y-99709420D01*
X122551000Y-98604822D01*
X122600838Y-98484799D01*
X122601162Y-98112833D01*
X122459117Y-97769057D01*
X122196327Y-97505808D01*
X121852799Y-97363162D01*
X121480833Y-97362838D01*
X121359431Y-97413000D01*
X111485491Y-97413000D01*
X111595921Y-97251380D01*
X111646930Y-96999490D01*
X111646930Y-95000510D01*
X111621432Y-94865000D01*
X115823995Y-94865000D01*
X115824000Y-94865001D01*
X116106484Y-94808810D01*
X116162675Y-94797633D01*
X116449790Y-94605790D01*
X117290443Y-93765136D01*
X117462110Y-93882431D01*
X117714000Y-93933440D01*
X119014000Y-93933440D01*
X119249317Y-93889162D01*
X119465441Y-93750090D01*
X119610431Y-93537890D01*
X119661440Y-93286000D01*
X119661440Y-91968172D01*
X123824538Y-91968172D01*
X124229709Y-92948761D01*
X124979293Y-93699655D01*
X125959173Y-94106536D01*
X127020172Y-94107462D01*
X128000761Y-93702291D01*
X128751655Y-92952707D01*
X129158536Y-91972827D01*
X129159462Y-90911828D01*
X128754291Y-89931239D01*
X128004707Y-89180345D01*
X127024827Y-88773464D01*
X125963828Y-88772538D01*
X124983239Y-89177709D01*
X124232345Y-89927293D01*
X123825464Y-90907173D01*
X123824538Y-91968172D01*
X119661440Y-91968172D01*
X119661440Y-91786000D01*
X119617162Y-91550683D01*
X119478090Y-91334559D01*
X119265890Y-91189569D01*
X119232510Y-91182809D01*
X119373699Y-91124327D01*
X119552327Y-90945698D01*
X119649000Y-90712309D01*
X119649000Y-90121750D01*
X119490250Y-89963000D01*
X118491000Y-89963000D01*
X118491000Y-89983000D01*
X118237000Y-89983000D01*
X118237000Y-89963000D01*
X117237750Y-89963000D01*
X117079000Y-90121750D01*
X117079000Y-90712309D01*
X117113282Y-90795073D01*
X117026799Y-90759162D01*
X116654833Y-90758838D01*
X116311057Y-90900883D01*
X116047808Y-91163673D01*
X115905162Y-91507201D01*
X115904838Y-91879167D01*
X115955000Y-92000569D01*
X115955000Y-92597421D01*
X115457420Y-93095000D01*
X110340580Y-93095000D01*
X110625787Y-92809792D01*
X110625790Y-92809790D01*
X110655691Y-92765040D01*
X111117600Y-92765040D01*
X111352917Y-92720762D01*
X111569041Y-92581690D01*
X111714031Y-92369490D01*
X111765040Y-92117600D01*
X111765040Y-89882400D01*
X112234960Y-89882400D01*
X112234960Y-92117600D01*
X112279238Y-92352917D01*
X112418310Y-92569041D01*
X112630510Y-92714031D01*
X112882400Y-92765040D01*
X115117600Y-92765040D01*
X115352917Y-92720762D01*
X115569041Y-92581690D01*
X115714031Y-92369490D01*
X115765040Y-92117600D01*
X115765040Y-89882400D01*
X115720762Y-89647083D01*
X115581690Y-89430959D01*
X115369490Y-89285969D01*
X115117600Y-89234960D01*
X112882400Y-89234960D01*
X112647083Y-89279238D01*
X112430959Y-89418310D01*
X112285969Y-89630510D01*
X112234960Y-89882400D01*
X111765040Y-89882400D01*
X111720762Y-89647083D01*
X111581690Y-89430959D01*
X111369490Y-89285969D01*
X111117600Y-89234960D01*
X108882400Y-89234960D01*
X108647083Y-89279238D01*
X108430959Y-89418310D01*
X108285969Y-89630510D01*
X108234960Y-89882400D01*
X108234960Y-91805000D01*
X107165038Y-91805000D01*
X107146162Y-91704683D01*
X107007090Y-91488559D01*
X106938994Y-91442031D01*
X107081327Y-91299698D01*
X107178000Y-91066309D01*
X107178000Y-90475750D01*
X107019250Y-90317000D01*
X106045000Y-90317000D01*
X106045000Y-90337000D01*
X105791000Y-90337000D01*
X105791000Y-90317000D01*
X104858250Y-90317000D01*
X104758250Y-90217000D01*
X103759000Y-90217000D01*
X103759000Y-90237000D01*
X103505000Y-90237000D01*
X103505000Y-90217000D01*
X102505750Y-90217000D01*
X102347000Y-90375750D01*
X102347000Y-90966309D01*
X102443673Y-91199698D01*
X102622301Y-91378327D01*
X102758287Y-91434654D01*
X102746683Y-91436838D01*
X102530559Y-91575910D01*
X102385569Y-91788110D01*
X102334560Y-92040000D01*
X102334560Y-92835861D01*
X100805420Y-94365000D01*
X82804005Y-94365000D01*
X82804000Y-94364999D01*
X82465325Y-94432367D01*
X82178210Y-94624210D01*
X82178208Y-94624213D01*
X80908210Y-95894210D01*
X80716367Y-96181325D01*
X80716367Y-96181326D01*
X80710000Y-96213334D01*
X80710000Y-91968172D01*
X80898538Y-91968172D01*
X81303709Y-92948761D01*
X82053293Y-93699655D01*
X83033173Y-94106536D01*
X84094172Y-94107462D01*
X85074761Y-93702291D01*
X85825655Y-92952707D01*
X86232536Y-91972827D01*
X86233462Y-90911828D01*
X86199817Y-90830400D01*
X97294960Y-90830400D01*
X97294960Y-93065600D01*
X97339238Y-93300917D01*
X97478310Y-93517041D01*
X97690510Y-93662031D01*
X97942400Y-93713040D01*
X100177600Y-93713040D01*
X100412917Y-93668762D01*
X100629041Y-93529690D01*
X100774031Y-93317490D01*
X100825040Y-93065600D01*
X100825040Y-90830400D01*
X100780762Y-90595083D01*
X100641690Y-90378959D01*
X100429490Y-90233969D01*
X100177600Y-90182960D01*
X97942400Y-90182960D01*
X97707083Y-90227238D01*
X97490959Y-90366310D01*
X97345969Y-90578510D01*
X97294960Y-90830400D01*
X86199817Y-90830400D01*
X85828291Y-89931239D01*
X85078707Y-89180345D01*
X84098827Y-88773464D01*
X83037828Y-88772538D01*
X82057239Y-89177709D01*
X81306345Y-89927293D01*
X80899464Y-90907173D01*
X80898538Y-91968172D01*
X80710000Y-91968172D01*
X80710000Y-88643730D01*
X80728295Y-88655954D01*
X81000000Y-88710000D01*
X102843619Y-88710000D01*
X102622301Y-88801673D01*
X102443673Y-88980302D01*
X102347000Y-89213691D01*
X102347000Y-89804250D01*
X102505750Y-89963000D01*
X103505000Y-89963000D01*
X103505000Y-89943000D01*
X103759000Y-89943000D01*
X103759000Y-89963000D01*
X104716750Y-89963000D01*
X104816750Y-90063000D01*
X105791000Y-90063000D01*
X105791000Y-88963750D01*
X106045000Y-88963750D01*
X106045000Y-90063000D01*
X107019250Y-90063000D01*
X107178000Y-89904250D01*
X107178000Y-89313691D01*
X107081327Y-89080302D01*
X106902699Y-88901673D01*
X106669310Y-88805000D01*
X106203750Y-88805000D01*
X106045000Y-88963750D01*
X105791000Y-88963750D01*
X105632250Y-88805000D01*
X105166690Y-88805000D01*
X104933301Y-88901673D01*
X104830387Y-89004588D01*
X104820327Y-88980302D01*
X104641699Y-88801673D01*
X104420381Y-88710000D01*
X117191975Y-88710000D01*
X117175673Y-88726302D01*
X117079000Y-88959691D01*
X117079000Y-89550250D01*
X117237750Y-89709000D01*
X118237000Y-89709000D01*
X118237000Y-89689000D01*
X118491000Y-89689000D01*
X118491000Y-89709000D01*
X119490250Y-89709000D01*
X119649000Y-89550250D01*
X119649000Y-88959691D01*
X119552327Y-88726302D01*
X119536025Y-88710000D01*
X129000000Y-88710000D01*
X129271705Y-88655954D01*
X129290000Y-88643730D01*
X129290000Y-124290000D01*
G36*
X108031162Y-93793201D02*
X108030838Y-94165167D01*
X108172883Y-94508943D01*
X108407355Y-94743825D01*
X108404079Y-94748620D01*
X108353070Y-95000510D01*
X108353070Y-96999490D01*
X108397348Y-97234807D01*
X108512012Y-97413000D01*
X108204005Y-97413000D01*
X108204000Y-97412999D01*
X107865325Y-97480367D01*
X107578210Y-97672210D01*
X107578208Y-97672213D01*
X106308210Y-98942210D01*
X106116367Y-99229325D01*
X106111626Y-99253162D01*
X106048999Y-99568000D01*
X106049000Y-99568005D01*
X106049000Y-102757421D01*
X105441420Y-103365000D01*
X105247038Y-103365000D01*
X105228162Y-103264683D01*
X105089090Y-103048559D01*
X105020994Y-103002031D01*
X105163327Y-102859698D01*
X105260000Y-102626309D01*
X105260000Y-102035750D01*
X105101250Y-101877000D01*
X104127000Y-101877000D01*
X104127000Y-101897000D01*
X103873000Y-101897000D01*
X103873000Y-101877000D01*
X102898750Y-101877000D01*
X102740000Y-102035750D01*
X102740000Y-102626309D01*
X102836673Y-102859698D01*
X102977910Y-103000936D01*
X102923559Y-103035910D01*
X102778569Y-103248110D01*
X102727560Y-103500000D01*
X102727560Y-105000000D01*
X102771838Y-105235317D01*
X102910910Y-105451441D01*
X103115000Y-105590890D01*
X103115000Y-109247421D01*
X102747440Y-109614981D01*
X102747440Y-108350000D01*
X102703162Y-108114683D01*
X102564090Y-107898559D01*
X102351890Y-107753569D01*
X102235000Y-107729898D01*
X102235000Y-107446005D01*
X102235001Y-107446000D01*
X102167633Y-107107326D01*
X102167633Y-107107325D01*
X101975790Y-106820210D01*
X101975787Y-106820208D01*
X101790000Y-106634421D01*
X101790000Y-105743620D01*
X101801431Y-105726890D01*
X101852440Y-105475000D01*
X101852440Y-103925000D01*
X101808162Y-103689683D01*
X101790000Y-103661458D01*
X101790000Y-102407580D01*
X102740000Y-101457579D01*
X102740000Y-101464250D01*
X102898750Y-101623000D01*
X103873000Y-101623000D01*
X103873000Y-100523750D01*
X104127000Y-100523750D01*
X104127000Y-101623000D01*
X105101250Y-101623000D01*
X105260000Y-101464250D01*
X105260000Y-100873691D01*
X105163327Y-100640302D01*
X104984699Y-100461673D01*
X104751310Y-100365000D01*
X104285750Y-100365000D01*
X104127000Y-100523750D01*
X103873000Y-100523750D01*
X103714250Y-100365000D01*
X103283183Y-100365000D01*
X103155117Y-100055057D01*
X102892327Y-99791808D01*
X102548799Y-99649162D01*
X102176833Y-99648838D01*
X101840000Y-99788014D01*
X101840000Y-99585750D01*
X101681250Y-99427000D01*
X101032000Y-99427000D01*
X101032000Y-100551250D01*
X101087585Y-100606835D01*
X100279210Y-101415210D01*
X100218159Y-101506580D01*
X99434020Y-100722440D01*
X99935000Y-100722440D01*
X100170317Y-100678162D01*
X100260980Y-100619822D01*
X100478690Y-100710000D01*
X100619250Y-100710000D01*
X100778000Y-100551250D01*
X100778000Y-99427000D01*
X100758000Y-99427000D01*
X100758000Y-99173000D01*
X100778000Y-99173000D01*
X100778000Y-98048750D01*
X101032000Y-98048750D01*
X101032000Y-99173000D01*
X101681250Y-99173000D01*
X101840000Y-99014250D01*
X101840000Y-98398691D01*
X101743327Y-98165302D01*
X101564699Y-97986673D01*
X101331310Y-97890000D01*
X101190750Y-97890000D01*
X101032000Y-98048750D01*
X100778000Y-98048750D01*
X100619250Y-97890000D01*
X100478690Y-97890000D01*
X100261878Y-97979806D01*
X100186890Y-97928569D01*
X99935000Y-97877560D01*
X99335000Y-97877560D01*
X99099683Y-97921838D01*
X99000472Y-97985678D01*
X98916890Y-97928569D01*
X98665000Y-97877560D01*
X98065000Y-97877560D01*
X97829683Y-97921838D01*
X97730472Y-97985678D01*
X97646890Y-97928569D01*
X97395000Y-97877560D01*
X96795000Y-97877560D01*
X96559683Y-97921838D01*
X96343559Y-98060910D01*
X96198569Y-98273110D01*
X96147560Y-98525000D01*
X96147560Y-99953000D01*
X96124579Y-99953000D01*
X95389729Y-99218149D01*
X95551441Y-99114090D01*
X95696431Y-98901890D01*
X95747440Y-98650000D01*
X95747440Y-97350000D01*
X95703162Y-97114683D01*
X95564090Y-96898559D01*
X95351890Y-96753569D01*
X95100000Y-96702560D01*
X93600000Y-96702560D01*
X93364683Y-96746838D01*
X93148559Y-96885910D01*
X93003569Y-97098110D01*
X93000919Y-97111197D01*
X92864090Y-96898559D01*
X92651890Y-96753569D01*
X92400000Y-96702560D01*
X90900000Y-96702560D01*
X90664683Y-96746838D01*
X90448559Y-96885910D01*
X90303569Y-97098110D01*
X90252560Y-97350000D01*
X90252560Y-98650000D01*
X90296838Y-98885317D01*
X90435910Y-99101441D01*
X90648110Y-99246431D01*
X90900000Y-99297440D01*
X92400000Y-99297440D01*
X92635317Y-99253162D01*
X92851441Y-99114090D01*
X92996431Y-98901890D01*
X92999081Y-98888803D01*
X93135910Y-99101441D01*
X93348110Y-99246431D01*
X93465000Y-99270102D01*
X93465000Y-99429995D01*
X93464999Y-99430000D01*
X93521190Y-99712484D01*
X93532367Y-99768675D01*
X93659010Y-99958211D01*
X93724210Y-100055790D01*
X95132208Y-101463787D01*
X95132210Y-101463790D01*
X95419325Y-101655633D01*
X95475516Y-101666810D01*
X95758000Y-101723001D01*
X95758005Y-101723000D01*
X97360671Y-101723000D01*
X97251808Y-101831673D01*
X97109162Y-102175201D01*
X97108838Y-102547167D01*
X97250883Y-102890943D01*
X97480000Y-103120460D01*
X97480000Y-103294773D01*
X97395000Y-103277560D01*
X96795000Y-103277560D01*
X96559683Y-103321838D01*
X96343559Y-103460910D01*
X96198569Y-103673110D01*
X96157321Y-103876797D01*
X96129326Y-103882366D01*
X96065520Y-103925000D01*
X95842210Y-104074210D01*
X95842208Y-104074213D01*
X94702259Y-105214161D01*
X94654675Y-105182367D01*
X94598484Y-105171190D01*
X94316000Y-105114999D01*
X94315995Y-105115000D01*
X93944399Y-105115000D01*
X93811020Y-104792200D01*
X93210959Y-104191091D01*
X93052374Y-104125241D01*
X93207800Y-104061020D01*
X93808909Y-103460959D01*
X94134628Y-102676541D01*
X94135370Y-101827185D01*
X93811020Y-101042200D01*
X93210959Y-100441091D01*
X92426541Y-100115372D01*
X91577185Y-100114630D01*
X90792200Y-100438980D01*
X90191091Y-101039041D01*
X90039000Y-101405317D01*
X90039000Y-99060000D01*
X89971633Y-98721325D01*
X89779790Y-98434210D01*
X89779787Y-98434208D01*
X88719790Y-97374210D01*
X88703255Y-97363162D01*
X88432675Y-97182367D01*
X88376484Y-97171190D01*
X88094000Y-97114999D01*
X88093995Y-97115000D01*
X86745740Y-97115000D01*
X86629029Y-96940330D01*
X86142848Y-96615474D01*
X85569359Y-96501400D01*
X85510641Y-96501400D01*
X84937152Y-96615474D01*
X84465644Y-96930526D01*
X84401927Y-96776701D01*
X84223298Y-96598073D01*
X83989909Y-96501400D01*
X83285750Y-96501400D01*
X83127000Y-96660150D01*
X83127000Y-97873000D01*
X83147000Y-97873000D01*
X83147000Y-98127000D01*
X83127000Y-98127000D01*
X83127000Y-98147000D01*
X82873000Y-98147000D01*
X82873000Y-98127000D01*
X82853000Y-98127000D01*
X82853000Y-97873000D01*
X82873000Y-97873000D01*
X82873000Y-96660150D01*
X82759215Y-96546365D01*
X82981885Y-96323694D01*
X104555226Y-96323694D01*
X104803538Y-96924655D01*
X105262927Y-97384846D01*
X105863453Y-97634206D01*
X106513694Y-97634774D01*
X107114655Y-97386462D01*
X107574846Y-96927073D01*
X107824206Y-96326547D01*
X107824774Y-95676306D01*
X107576462Y-95075345D01*
X107117073Y-94615154D01*
X106516547Y-94365794D01*
X105866306Y-94365226D01*
X105265345Y-94613538D01*
X104805154Y-95072927D01*
X104555794Y-95673453D01*
X104555226Y-96323694D01*
X82981885Y-96323694D01*
X83170579Y-96135000D01*
X101171995Y-96135000D01*
X101172000Y-96135001D01*
X101454484Y-96078810D01*
X101510675Y-96067633D01*
X101797790Y-95875790D01*
X103486139Y-94187440D01*
X104282000Y-94187440D01*
X104517317Y-94143162D01*
X104733441Y-94004090D01*
X104819938Y-93877498D01*
X104828910Y-93891441D01*
X105041110Y-94036431D01*
X105293000Y-94087440D01*
X106543000Y-94087440D01*
X106778317Y-94043162D01*
X106994441Y-93904090D01*
X107139431Y-93691890D01*
X107163102Y-93575000D01*
X108121767Y-93575000D01*
X108031162Y-93793201D01*
X108031162Y-93793201D01*
G37*
X108031162Y-93793201D02*
X108030838Y-94165167D01*
X108172883Y-94508943D01*
X108407355Y-94743825D01*
X108404079Y-94748620D01*
X108353070Y-95000510D01*
X108353070Y-96999490D01*
X108397348Y-97234807D01*
X108512012Y-97413000D01*
X108204005Y-97413000D01*
X108204000Y-97412999D01*
X107865325Y-97480367D01*
X107578210Y-97672210D01*
X107578208Y-97672213D01*
X106308210Y-98942210D01*
X106116367Y-99229325D01*
X106111626Y-99253162D01*
X106048999Y-99568000D01*
X106049000Y-99568005D01*
X106049000Y-102757421D01*
X105441420Y-103365000D01*
X105247038Y-103365000D01*
X105228162Y-103264683D01*
X105089090Y-103048559D01*
X105020994Y-103002031D01*
X105163327Y-102859698D01*
X105260000Y-102626309D01*
X105260000Y-102035750D01*
X105101250Y-101877000D01*
X104127000Y-101877000D01*
X104127000Y-101897000D01*
X103873000Y-101897000D01*
X103873000Y-101877000D01*
X102898750Y-101877000D01*
X102740000Y-102035750D01*
X102740000Y-102626309D01*
X102836673Y-102859698D01*
X102977910Y-103000936D01*
X102923559Y-103035910D01*
X102778569Y-103248110D01*
X102727560Y-103500000D01*
X102727560Y-105000000D01*
X102771838Y-105235317D01*
X102910910Y-105451441D01*
X103115000Y-105590890D01*
X103115000Y-109247421D01*
X102747440Y-109614981D01*
X102747440Y-108350000D01*
X102703162Y-108114683D01*
X102564090Y-107898559D01*
X102351890Y-107753569D01*
X102235000Y-107729898D01*
X102235000Y-107446005D01*
X102235001Y-107446000D01*
X102167633Y-107107326D01*
X102167633Y-107107325D01*
X101975790Y-106820210D01*
X101975787Y-106820208D01*
X101790000Y-106634421D01*
X101790000Y-105743620D01*
X101801431Y-105726890D01*
X101852440Y-105475000D01*
X101852440Y-103925000D01*
X101808162Y-103689683D01*
X101790000Y-103661458D01*
X101790000Y-102407580D01*
X102740000Y-101457579D01*
X102740000Y-101464250D01*
X102898750Y-101623000D01*
X103873000Y-101623000D01*
X103873000Y-100523750D01*
X104127000Y-100523750D01*
X104127000Y-101623000D01*
X105101250Y-101623000D01*
X105260000Y-101464250D01*
X105260000Y-100873691D01*
X105163327Y-100640302D01*
X104984699Y-100461673D01*
X104751310Y-100365000D01*
X104285750Y-100365000D01*
X104127000Y-100523750D01*
X103873000Y-100523750D01*
X103714250Y-100365000D01*
X103283183Y-100365000D01*
X103155117Y-100055057D01*
X102892327Y-99791808D01*
X102548799Y-99649162D01*
X102176833Y-99648838D01*
X101840000Y-99788014D01*
X101840000Y-99585750D01*
X101681250Y-99427000D01*
X101032000Y-99427000D01*
X101032000Y-100551250D01*
X101087585Y-100606835D01*
X100279210Y-101415210D01*
X100218159Y-101506580D01*
X99434020Y-100722440D01*
X99935000Y-100722440D01*
X100170317Y-100678162D01*
X100260980Y-100619822D01*
X100478690Y-100710000D01*
X100619250Y-100710000D01*
X100778000Y-100551250D01*
X100778000Y-99427000D01*
X100758000Y-99427000D01*
X100758000Y-99173000D01*
X100778000Y-99173000D01*
X100778000Y-98048750D01*
X101032000Y-98048750D01*
X101032000Y-99173000D01*
X101681250Y-99173000D01*
X101840000Y-99014250D01*
X101840000Y-98398691D01*
X101743327Y-98165302D01*
X101564699Y-97986673D01*
X101331310Y-97890000D01*
X101190750Y-97890000D01*
X101032000Y-98048750D01*
X100778000Y-98048750D01*
X100619250Y-97890000D01*
X100478690Y-97890000D01*
X100261878Y-97979806D01*
X100186890Y-97928569D01*
X99935000Y-97877560D01*
X99335000Y-97877560D01*
X99099683Y-97921838D01*
X99000472Y-97985678D01*
X98916890Y-97928569D01*
X98665000Y-97877560D01*
X98065000Y-97877560D01*
X97829683Y-97921838D01*
X97730472Y-97985678D01*
X97646890Y-97928569D01*
X97395000Y-97877560D01*
X96795000Y-97877560D01*
X96559683Y-97921838D01*
X96343559Y-98060910D01*
X96198569Y-98273110D01*
X96147560Y-98525000D01*
X96147560Y-99953000D01*
X96124579Y-99953000D01*
X95389729Y-99218149D01*
X95551441Y-99114090D01*
X95696431Y-98901890D01*
X95747440Y-98650000D01*
X95747440Y-97350000D01*
X95703162Y-97114683D01*
X95564090Y-96898559D01*
X95351890Y-96753569D01*
X95100000Y-96702560D01*
X93600000Y-96702560D01*
X93364683Y-96746838D01*
X93148559Y-96885910D01*
X93003569Y-97098110D01*
X93000919Y-97111197D01*
X92864090Y-96898559D01*
X92651890Y-96753569D01*
X92400000Y-96702560D01*
X90900000Y-96702560D01*
X90664683Y-96746838D01*
X90448559Y-96885910D01*
X90303569Y-97098110D01*
X90252560Y-97350000D01*
X90252560Y-98650000D01*
X90296838Y-98885317D01*
X90435910Y-99101441D01*
X90648110Y-99246431D01*
X90900000Y-99297440D01*
X92400000Y-99297440D01*
X92635317Y-99253162D01*
X92851441Y-99114090D01*
X92996431Y-98901890D01*
X92999081Y-98888803D01*
X93135910Y-99101441D01*
X93348110Y-99246431D01*
X93465000Y-99270102D01*
X93465000Y-99429995D01*
X93464999Y-99430000D01*
X93521190Y-99712484D01*
X93532367Y-99768675D01*
X93659010Y-99958211D01*
X93724210Y-100055790D01*
X95132208Y-101463787D01*
X95132210Y-101463790D01*
X95419325Y-101655633D01*
X95475516Y-101666810D01*
X95758000Y-101723001D01*
X95758005Y-101723000D01*
X97360671Y-101723000D01*
X97251808Y-101831673D01*
X97109162Y-102175201D01*
X97108838Y-102547167D01*
X97250883Y-102890943D01*
X97480000Y-103120460D01*
X97480000Y-103294773D01*
X97395000Y-103277560D01*
X96795000Y-103277560D01*
X96559683Y-103321838D01*
X96343559Y-103460910D01*
X96198569Y-103673110D01*
X96157321Y-103876797D01*
X96129326Y-103882366D01*
X96065520Y-103925000D01*
X95842210Y-104074210D01*
X95842208Y-104074213D01*
X94702259Y-105214161D01*
X94654675Y-105182367D01*
X94598484Y-105171190D01*
X94316000Y-105114999D01*
X94315995Y-105115000D01*
X93944399Y-105115000D01*
X93811020Y-104792200D01*
X93210959Y-104191091D01*
X93052374Y-104125241D01*
X93207800Y-104061020D01*
X93808909Y-103460959D01*
X94134628Y-102676541D01*
X94135370Y-101827185D01*
X93811020Y-101042200D01*
X93210959Y-100441091D01*
X92426541Y-100115372D01*
X91577185Y-100114630D01*
X90792200Y-100438980D01*
X90191091Y-101039041D01*
X90039000Y-101405317D01*
X90039000Y-99060000D01*
X89971633Y-98721325D01*
X89779790Y-98434210D01*
X89779787Y-98434208D01*
X88719790Y-97374210D01*
X88703255Y-97363162D01*
X88432675Y-97182367D01*
X88376484Y-97171190D01*
X88094000Y-97114999D01*
X88093995Y-97115000D01*
X86745740Y-97115000D01*
X86629029Y-96940330D01*
X86142848Y-96615474D01*
X85569359Y-96501400D01*
X85510641Y-96501400D01*
X84937152Y-96615474D01*
X84465644Y-96930526D01*
X84401927Y-96776701D01*
X84223298Y-96598073D01*
X83989909Y-96501400D01*
X83285750Y-96501400D01*
X83127000Y-96660150D01*
X83127000Y-97873000D01*
X83147000Y-97873000D01*
X83147000Y-98127000D01*
X83127000Y-98127000D01*
X83127000Y-98147000D01*
X82873000Y-98147000D01*
X82873000Y-98127000D01*
X82853000Y-98127000D01*
X82853000Y-97873000D01*
X82873000Y-97873000D01*
X82873000Y-96660150D01*
X82759215Y-96546365D01*
X82981885Y-96323694D01*
X104555226Y-96323694D01*
X104803538Y-96924655D01*
X105262927Y-97384846D01*
X105863453Y-97634206D01*
X106513694Y-97634774D01*
X107114655Y-97386462D01*
X107574846Y-96927073D01*
X107824206Y-96326547D01*
X107824774Y-95676306D01*
X107576462Y-95075345D01*
X107117073Y-94615154D01*
X106516547Y-94365794D01*
X105866306Y-94365226D01*
X105265345Y-94613538D01*
X104805154Y-95072927D01*
X104555794Y-95673453D01*
X104555226Y-96323694D01*
X82981885Y-96323694D01*
X83170579Y-96135000D01*
X101171995Y-96135000D01*
X101172000Y-96135001D01*
X101454484Y-96078810D01*
X101510675Y-96067633D01*
X101797790Y-95875790D01*
X103486139Y-94187440D01*
X104282000Y-94187440D01*
X104517317Y-94143162D01*
X104733441Y-94004090D01*
X104819938Y-93877498D01*
X104828910Y-93891441D01*
X105041110Y-94036431D01*
X105293000Y-94087440D01*
X106543000Y-94087440D01*
X106778317Y-94043162D01*
X106994441Y-93904090D01*
X107139431Y-93691890D01*
X107163102Y-93575000D01*
X108121767Y-93575000D01*
X108031162Y-93793201D01*
M02*
