G04 #@! TF.FileFunction,Legend,Top*
%FSLAX46Y46*%
G04 Gerber Fmt 4.6, Leading zero omitted, Abs format (unit mm)*
G04 Created by KiCad (PCBNEW 4.0.0-2.201511301920+6191~38~ubuntu14.04.1-stable) date Fri 11 Dec 2015 10:08:10 PM CET*
%MOMM*%
G01*
G04 APERTURE LIST*
%ADD10C,0.100000*%
%ADD11C,0.150000*%
G04 APERTURE END LIST*
D10*
D11*
X108476000Y-96000000D02*
X107714000Y-94984000D01*
X108476000Y-96000000D02*
X107714000Y-97016000D01*
X108476000Y-97016000D02*
X108476000Y-94984000D01*
X107714000Y-97016000D02*
X107714000Y-94984000D01*
X120150000Y-92500000D02*
X120150000Y-93500000D01*
X121850000Y-93500000D02*
X121850000Y-92500000D01*
X114296000Y-96012000D02*
X114546000Y-96012000D01*
X113796000Y-96012000D02*
X113546000Y-96012000D01*
X113796000Y-96012000D02*
X114296000Y-95662000D01*
X114296000Y-95662000D02*
X114296000Y-96362000D01*
X114296000Y-96362000D02*
X113796000Y-96012000D01*
X113796000Y-95662000D02*
X113796000Y-96362000D01*
X112746000Y-96812000D02*
X115146000Y-96812000D01*
X112746000Y-95212000D02*
X115146000Y-95212000D01*
X101748800Y-119000000D02*
X108251200Y-119000000D01*
X101748800Y-122500120D02*
X101748800Y-115499880D01*
X93001040Y-115499880D02*
X101748800Y-115499880D01*
X93001040Y-122500120D02*
X101748800Y-122500120D01*
X115749280Y-116500640D02*
X116998960Y-116500640D01*
X115500360Y-121499360D02*
X116998960Y-121499360D01*
X103498860Y-116500640D02*
X115749280Y-116500640D01*
X103750320Y-121499360D02*
X115500360Y-121499360D01*
X93001040Y-116500640D02*
X103498860Y-116500640D01*
X93001040Y-121499360D02*
X103750320Y-121499360D01*
X93001040Y-121499360D02*
X93001040Y-116500640D01*
X92000280Y-122500120D02*
X93001040Y-122500120D01*
X92000280Y-122500120D02*
X92000280Y-115499880D01*
X92000280Y-115499880D02*
X93001040Y-115499880D01*
X116998960Y-121499360D02*
X116998960Y-116500640D01*
X108251200Y-122500120D02*
X117999720Y-122500120D01*
X117999720Y-122500120D02*
X117999720Y-115499880D01*
X108251200Y-115499880D02*
X117999720Y-115499880D01*
X108251200Y-122500120D02*
X108251200Y-115499880D01*
X81730000Y-99270000D02*
X81730000Y-104350000D01*
X81450000Y-96450000D02*
X83000000Y-96450000D01*
X84270000Y-96730000D02*
X84270000Y-99270000D01*
X84270000Y-99270000D02*
X81730000Y-99270000D01*
X81730000Y-104350000D02*
X86810000Y-104350000D01*
X86810000Y-104350000D02*
X86810000Y-99270000D01*
X81450000Y-96450000D02*
X81450000Y-98000000D01*
X86810000Y-96730000D02*
X84270000Y-96730000D01*
X86810000Y-99270000D02*
X86810000Y-96730000D01*
X87540000Y-106920000D02*
X87540000Y-117080000D01*
X88810000Y-106920000D02*
X81190000Y-106920000D01*
X81190000Y-106920000D02*
X81190000Y-117080000D01*
X81190000Y-117080000D02*
X88810000Y-117080000D01*
X88810000Y-117080000D02*
X88810000Y-106920000D01*
X100610000Y-90398000D02*
X100610000Y-91948000D01*
X97510000Y-91948000D02*
X97510000Y-90398000D01*
X97510000Y-90398000D02*
X100610000Y-90398000D01*
X97790000Y-93218000D02*
X100330000Y-93218000D01*
X115550000Y-89450000D02*
X115550000Y-91000000D01*
X112450000Y-91000000D02*
X112450000Y-89450000D01*
X112450000Y-89450000D02*
X115550000Y-89450000D01*
X112730000Y-92270000D02*
X115270000Y-92270000D01*
X111550000Y-89450000D02*
X111550000Y-91000000D01*
X108450000Y-91000000D02*
X108450000Y-89450000D01*
X108450000Y-89450000D02*
X111550000Y-89450000D01*
X108730000Y-92270000D02*
X111270000Y-92270000D01*
X122460000Y-117080000D02*
X122460000Y-106920000D01*
X121190000Y-117080000D02*
X128810000Y-117080000D01*
X128810000Y-117080000D02*
X128810000Y-106920000D01*
X128810000Y-106920000D02*
X121190000Y-106920000D01*
X121190000Y-106920000D02*
X121190000Y-117080000D01*
X118125000Y-93600000D02*
X118125000Y-92400000D01*
X119875000Y-92400000D02*
X119875000Y-93600000D01*
X119200000Y-99900000D02*
X119200000Y-112400000D01*
X90200000Y-112400000D02*
X119200000Y-112400000D01*
X90200000Y-99900000D02*
X90200000Y-112400000D01*
X90200000Y-99900000D02*
X119200000Y-99900000D01*
X95556000Y-97604000D02*
X95302000Y-97604000D01*
X88698000Y-90492000D02*
X88444000Y-90492000D01*
X95302000Y-97604000D02*
X88444000Y-97604000D01*
X95556000Y-97604000D02*
X95556000Y-90492000D01*
X88698000Y-90492000D02*
X95556000Y-90492000D01*
X88444000Y-90492000D02*
X88444000Y-97604000D01*
X122425000Y-103075000D02*
X122570000Y-103075000D01*
X122425000Y-98925000D02*
X122570000Y-98925000D01*
X127575000Y-98925000D02*
X127430000Y-98925000D01*
X127575000Y-103075000D02*
X127430000Y-103075000D01*
X122425000Y-103075000D02*
X122425000Y-98925000D01*
X127575000Y-103075000D02*
X127575000Y-98925000D01*
X122570000Y-103075000D02*
X122570000Y-104475000D01*
X85598000Y-121666000D02*
G75*
G03X85598000Y-121666000I-2286000J0D01*
G01*
X85852000Y-91440000D02*
G75*
G03X85852000Y-91440000I-2286000J0D01*
G01*
X128778000Y-91440000D02*
G75*
G03X128778000Y-91440000I-2286000J0D01*
G01*
X128778000Y-121666000D02*
G75*
G03X128778000Y-121666000I-2286000J0D01*
G01*
X106967905Y-94515667D02*
X107444096Y-94515667D01*
X106872667Y-94801381D02*
X107206000Y-93801381D01*
X107539334Y-94801381D01*
X123166143Y-94400666D02*
X123213762Y-94448285D01*
X123261381Y-94591142D01*
X123261381Y-94686380D01*
X123213762Y-94829238D01*
X123118524Y-94924476D01*
X123023286Y-94972095D01*
X122832810Y-95019714D01*
X122689952Y-95019714D01*
X122499476Y-94972095D01*
X122404238Y-94924476D01*
X122309000Y-94829238D01*
X122261381Y-94686380D01*
X122261381Y-94591142D01*
X122309000Y-94448285D01*
X122356619Y-94400666D01*
X122356619Y-94019714D02*
X122309000Y-93972095D01*
X122261381Y-93876857D01*
X122261381Y-93638761D01*
X122309000Y-93543523D01*
X122356619Y-93495904D01*
X122451857Y-93448285D01*
X122547095Y-93448285D01*
X122689952Y-93495904D01*
X123261381Y-94067333D01*
X123261381Y-93448285D01*
X113307905Y-98242381D02*
X113307905Y-97242381D01*
X113546000Y-97242381D01*
X113688858Y-97290000D01*
X113784096Y-97385238D01*
X113831715Y-97480476D01*
X113879334Y-97670952D01*
X113879334Y-97813810D01*
X113831715Y-98004286D01*
X113784096Y-98099524D01*
X113688858Y-98194762D01*
X113546000Y-98242381D01*
X113307905Y-98242381D01*
X114831715Y-98242381D02*
X114260286Y-98242381D01*
X114546000Y-98242381D02*
X114546000Y-97242381D01*
X114450762Y-97385238D01*
X114355524Y-97480476D01*
X114260286Y-97528095D01*
X104568667Y-115371571D02*
X104235333Y-115371571D01*
X104235333Y-115895381D02*
X104235333Y-114895381D01*
X104711524Y-114895381D01*
X105616286Y-115895381D02*
X105044857Y-115895381D01*
X105330571Y-115895381D02*
X105330571Y-114895381D01*
X105235333Y-115038238D01*
X105140095Y-115133476D01*
X105044857Y-115181095D01*
X81049905Y-95575381D02*
X81049905Y-94575381D01*
X81430858Y-94575381D01*
X81526096Y-94623000D01*
X81573715Y-94670619D01*
X81621334Y-94765857D01*
X81621334Y-94908714D01*
X81573715Y-95003952D01*
X81526096Y-95051571D01*
X81430858Y-95099190D01*
X81049905Y-95099190D01*
X82573715Y-95575381D02*
X82002286Y-95575381D01*
X82288000Y-95575381D02*
X82288000Y-94575381D01*
X82192762Y-94718238D01*
X82097524Y-94813476D01*
X82002286Y-94861095D01*
X82875381Y-112752095D02*
X81875381Y-112752095D01*
X81875381Y-112371142D01*
X81923000Y-112275904D01*
X81970619Y-112228285D01*
X82065857Y-112180666D01*
X82208714Y-112180666D01*
X82303952Y-112228285D01*
X82351571Y-112275904D01*
X82399190Y-112371142D01*
X82399190Y-112752095D01*
X81970619Y-111799714D02*
X81923000Y-111752095D01*
X81875381Y-111656857D01*
X81875381Y-111418761D01*
X81923000Y-111323523D01*
X81970619Y-111275904D01*
X82065857Y-111228285D01*
X82161095Y-111228285D01*
X82303952Y-111275904D01*
X82875381Y-111847333D01*
X82875381Y-111228285D01*
X98321905Y-95067381D02*
X98321905Y-94067381D01*
X98702858Y-94067381D01*
X98798096Y-94115000D01*
X98845715Y-94162619D01*
X98893334Y-94257857D01*
X98893334Y-94400714D01*
X98845715Y-94495952D01*
X98798096Y-94543571D01*
X98702858Y-94591190D01*
X98321905Y-94591190D01*
X99226667Y-94067381D02*
X99845715Y-94067381D01*
X99512381Y-94448333D01*
X99655239Y-94448333D01*
X99750477Y-94495952D01*
X99798096Y-94543571D01*
X99845715Y-94638810D01*
X99845715Y-94876905D01*
X99798096Y-94972143D01*
X99750477Y-95019762D01*
X99655239Y-95067381D01*
X99369524Y-95067381D01*
X99274286Y-95019762D01*
X99226667Y-94972143D01*
X113307905Y-93670381D02*
X113307905Y-92670381D01*
X113688858Y-92670381D01*
X113784096Y-92718000D01*
X113831715Y-92765619D01*
X113879334Y-92860857D01*
X113879334Y-93003714D01*
X113831715Y-93098952D01*
X113784096Y-93146571D01*
X113688858Y-93194190D01*
X113307905Y-93194190D01*
X114736477Y-93003714D02*
X114736477Y-93670381D01*
X114498381Y-92622762D02*
X114260286Y-93337048D01*
X114879334Y-93337048D01*
X109243905Y-93670381D02*
X109243905Y-92670381D01*
X109624858Y-92670381D01*
X109720096Y-92718000D01*
X109767715Y-92765619D01*
X109815334Y-92860857D01*
X109815334Y-93003714D01*
X109767715Y-93098952D01*
X109720096Y-93146571D01*
X109624858Y-93194190D01*
X109243905Y-93194190D01*
X110720096Y-92670381D02*
X110243905Y-92670381D01*
X110196286Y-93146571D01*
X110243905Y-93098952D01*
X110339143Y-93051333D01*
X110577239Y-93051333D01*
X110672477Y-93098952D01*
X110720096Y-93146571D01*
X110767715Y-93241810D01*
X110767715Y-93479905D01*
X110720096Y-93575143D01*
X110672477Y-93622762D01*
X110577239Y-93670381D01*
X110339143Y-93670381D01*
X110243905Y-93622762D01*
X110196286Y-93575143D01*
X128214381Y-112752095D02*
X127214381Y-112752095D01*
X127214381Y-112371142D01*
X127262000Y-112275904D01*
X127309619Y-112228285D01*
X127404857Y-112180666D01*
X127547714Y-112180666D01*
X127642952Y-112228285D01*
X127690571Y-112275904D01*
X127738190Y-112371142D01*
X127738190Y-112752095D01*
X127214381Y-111323523D02*
X127214381Y-111514000D01*
X127262000Y-111609238D01*
X127309619Y-111656857D01*
X127452476Y-111752095D01*
X127642952Y-111799714D01*
X128023905Y-111799714D01*
X128119143Y-111752095D01*
X128166762Y-111704476D01*
X128214381Y-111609238D01*
X128214381Y-111418761D01*
X128166762Y-111323523D01*
X128119143Y-111275904D01*
X128023905Y-111228285D01*
X127785810Y-111228285D01*
X127690571Y-111275904D01*
X127642952Y-111323523D01*
X127595333Y-111418761D01*
X127595333Y-111609238D01*
X127642952Y-111704476D01*
X127690571Y-111752095D01*
X127785810Y-111799714D01*
X119213334Y-96718381D02*
X118880000Y-96242190D01*
X118641905Y-96718381D02*
X118641905Y-95718381D01*
X119022858Y-95718381D01*
X119118096Y-95766000D01*
X119165715Y-95813619D01*
X119213334Y-95908857D01*
X119213334Y-96051714D01*
X119165715Y-96146952D01*
X119118096Y-96194571D01*
X119022858Y-96242190D01*
X118641905Y-96242190D01*
X119594286Y-95813619D02*
X119641905Y-95766000D01*
X119737143Y-95718381D01*
X119975239Y-95718381D01*
X120070477Y-95766000D01*
X120118096Y-95813619D01*
X120165715Y-95908857D01*
X120165715Y-96004095D01*
X120118096Y-96146952D01*
X119546667Y-96718381D01*
X120165715Y-96718381D01*
X95059572Y-111577381D02*
X94726238Y-111101190D01*
X94488143Y-111577381D02*
X94488143Y-110577381D01*
X94869096Y-110577381D01*
X94964334Y-110625000D01*
X95011953Y-110672619D01*
X95059572Y-110767857D01*
X95059572Y-110910714D01*
X95011953Y-111005952D01*
X94964334Y-111053571D01*
X94869096Y-111101190D01*
X94488143Y-111101190D01*
X95964334Y-111577381D02*
X95488143Y-111577381D01*
X95488143Y-110577381D01*
X96821477Y-111577381D02*
X96250048Y-111577381D01*
X96535762Y-111577381D02*
X96535762Y-110577381D01*
X96440524Y-110720238D01*
X96345286Y-110815476D01*
X96250048Y-110863095D01*
X91479762Y-92908381D02*
X91146428Y-92432190D01*
X90908333Y-92908381D02*
X90908333Y-91908381D01*
X91289286Y-91908381D01*
X91384524Y-91956000D01*
X91432143Y-92003619D01*
X91479762Y-92098857D01*
X91479762Y-92241714D01*
X91432143Y-92336952D01*
X91384524Y-92384571D01*
X91289286Y-92432190D01*
X90908333Y-92432190D01*
X91765476Y-91908381D02*
X92098809Y-92908381D01*
X92432143Y-91908381D01*
X93289286Y-92908381D02*
X92717857Y-92908381D01*
X93003571Y-92908381D02*
X93003571Y-91908381D01*
X92908333Y-92051238D01*
X92813095Y-92146476D01*
X92717857Y-92194095D01*
X120952381Y-101761905D02*
X121761905Y-101761905D01*
X121857143Y-101714286D01*
X121904762Y-101666667D01*
X121952381Y-101571429D01*
X121952381Y-101380952D01*
X121904762Y-101285714D01*
X121857143Y-101238095D01*
X121761905Y-101190476D01*
X120952381Y-101190476D01*
X121047619Y-100761905D02*
X121000000Y-100714286D01*
X120952381Y-100619048D01*
X120952381Y-100380952D01*
X121000000Y-100285714D01*
X121047619Y-100238095D01*
X121142857Y-100190476D01*
X121238095Y-100190476D01*
X121380952Y-100238095D01*
X121952381Y-100809524D01*
X121952381Y-100190476D01*
M02*
