G04 #@! TF.FileFunction,Soldermask,Top*
%FSLAX46Y46*%
G04 Gerber Fmt 4.6, Leading zero omitted, Abs format (unit mm)*
G04 Created by KiCad (PCBNEW 4.0.0-2.201511301920+6191~38~ubuntu14.04.1-stable) date Fri 11 Dec 2015 10:08:10 PM CET*
%MOMM*%
G01*
G04 APERTURE LIST*
%ADD10C,0.100000*%
%ADD11C,2.398980*%
%ADD12R,2.398980X2.398980*%
%ADD13R,1.650000X1.900000*%
%ADD14R,0.990000X0.850000*%
%ADD15C,2.749500*%
%ADD16R,2.127200X2.127200*%
%ADD17O,2.127200X2.127200*%
%ADD18R,2.940000X2.940000*%
%ADD19C,2.940000*%
%ADD20R,2.635200X2.635200*%
%ADD21R,1.700000X1.900000*%
%ADD22C,3.400000*%
%ADD23R,1.590000X3.700000*%
%ADD24R,1.000000X1.950000*%
%ADD25C,4.464000*%
%ADD26C,0.254000*%
G04 APERTURE END LIST*
D10*
D11*
X106190000Y-96000000D03*
D12*
X110000000Y-96000000D03*
D13*
X121000000Y-94250000D03*
X121000000Y-91750000D03*
D14*
X112991000Y-96012000D03*
X115101000Y-96012000D03*
D15*
X99998740Y-119000000D03*
X95000020Y-119000000D03*
X110001260Y-119000000D03*
X114999980Y-119000000D03*
D16*
X83000000Y-98000000D03*
D17*
X85540000Y-98000000D03*
X83000000Y-100540000D03*
X85540000Y-100540000D03*
X83000000Y-103080000D03*
X85540000Y-103080000D03*
D18*
X85000000Y-114540000D03*
D19*
X85000000Y-109460000D03*
D20*
X99060000Y-91948000D03*
X114000000Y-91000000D03*
X110000000Y-91000000D03*
D18*
X125000000Y-109460000D03*
D19*
X125000000Y-114540000D03*
D21*
X119000000Y-91650000D03*
X119000000Y-94350000D03*
D22*
X92000000Y-102250000D03*
X92000000Y-106000000D03*
X92000000Y-109750000D03*
X112000000Y-102250000D03*
X112000000Y-109750000D03*
X117000000Y-102250000D03*
X117000000Y-109750000D03*
D23*
X94540000Y-91000000D03*
X92000000Y-97096000D03*
X89460000Y-91000000D03*
D24*
X123095000Y-103700000D03*
X124365000Y-103700000D03*
X125635000Y-103700000D03*
X126905000Y-103700000D03*
X126905000Y-98300000D03*
X125635000Y-98300000D03*
X124365000Y-98300000D03*
X123095000Y-98300000D03*
D25*
X83312000Y-121666000D03*
X83566000Y-91440000D03*
X126492000Y-91440000D03*
X126492000Y-121666000D03*
D26*
G36*
X86487000Y-115189000D02*
X86497006Y-115238410D01*
X86524197Y-115278803D01*
X89281000Y-118035606D01*
X89281000Y-121285000D01*
X89291006Y-121334410D01*
X89318197Y-121374803D01*
X90715197Y-122771803D01*
X90757211Y-122799666D01*
X90805000Y-122809000D01*
X117094000Y-122809000D01*
X117143410Y-122798994D01*
X117183803Y-122771803D01*
X118834803Y-121120803D01*
X118862666Y-121078789D01*
X118872000Y-121031000D01*
X118872000Y-117400606D01*
X122226606Y-114046000D01*
X123444000Y-114046000D01*
X123444000Y-115062000D01*
X122682000Y-115062000D01*
X122632590Y-115072006D01*
X122592197Y-115099197D01*
X119925197Y-117766197D01*
X119897334Y-117808211D01*
X119888000Y-117856000D01*
X119888000Y-121740394D01*
X117676394Y-123952000D01*
X90095606Y-123952000D01*
X88138000Y-121994394D01*
X88138000Y-118491000D01*
X88127994Y-118441590D01*
X88100803Y-118401197D01*
X85687803Y-115988197D01*
X85645789Y-115960334D01*
X85598000Y-115951000D01*
X83439000Y-115951000D01*
X83439000Y-112903000D01*
X86487000Y-112903000D01*
X86487000Y-115189000D01*
X86487000Y-115189000D01*
G37*
X86487000Y-115189000D02*
X86497006Y-115238410D01*
X86524197Y-115278803D01*
X89281000Y-118035606D01*
X89281000Y-121285000D01*
X89291006Y-121334410D01*
X89318197Y-121374803D01*
X90715197Y-122771803D01*
X90757211Y-122799666D01*
X90805000Y-122809000D01*
X117094000Y-122809000D01*
X117143410Y-122798994D01*
X117183803Y-122771803D01*
X118834803Y-121120803D01*
X118862666Y-121078789D01*
X118872000Y-121031000D01*
X118872000Y-117400606D01*
X122226606Y-114046000D01*
X123444000Y-114046000D01*
X123444000Y-115062000D01*
X122682000Y-115062000D01*
X122632590Y-115072006D01*
X122592197Y-115099197D01*
X119925197Y-117766197D01*
X119897334Y-117808211D01*
X119888000Y-117856000D01*
X119888000Y-121740394D01*
X117676394Y-123952000D01*
X90095606Y-123952000D01*
X88138000Y-121994394D01*
X88138000Y-118491000D01*
X88127994Y-118441590D01*
X88100803Y-118401197D01*
X85687803Y-115988197D01*
X85645789Y-115960334D01*
X85598000Y-115951000D01*
X83439000Y-115951000D01*
X83439000Y-112903000D01*
X86487000Y-112903000D01*
X86487000Y-115189000D01*
G36*
X127127000Y-104849394D02*
X126529197Y-105447197D01*
X126501334Y-105489211D01*
X126492000Y-105537000D01*
X126492000Y-105791000D01*
X126502006Y-105840410D01*
X126529197Y-105880803D01*
X126746000Y-106097606D01*
X126746000Y-106373394D01*
X125513197Y-107606197D01*
X125485334Y-107648211D01*
X125476000Y-107696000D01*
X125476000Y-107950000D01*
X124587000Y-107950000D01*
X124587000Y-107240606D01*
X125946803Y-105880803D01*
X125974666Y-105838789D01*
X125984000Y-105791000D01*
X125984000Y-105537000D01*
X125973994Y-105487590D01*
X125946803Y-105447197D01*
X125476000Y-104976394D01*
X125476000Y-104775000D01*
X127127000Y-104775000D01*
X127127000Y-104849394D01*
X127127000Y-104849394D01*
G37*
X127127000Y-104849394D02*
X126529197Y-105447197D01*
X126501334Y-105489211D01*
X126492000Y-105537000D01*
X126492000Y-105791000D01*
X126502006Y-105840410D01*
X126529197Y-105880803D01*
X126746000Y-106097606D01*
X126746000Y-106373394D01*
X125513197Y-107606197D01*
X125485334Y-107648211D01*
X125476000Y-107696000D01*
X125476000Y-107950000D01*
X124587000Y-107950000D01*
X124587000Y-107240606D01*
X125946803Y-105880803D01*
X125974666Y-105838789D01*
X125984000Y-105791000D01*
X125984000Y-105537000D01*
X125973994Y-105487590D01*
X125946803Y-105447197D01*
X125476000Y-104976394D01*
X125476000Y-104775000D01*
X127127000Y-104775000D01*
X127127000Y-104849394D01*
M02*
