G04 #@! TF.FileFunction,Copper,L1,Top,Signal*
%FSLAX46Y46*%
G04 Gerber Fmt 4.6, Leading zero omitted, Abs format (unit mm)*
G04 Created by KiCad (PCBNEW 4.0.0-2.201511301920+6191~38~ubuntu14.04.1-stable) date Fri 11 Dec 2015 10:08:10 PM CET*
%MOMM*%
G01*
G04 APERTURE LIST*
%ADD10C,0.100000*%
%ADD11C,1.998980*%
%ADD12R,1.998980X1.998980*%
%ADD13R,1.250000X1.500000*%
%ADD14R,0.590000X0.450000*%
%ADD15C,2.349500*%
%ADD16R,1.727200X1.727200*%
%ADD17O,1.727200X1.727200*%
%ADD18R,2.540000X2.540000*%
%ADD19C,2.540000*%
%ADD20R,2.235200X2.235200*%
%ADD21R,1.300000X1.500000*%
%ADD22C,3.000000*%
%ADD23R,1.190000X3.300000*%
%ADD24R,0.600000X1.550000*%
%ADD25C,4.064000*%
%ADD26C,0.600000*%
%ADD27C,0.500000*%
%ADD28C,1.000000*%
%ADD29C,0.254000*%
G04 APERTURE END LIST*
D10*
D11*
X106190000Y-96000000D03*
D12*
X110000000Y-96000000D03*
D13*
X121000000Y-94250000D03*
X121000000Y-91750000D03*
D14*
X112991000Y-96012000D03*
X115101000Y-96012000D03*
D15*
X99998740Y-119000000D03*
X95000020Y-119000000D03*
X110001260Y-119000000D03*
X114999980Y-119000000D03*
D16*
X83000000Y-98000000D03*
D17*
X85540000Y-98000000D03*
X83000000Y-100540000D03*
X85540000Y-100540000D03*
X83000000Y-103080000D03*
X85540000Y-103080000D03*
D18*
X85000000Y-114540000D03*
D19*
X85000000Y-109460000D03*
D20*
X99060000Y-91948000D03*
X114000000Y-91000000D03*
X110000000Y-91000000D03*
D18*
X125000000Y-109460000D03*
D19*
X125000000Y-114540000D03*
D21*
X119000000Y-91650000D03*
X119000000Y-94350000D03*
D22*
X92000000Y-102250000D03*
X92000000Y-106000000D03*
X92000000Y-109750000D03*
X112000000Y-102250000D03*
X112000000Y-109750000D03*
X117000000Y-102250000D03*
X117000000Y-109750000D03*
D23*
X94540000Y-91000000D03*
X92000000Y-97096000D03*
X89460000Y-91000000D03*
D24*
X123095000Y-103700000D03*
X124365000Y-103700000D03*
X125635000Y-103700000D03*
X126905000Y-103700000D03*
X126905000Y-98300000D03*
X125635000Y-98300000D03*
X124365000Y-98300000D03*
X123095000Y-98300000D03*
D25*
X83312000Y-121666000D03*
X83566000Y-91440000D03*
X126492000Y-91440000D03*
X126492000Y-121666000D03*
D26*
X102362000Y-100584000D03*
X121666000Y-98298000D03*
X128016000Y-98298000D03*
X121158000Y-89916000D03*
X92456000Y-88900000D03*
X98044000Y-102362000D03*
X108966000Y-93980000D03*
X116840000Y-91694000D03*
X126238000Y-106172000D03*
D27*
X106190000Y-96000000D02*
X106190000Y-97046000D01*
X106190000Y-97046000D02*
X107188000Y-98044000D01*
X107188000Y-98044000D02*
X114300000Y-98044000D01*
X114300000Y-98044000D02*
X115101000Y-97243000D01*
X115101000Y-97243000D02*
X115101000Y-96012000D01*
X102362000Y-100584000D02*
X102362000Y-96520000D01*
X102362000Y-96520000D02*
X102882000Y-96000000D01*
X102882000Y-96000000D02*
X106190000Y-96000000D01*
X112991000Y-96012000D02*
X110012000Y-96012000D01*
X110012000Y-96012000D02*
X110000000Y-96000000D01*
X110000000Y-91000000D02*
X110000000Y-96000000D01*
X121666000Y-98298000D02*
X121668000Y-98300000D01*
X121668000Y-98300000D02*
X123095000Y-98300000D01*
X85540000Y-98000000D02*
X88094000Y-98000000D01*
X88094000Y-98000000D02*
X90678000Y-95416000D01*
X90678000Y-95416000D02*
X90678000Y-93980000D01*
X90678000Y-93980000D02*
X93658000Y-91000000D01*
X93658000Y-91000000D02*
X94540000Y-91000000D01*
X83000000Y-98000000D02*
X83000000Y-96578000D01*
X83000000Y-96578000D02*
X83566000Y-96012000D01*
X83566000Y-96012000D02*
X88138000Y-96012000D01*
X88138000Y-96012000D02*
X89460000Y-94690000D01*
X89460000Y-94690000D02*
X89460000Y-91000000D01*
X128016000Y-98298000D02*
X128014000Y-98300000D01*
X128014000Y-98300000D02*
X126905000Y-98300000D01*
X121000000Y-91750000D02*
X121158000Y-91592000D01*
X121158000Y-91592000D02*
X121158000Y-89916000D01*
X89460000Y-91000000D02*
X90356000Y-91000000D01*
X90356000Y-91000000D02*
X92456000Y-88900000D01*
X125635000Y-98300000D02*
X125635000Y-96933000D01*
X125635000Y-96933000D02*
X124460000Y-95758000D01*
X124460000Y-95758000D02*
X121412000Y-95758000D01*
X121412000Y-95758000D02*
X121000000Y-95346000D01*
X121000000Y-95346000D02*
X121000000Y-94250000D01*
D28*
X85000000Y-109460000D02*
X86346000Y-109460000D01*
X86346000Y-109460000D02*
X88900000Y-112014000D01*
X88900000Y-112014000D02*
X88900000Y-112899980D01*
X88900000Y-112899980D02*
X95000020Y-119000000D01*
X99998740Y-119000000D02*
X95000020Y-119000000D01*
X85460020Y-109460000D02*
X85000000Y-109460000D01*
X110001260Y-119000000D02*
X110001260Y-111748740D01*
X110001260Y-111748740D02*
X112000000Y-109750000D01*
X110001260Y-119000000D02*
X114999980Y-119000000D01*
D27*
X85540000Y-103080000D02*
X87928000Y-103080000D01*
X87928000Y-103080000D02*
X88758000Y-102250000D01*
X88758000Y-102250000D02*
X92000000Y-102250000D01*
D28*
X125000000Y-114540000D02*
X122442000Y-114540000D01*
X122442000Y-114540000D02*
X119380000Y-117602000D01*
X119380000Y-117602000D02*
X119380000Y-121412000D01*
X119380000Y-121412000D02*
X117348000Y-123444000D01*
X117348000Y-123444000D02*
X90424000Y-123444000D01*
X90424000Y-123444000D02*
X88646000Y-121666000D01*
X88646000Y-121666000D02*
X88646000Y-118186000D01*
X88646000Y-118186000D02*
X85000000Y-114540000D01*
D27*
X92000000Y-97096000D02*
X97722000Y-97096000D01*
X97722000Y-97096000D02*
X99060000Y-95758000D01*
X99060000Y-95758000D02*
X99060000Y-91948000D01*
X119000000Y-94350000D02*
X115178000Y-94350000D01*
X115178000Y-94350000D02*
X114000000Y-93172000D01*
X114000000Y-93172000D02*
X114000000Y-91000000D01*
X124365000Y-98300000D02*
X124365000Y-97187000D01*
X124365000Y-97187000D02*
X123698000Y-96520000D01*
X123698000Y-96520000D02*
X119888000Y-96520000D01*
X119888000Y-96520000D02*
X119000000Y-95632000D01*
X119000000Y-95632000D02*
X119000000Y-94350000D01*
X98044000Y-102362000D02*
X101346000Y-99060000D01*
X101346000Y-99060000D02*
X101346000Y-96266000D01*
X101346000Y-96266000D02*
X103632000Y-93980000D01*
X103632000Y-93980000D02*
X108966000Y-93980000D01*
X119000000Y-91650000D02*
X116884000Y-91650000D01*
X116884000Y-91650000D02*
X116840000Y-91694000D01*
X124365000Y-103700000D02*
X123095000Y-103700000D01*
D28*
X117000000Y-102250000D02*
X118760000Y-102250000D01*
X118760000Y-102250000D02*
X120210000Y-103700000D01*
X120210000Y-103700000D02*
X123095000Y-103700000D01*
D27*
X126238000Y-106172000D02*
X126238000Y-105156000D01*
X125635000Y-103700000D02*
X125635000Y-104807000D01*
X125635000Y-104807000D02*
X125984000Y-105156000D01*
X125984000Y-105156000D02*
X126238000Y-105156000D01*
X126238000Y-105156000D02*
X126492000Y-105156000D01*
X126492000Y-105156000D02*
X126905000Y-104743000D01*
X126905000Y-104743000D02*
X126905000Y-103700000D01*
D28*
X125000000Y-109460000D02*
X125000000Y-107410000D01*
X125000000Y-107410000D02*
X126238000Y-106172000D01*
D29*
G36*
X129290000Y-124290000D02*
X127125358Y-124290000D01*
X128000761Y-123928291D01*
X128751655Y-123178707D01*
X129158536Y-122198827D01*
X129159462Y-121137828D01*
X128754291Y-120157239D01*
X128004707Y-119406345D01*
X127024827Y-118999464D01*
X125963828Y-118998538D01*
X124983239Y-119403709D01*
X124232345Y-120153293D01*
X123825464Y-121133173D01*
X123824538Y-122194172D01*
X124229709Y-123174761D01*
X124979293Y-123925655D01*
X125856735Y-124290000D01*
X118085562Y-124290000D01*
X118150566Y-124246566D01*
X120182566Y-122214566D01*
X120258886Y-122100345D01*
X120428603Y-121846346D01*
X120515000Y-121412000D01*
X120515000Y-118072132D01*
X122912132Y-115675000D01*
X123441292Y-115675000D01*
X123919495Y-116154039D01*
X124619410Y-116444668D01*
X125377265Y-116445330D01*
X126077686Y-116155922D01*
X126614039Y-115620505D01*
X126904668Y-114920590D01*
X126905330Y-114162735D01*
X126615922Y-113462314D01*
X126080505Y-112925961D01*
X125380590Y-112635332D01*
X124622735Y-112634670D01*
X123922314Y-112924078D01*
X123440551Y-113405000D01*
X122442000Y-113405000D01*
X122007654Y-113491397D01*
X121691648Y-113702546D01*
X121639434Y-113737434D01*
X118577434Y-116799434D01*
X118331397Y-117167654D01*
X118245000Y-117602000D01*
X118245000Y-120941868D01*
X116877868Y-122309000D01*
X90894132Y-122309000D01*
X89781000Y-121195868D01*
X89781000Y-118186000D01*
X89739268Y-117976198D01*
X89694604Y-117751655D01*
X89448566Y-117383434D01*
X86917440Y-114852308D01*
X86917440Y-113270000D01*
X86873162Y-113034683D01*
X86734090Y-112818559D01*
X86521890Y-112673569D01*
X86270000Y-112622560D01*
X83730000Y-112622560D01*
X83494683Y-112666838D01*
X83278559Y-112805910D01*
X83133569Y-113018110D01*
X83082560Y-113270000D01*
X83082560Y-115810000D01*
X83126838Y-116045317D01*
X83265910Y-116261441D01*
X83478110Y-116406431D01*
X83730000Y-116457440D01*
X85312308Y-116457440D01*
X87511000Y-118656132D01*
X87511000Y-121666000D01*
X87597397Y-122100346D01*
X87794544Y-122395397D01*
X87843434Y-122468566D01*
X89621434Y-124246566D01*
X89686438Y-124290000D01*
X83945358Y-124290000D01*
X84820761Y-123928291D01*
X85571655Y-123178707D01*
X85978536Y-122198827D01*
X85979462Y-121137828D01*
X85574291Y-120157239D01*
X84824707Y-119406345D01*
X83844827Y-118999464D01*
X82783828Y-118998538D01*
X81803239Y-119403709D01*
X81052345Y-120153293D01*
X80710000Y-120977753D01*
X80710000Y-109837265D01*
X83094670Y-109837265D01*
X83384078Y-110537686D01*
X83919495Y-111074039D01*
X84619410Y-111364668D01*
X85377265Y-111365330D01*
X86077686Y-111075922D01*
X86217360Y-110936492D01*
X87765000Y-112484133D01*
X87765000Y-112899980D01*
X87851397Y-113334326D01*
X87936916Y-113462314D01*
X88097434Y-113702546D01*
X93190448Y-118795560D01*
X93189957Y-119358402D01*
X93464894Y-120023802D01*
X93973541Y-120533337D01*
X94638459Y-120809435D01*
X95358422Y-120810063D01*
X96023822Y-120535126D01*
X96424647Y-120135000D01*
X98574618Y-120135000D01*
X98972261Y-120533337D01*
X99637179Y-120809435D01*
X100357142Y-120810063D01*
X101022542Y-120535126D01*
X101532077Y-120026479D01*
X101808175Y-119361561D01*
X101808177Y-119358402D01*
X108191197Y-119358402D01*
X108466134Y-120023802D01*
X108974781Y-120533337D01*
X109639699Y-120809435D01*
X110359662Y-120810063D01*
X111025062Y-120535126D01*
X111425887Y-120135000D01*
X113575858Y-120135000D01*
X113973501Y-120533337D01*
X114638419Y-120809435D01*
X115358382Y-120810063D01*
X116023782Y-120535126D01*
X116533317Y-120026479D01*
X116809415Y-119361561D01*
X116810043Y-118641598D01*
X116535106Y-117976198D01*
X116026459Y-117466663D01*
X115361541Y-117190565D01*
X114641578Y-117189937D01*
X113976178Y-117464874D01*
X113575353Y-117865000D01*
X111425382Y-117865000D01*
X111136260Y-117575373D01*
X111136260Y-112218872D01*
X111500711Y-111854421D01*
X111573459Y-111884628D01*
X112422815Y-111885370D01*
X113207800Y-111561020D01*
X113808909Y-110960959D01*
X114134628Y-110176541D01*
X114134631Y-110172815D01*
X114864630Y-110172815D01*
X115188980Y-110957800D01*
X115789041Y-111558909D01*
X116573459Y-111884628D01*
X117422815Y-111885370D01*
X118207800Y-111561020D01*
X118808909Y-110960959D01*
X119134628Y-110176541D01*
X119135370Y-109327185D01*
X118811020Y-108542200D01*
X118210959Y-107941091D01*
X117426541Y-107615372D01*
X116577185Y-107614630D01*
X115792200Y-107938980D01*
X115191091Y-108539041D01*
X114865372Y-109323459D01*
X114864630Y-110172815D01*
X114134631Y-110172815D01*
X114135370Y-109327185D01*
X113811020Y-108542200D01*
X113210959Y-107941091D01*
X112426541Y-107615372D01*
X111577185Y-107614630D01*
X110792200Y-107938980D01*
X110191091Y-108539041D01*
X109865372Y-109323459D01*
X109864630Y-110172815D01*
X109896039Y-110248829D01*
X109198694Y-110946174D01*
X108952657Y-111314394D01*
X108866260Y-111748740D01*
X108866260Y-117575878D01*
X108467923Y-117973521D01*
X108191825Y-118638439D01*
X108191197Y-119358402D01*
X101808177Y-119358402D01*
X101808803Y-118641598D01*
X101533866Y-117976198D01*
X101025219Y-117466663D01*
X100360301Y-117190565D01*
X99640338Y-117189937D01*
X98974938Y-117464874D01*
X98574113Y-117865000D01*
X96424142Y-117865000D01*
X96026499Y-117466663D01*
X95361581Y-117190565D01*
X94795223Y-117190071D01*
X90035000Y-112429848D01*
X90035000Y-112014000D01*
X89948603Y-111579654D01*
X89813488Y-111377440D01*
X89702566Y-111211433D01*
X87148566Y-108657434D01*
X87085059Y-108615000D01*
X86780346Y-108411397D01*
X86611409Y-108377793D01*
X86080505Y-107845961D01*
X85380590Y-107555332D01*
X84622735Y-107554670D01*
X83922314Y-107844078D01*
X83385961Y-108379495D01*
X83095332Y-109079410D01*
X83094670Y-109837265D01*
X80710000Y-109837265D01*
X80710000Y-97010090D01*
X81501400Y-97010090D01*
X81501400Y-97714250D01*
X81660150Y-97873000D01*
X82873000Y-97873000D01*
X82873000Y-96660150D01*
X82714250Y-96501400D01*
X82010091Y-96501400D01*
X81776702Y-96598073D01*
X81598073Y-96776701D01*
X81501400Y-97010090D01*
X80710000Y-97010090D01*
X80710000Y-91968172D01*
X80898538Y-91968172D01*
X81303709Y-92948761D01*
X82053293Y-93699655D01*
X83033173Y-94106536D01*
X84094172Y-94107462D01*
X85074761Y-93702291D01*
X85825655Y-92952707D01*
X86232536Y-91972827D01*
X86233135Y-91285750D01*
X88230000Y-91285750D01*
X88230000Y-92776310D01*
X88326673Y-93009699D01*
X88505302Y-93188327D01*
X88738691Y-93285000D01*
X89174250Y-93285000D01*
X89333000Y-93126250D01*
X89333000Y-91127000D01*
X88388750Y-91127000D01*
X88230000Y-91285750D01*
X86233135Y-91285750D01*
X86233462Y-90911828D01*
X85828291Y-89931239D01*
X85121977Y-89223690D01*
X88230000Y-89223690D01*
X88230000Y-90714250D01*
X88388750Y-90873000D01*
X89333000Y-90873000D01*
X89333000Y-88873750D01*
X89587000Y-88873750D01*
X89587000Y-90873000D01*
X90531250Y-90873000D01*
X90690000Y-90714250D01*
X90690000Y-89223690D01*
X90593327Y-88990301D01*
X90414698Y-88811673D01*
X90181309Y-88715000D01*
X89745750Y-88715000D01*
X89587000Y-88873750D01*
X89333000Y-88873750D01*
X89174250Y-88715000D01*
X88738691Y-88715000D01*
X88505302Y-88811673D01*
X88326673Y-88990301D01*
X88230000Y-89223690D01*
X85121977Y-89223690D01*
X85078707Y-89180345D01*
X84098827Y-88773464D01*
X83037828Y-88772538D01*
X82057239Y-89177709D01*
X81306345Y-89927293D01*
X80899464Y-90907173D01*
X80898538Y-91968172D01*
X80710000Y-91968172D01*
X80710000Y-88643730D01*
X80728295Y-88655954D01*
X81000000Y-88710000D01*
X93905460Y-88710000D01*
X93709683Y-88746838D01*
X93493559Y-88885910D01*
X93348569Y-89098110D01*
X93297560Y-89350000D01*
X93297560Y-90196910D01*
X93032210Y-90374210D01*
X93032208Y-90374213D01*
X90690000Y-92716420D01*
X90690000Y-91285750D01*
X90531250Y-91127000D01*
X89587000Y-91127000D01*
X89587000Y-93126250D01*
X89745750Y-93285000D01*
X90121420Y-93285000D01*
X90052210Y-93354210D01*
X89860367Y-93641325D01*
X89849190Y-93697516D01*
X89792999Y-93980000D01*
X89793000Y-93980005D01*
X89793000Y-95049421D01*
X87727420Y-97115000D01*
X86745740Y-97115000D01*
X86629029Y-96940330D01*
X86142848Y-96615474D01*
X85569359Y-96501400D01*
X85510641Y-96501400D01*
X84937152Y-96615474D01*
X84465644Y-96930526D01*
X84401927Y-96776701D01*
X84223298Y-96598073D01*
X83989909Y-96501400D01*
X83285750Y-96501400D01*
X83127000Y-96660150D01*
X83127000Y-97873000D01*
X83147000Y-97873000D01*
X83147000Y-98127000D01*
X83127000Y-98127000D01*
X83127000Y-98147000D01*
X82873000Y-98147000D01*
X82873000Y-98127000D01*
X81660150Y-98127000D01*
X81501400Y-98285750D01*
X81501400Y-98989910D01*
X81598073Y-99223299D01*
X81776702Y-99401927D01*
X81932023Y-99466263D01*
X81910971Y-99480330D01*
X81586115Y-99966511D01*
X81472041Y-100540000D01*
X81586115Y-101113489D01*
X81910971Y-101599670D01*
X82225752Y-101810000D01*
X81910971Y-102020330D01*
X81586115Y-102506511D01*
X81472041Y-103080000D01*
X81586115Y-103653489D01*
X81910971Y-104139670D01*
X82397152Y-104464526D01*
X82970641Y-104578600D01*
X83029359Y-104578600D01*
X83602848Y-104464526D01*
X84089029Y-104139670D01*
X84270000Y-103868828D01*
X84450971Y-104139670D01*
X84937152Y-104464526D01*
X85510641Y-104578600D01*
X85569359Y-104578600D01*
X86142848Y-104464526D01*
X86629029Y-104139670D01*
X86745740Y-103965000D01*
X87927995Y-103965000D01*
X87928000Y-103965001D01*
X88210484Y-103908810D01*
X88266675Y-103897633D01*
X88553790Y-103705790D01*
X89124579Y-103135000D01*
X90055601Y-103135000D01*
X90188980Y-103457800D01*
X90789041Y-104058909D01*
X90947626Y-104124759D01*
X90792200Y-104188980D01*
X90191091Y-104789041D01*
X89865372Y-105573459D01*
X89864630Y-106422815D01*
X90188980Y-107207800D01*
X90789041Y-107808909D01*
X90947626Y-107874759D01*
X90792200Y-107938980D01*
X90191091Y-108539041D01*
X89865372Y-109323459D01*
X89864630Y-110172815D01*
X90188980Y-110957800D01*
X90789041Y-111558909D01*
X91573459Y-111884628D01*
X92422815Y-111885370D01*
X93207800Y-111561020D01*
X93808909Y-110960959D01*
X94134628Y-110176541D01*
X94135370Y-109327185D01*
X93811020Y-108542200D01*
X93210959Y-107941091D01*
X93052374Y-107875241D01*
X93207800Y-107811020D01*
X93808909Y-107210959D01*
X94134628Y-106426541D01*
X94135370Y-105577185D01*
X93811020Y-104792200D01*
X93210959Y-104191091D01*
X93052374Y-104125241D01*
X93207800Y-104061020D01*
X93808909Y-103460959D01*
X94134628Y-102676541D01*
X94134741Y-102547167D01*
X97108838Y-102547167D01*
X97250883Y-102890943D01*
X97513673Y-103154192D01*
X97857201Y-103296838D01*
X98229167Y-103297162D01*
X98572943Y-103155117D01*
X98836192Y-102892327D01*
X98886566Y-102771014D01*
X98984764Y-102672815D01*
X109864630Y-102672815D01*
X110188980Y-103457800D01*
X110789041Y-104058909D01*
X111573459Y-104384628D01*
X112422815Y-104385370D01*
X113207800Y-104061020D01*
X113808909Y-103460959D01*
X114134628Y-102676541D01*
X114134631Y-102672815D01*
X114864630Y-102672815D01*
X115188980Y-103457800D01*
X115789041Y-104058909D01*
X116573459Y-104384628D01*
X117422815Y-104385370D01*
X118207800Y-104061020D01*
X118587175Y-103682307D01*
X119407434Y-104502566D01*
X119775655Y-104748604D01*
X120210000Y-104835000D01*
X122272069Y-104835000D01*
X122330910Y-104926441D01*
X122543110Y-105071431D01*
X122795000Y-105122440D01*
X123395000Y-105122440D01*
X123630317Y-105078162D01*
X123729528Y-105014322D01*
X123813110Y-105071431D01*
X124065000Y-105122440D01*
X124665000Y-105122440D01*
X124807415Y-105095643D01*
X124817367Y-105145675D01*
X124966447Y-105368790D01*
X125009210Y-105432790D01*
X125190644Y-105614224D01*
X124197434Y-106607434D01*
X123951397Y-106975654D01*
X123865000Y-107410000D01*
X123865000Y-107542560D01*
X123730000Y-107542560D01*
X123494683Y-107586838D01*
X123278559Y-107725910D01*
X123133569Y-107938110D01*
X123082560Y-108190000D01*
X123082560Y-110730000D01*
X123126838Y-110965317D01*
X123265910Y-111181441D01*
X123478110Y-111326431D01*
X123730000Y-111377440D01*
X126270000Y-111377440D01*
X126505317Y-111333162D01*
X126721441Y-111194090D01*
X126866431Y-110981890D01*
X126917440Y-110730000D01*
X126917440Y-108190000D01*
X126873162Y-107954683D01*
X126734090Y-107738559D01*
X126521890Y-107593569D01*
X126438458Y-107576674D01*
X127040566Y-106974566D01*
X127286603Y-106606346D01*
X127372999Y-106172000D01*
X127286603Y-105737655D01*
X127236664Y-105662916D01*
X127530787Y-105368792D01*
X127530790Y-105368790D01*
X127722633Y-105081675D01*
X127750995Y-104939090D01*
X127789827Y-104743872D01*
X127801431Y-104726890D01*
X127852440Y-104475000D01*
X127852440Y-102925000D01*
X127808162Y-102689683D01*
X127669090Y-102473559D01*
X127456890Y-102328569D01*
X127205000Y-102277560D01*
X126605000Y-102277560D01*
X126369683Y-102321838D01*
X126270472Y-102385678D01*
X126186890Y-102328569D01*
X125935000Y-102277560D01*
X125335000Y-102277560D01*
X125099683Y-102321838D01*
X125000472Y-102385678D01*
X124916890Y-102328569D01*
X124665000Y-102277560D01*
X124065000Y-102277560D01*
X123829683Y-102321838D01*
X123730472Y-102385678D01*
X123646890Y-102328569D01*
X123395000Y-102277560D01*
X122795000Y-102277560D01*
X122559683Y-102321838D01*
X122343559Y-102460910D01*
X122272437Y-102565000D01*
X120680132Y-102565000D01*
X119562566Y-101447434D01*
X119439193Y-101364999D01*
X119194346Y-101201397D01*
X118848363Y-101132577D01*
X118811020Y-101042200D01*
X118210959Y-100441091D01*
X117426541Y-100115372D01*
X116577185Y-100114630D01*
X115792200Y-100438980D01*
X115191091Y-101039041D01*
X114865372Y-101823459D01*
X114864630Y-102672815D01*
X114134631Y-102672815D01*
X114135370Y-101827185D01*
X113811020Y-101042200D01*
X113210959Y-100441091D01*
X112426541Y-100115372D01*
X111577185Y-100114630D01*
X110792200Y-100438980D01*
X110191091Y-101039041D01*
X109865372Y-101823459D01*
X109864630Y-102672815D01*
X98984764Y-102672815D01*
X101477000Y-100180579D01*
X101477000Y-100277178D01*
X101427162Y-100397201D01*
X101426838Y-100769167D01*
X101568883Y-101112943D01*
X101831673Y-101376192D01*
X102175201Y-101518838D01*
X102547167Y-101519162D01*
X102890943Y-101377117D01*
X103154192Y-101114327D01*
X103296838Y-100770799D01*
X103297162Y-100398833D01*
X103247000Y-100277431D01*
X103247000Y-96886580D01*
X103248579Y-96885000D01*
X104787153Y-96885000D01*
X104803538Y-96924655D01*
X105262927Y-97384846D01*
X105414549Y-97447805D01*
X105513516Y-97595921D01*
X105564210Y-97671790D01*
X106562208Y-98669787D01*
X106562210Y-98669790D01*
X106799479Y-98828327D01*
X106849325Y-98861633D01*
X107188000Y-98929001D01*
X107188005Y-98929000D01*
X114299995Y-98929000D01*
X114300000Y-98929001D01*
X114582484Y-98872810D01*
X114638675Y-98861633D01*
X114925790Y-98669790D01*
X114925791Y-98669789D01*
X115726787Y-97868792D01*
X115726790Y-97868790D01*
X115918633Y-97581675D01*
X115944640Y-97450931D01*
X115986001Y-97243000D01*
X115986000Y-97242995D01*
X115986000Y-96498302D01*
X115992431Y-96488890D01*
X116043440Y-96237000D01*
X116043440Y-95787000D01*
X115999162Y-95551683D01*
X115860090Y-95335559D01*
X115712917Y-95235000D01*
X117727962Y-95235000D01*
X117746838Y-95335317D01*
X117885910Y-95551441D01*
X118098110Y-95696431D01*
X118129062Y-95702699D01*
X118167157Y-95894210D01*
X118182367Y-95970675D01*
X118266557Y-96096675D01*
X118374210Y-96257790D01*
X119262208Y-97145787D01*
X119262210Y-97145790D01*
X119549325Y-97337633D01*
X119605516Y-97348810D01*
X119888000Y-97405001D01*
X119888005Y-97405000D01*
X121378793Y-97405000D01*
X121137057Y-97504883D01*
X120873808Y-97767673D01*
X120731162Y-98111201D01*
X120730838Y-98483167D01*
X120872883Y-98826943D01*
X121135673Y-99090192D01*
X121479201Y-99232838D01*
X121851167Y-99233162D01*
X121967728Y-99185000D01*
X122168258Y-99185000D01*
X122191838Y-99310317D01*
X122330910Y-99526441D01*
X122543110Y-99671431D01*
X122795000Y-99722440D01*
X123395000Y-99722440D01*
X123630317Y-99678162D01*
X123729528Y-99614322D01*
X123813110Y-99671431D01*
X124065000Y-99722440D01*
X124665000Y-99722440D01*
X124900317Y-99678162D01*
X124999528Y-99614322D01*
X125083110Y-99671431D01*
X125335000Y-99722440D01*
X125935000Y-99722440D01*
X126170317Y-99678162D01*
X126260980Y-99619822D01*
X126478690Y-99710000D01*
X126619250Y-99710000D01*
X126778000Y-99551250D01*
X126778000Y-98427000D01*
X127032000Y-98427000D01*
X127032000Y-99551250D01*
X127190750Y-99710000D01*
X127331310Y-99710000D01*
X127564699Y-99613327D01*
X127743327Y-99434698D01*
X127840000Y-99201309D01*
X127840000Y-98585750D01*
X127681250Y-98427000D01*
X127032000Y-98427000D01*
X126778000Y-98427000D01*
X126758000Y-98427000D01*
X126758000Y-98173000D01*
X126778000Y-98173000D01*
X126778000Y-97048750D01*
X127032000Y-97048750D01*
X127032000Y-98173000D01*
X127681250Y-98173000D01*
X127840000Y-98014250D01*
X127840000Y-97398691D01*
X127743327Y-97165302D01*
X127564699Y-96986673D01*
X127331310Y-96890000D01*
X127190750Y-96890000D01*
X127032000Y-97048750D01*
X126778000Y-97048750D01*
X126619250Y-96890000D01*
X126511448Y-96890000D01*
X126456840Y-96615474D01*
X126452633Y-96594325D01*
X126260790Y-96307210D01*
X126260787Y-96307208D01*
X125085790Y-95132210D01*
X124997066Y-95072927D01*
X124798675Y-94940367D01*
X124742484Y-94929190D01*
X124460000Y-94872999D01*
X124459995Y-94873000D01*
X122272440Y-94873000D01*
X122272440Y-93500000D01*
X122228162Y-93264683D01*
X122089090Y-93048559D01*
X122020994Y-93002031D01*
X122163327Y-92859698D01*
X122260000Y-92626309D01*
X122260000Y-92035750D01*
X122192422Y-91968172D01*
X123824538Y-91968172D01*
X124229709Y-92948761D01*
X124979293Y-93699655D01*
X125959173Y-94106536D01*
X127020172Y-94107462D01*
X128000761Y-93702291D01*
X128751655Y-92952707D01*
X129158536Y-91972827D01*
X129159462Y-90911828D01*
X128754291Y-89931239D01*
X128004707Y-89180345D01*
X127024827Y-88773464D01*
X125963828Y-88772538D01*
X124983239Y-89177709D01*
X124232345Y-89927293D01*
X123825464Y-90907173D01*
X123824538Y-91968172D01*
X122192422Y-91968172D01*
X122101250Y-91877000D01*
X121127000Y-91877000D01*
X121127000Y-91897000D01*
X120873000Y-91897000D01*
X120873000Y-91877000D01*
X120853000Y-91877000D01*
X120853000Y-91623000D01*
X120873000Y-91623000D01*
X120873000Y-90523750D01*
X121127000Y-90523750D01*
X121127000Y-91623000D01*
X122101250Y-91623000D01*
X122260000Y-91464250D01*
X122260000Y-90873691D01*
X122163327Y-90640302D01*
X121984699Y-90461673D01*
X121751310Y-90365000D01*
X121285750Y-90365000D01*
X121127000Y-90523750D01*
X120873000Y-90523750D01*
X120714250Y-90365000D01*
X120248690Y-90365000D01*
X120088754Y-90431248D01*
X119901890Y-90303569D01*
X119650000Y-90252560D01*
X118350000Y-90252560D01*
X118114683Y-90296838D01*
X117898559Y-90435910D01*
X117753569Y-90648110D01*
X117729898Y-90765000D01*
X117040858Y-90765000D01*
X117026799Y-90759162D01*
X116654833Y-90758838D01*
X116311057Y-90900883D01*
X116047808Y-91163673D01*
X115905162Y-91507201D01*
X115904838Y-91879167D01*
X116046883Y-92222943D01*
X116309673Y-92486192D01*
X116653201Y-92628838D01*
X117025167Y-92629162D01*
X117253057Y-92535000D01*
X117727962Y-92535000D01*
X117746838Y-92635317D01*
X117885910Y-92851441D01*
X118098110Y-92996431D01*
X118111197Y-92999081D01*
X117898559Y-93135910D01*
X117753569Y-93348110D01*
X117729898Y-93465000D01*
X115544579Y-93465000D01*
X114885000Y-92805420D01*
X114885000Y-92765040D01*
X115117600Y-92765040D01*
X115352917Y-92720762D01*
X115569041Y-92581690D01*
X115714031Y-92369490D01*
X115765040Y-92117600D01*
X115765040Y-89882400D01*
X115720762Y-89647083D01*
X115581690Y-89430959D01*
X115369490Y-89285969D01*
X115117600Y-89234960D01*
X112882400Y-89234960D01*
X112647083Y-89279238D01*
X112430959Y-89418310D01*
X112285969Y-89630510D01*
X112234960Y-89882400D01*
X112234960Y-92117600D01*
X112279238Y-92352917D01*
X112418310Y-92569041D01*
X112630510Y-92714031D01*
X112882400Y-92765040D01*
X113115000Y-92765040D01*
X113115000Y-93171995D01*
X113114999Y-93172000D01*
X113151244Y-93354210D01*
X113182367Y-93510675D01*
X113371144Y-93793201D01*
X113374210Y-93797790D01*
X114552208Y-94975787D01*
X114552210Y-94975790D01*
X114744054Y-95103975D01*
X114799220Y-95140836D01*
X114570683Y-95183838D01*
X114354559Y-95322910D01*
X114209569Y-95535110D01*
X114158560Y-95787000D01*
X114158560Y-96237000D01*
X114202838Y-96472317D01*
X114216000Y-96492771D01*
X114216000Y-96876421D01*
X113933420Y-97159000D01*
X111614628Y-97159000D01*
X111646930Y-96999490D01*
X111646930Y-96897000D01*
X112991000Y-96897000D01*
X113054143Y-96884440D01*
X113286000Y-96884440D01*
X113521317Y-96840162D01*
X113737441Y-96701090D01*
X113882431Y-96488890D01*
X113933440Y-96237000D01*
X113933440Y-95787000D01*
X113889162Y-95551683D01*
X113750090Y-95335559D01*
X113537890Y-95190569D01*
X113286000Y-95139560D01*
X113054143Y-95139560D01*
X112991000Y-95127000D01*
X111646930Y-95127000D01*
X111646930Y-95000510D01*
X111602652Y-94765193D01*
X111463580Y-94549069D01*
X111251380Y-94404079D01*
X110999490Y-94353070D01*
X110885000Y-94353070D01*
X110885000Y-92765040D01*
X111117600Y-92765040D01*
X111352917Y-92720762D01*
X111569041Y-92581690D01*
X111714031Y-92369490D01*
X111765040Y-92117600D01*
X111765040Y-89882400D01*
X111720762Y-89647083D01*
X111581690Y-89430959D01*
X111369490Y-89285969D01*
X111117600Y-89234960D01*
X108882400Y-89234960D01*
X108647083Y-89279238D01*
X108430959Y-89418310D01*
X108285969Y-89630510D01*
X108234960Y-89882400D01*
X108234960Y-92117600D01*
X108279238Y-92352917D01*
X108418310Y-92569041D01*
X108630510Y-92714031D01*
X108882400Y-92765040D01*
X109115000Y-92765040D01*
X109115000Y-93045129D01*
X108780833Y-93044838D01*
X108659431Y-93095000D01*
X103632005Y-93095000D01*
X103632000Y-93094999D01*
X103293325Y-93162367D01*
X103006210Y-93354210D01*
X103006208Y-93354213D01*
X100720210Y-95640210D01*
X100528367Y-95927325D01*
X100528367Y-95927326D01*
X100460999Y-96266000D01*
X100461000Y-96266005D01*
X100461000Y-98693421D01*
X97635164Y-101519256D01*
X97515057Y-101568883D01*
X97251808Y-101831673D01*
X97109162Y-102175201D01*
X97108838Y-102547167D01*
X94134741Y-102547167D01*
X94135370Y-101827185D01*
X93811020Y-101042200D01*
X93210959Y-100441091D01*
X92426541Y-100115372D01*
X91577185Y-100114630D01*
X90792200Y-100438980D01*
X90191091Y-101039041D01*
X90055741Y-101365000D01*
X88758005Y-101365000D01*
X88758000Y-101364999D01*
X88447121Y-101426838D01*
X88419325Y-101432367D01*
X88132210Y-101624210D01*
X88132208Y-101624213D01*
X87561420Y-102195000D01*
X86745740Y-102195000D01*
X86629029Y-102020330D01*
X86314248Y-101810000D01*
X86629029Y-101599670D01*
X86953885Y-101113489D01*
X87067959Y-100540000D01*
X86953885Y-99966511D01*
X86629029Y-99480330D01*
X86314248Y-99270000D01*
X86629029Y-99059670D01*
X86745740Y-98885000D01*
X88093995Y-98885000D01*
X88094000Y-98885001D01*
X88385871Y-98826943D01*
X88432675Y-98817633D01*
X88719790Y-98625790D01*
X90757560Y-96588019D01*
X90757560Y-98746000D01*
X90801838Y-98981317D01*
X90940910Y-99197441D01*
X91153110Y-99342431D01*
X91405000Y-99393440D01*
X92595000Y-99393440D01*
X92830317Y-99349162D01*
X93046441Y-99210090D01*
X93191431Y-98997890D01*
X93242440Y-98746000D01*
X93242440Y-97981000D01*
X97721995Y-97981000D01*
X97722000Y-97981001D01*
X98004484Y-97924810D01*
X98060675Y-97913633D01*
X98347790Y-97721790D01*
X99685787Y-96383792D01*
X99685790Y-96383790D01*
X99877633Y-96096675D01*
X99896863Y-96000000D01*
X99945001Y-95758000D01*
X99945000Y-95757995D01*
X99945000Y-93713040D01*
X100177600Y-93713040D01*
X100412917Y-93668762D01*
X100629041Y-93529690D01*
X100774031Y-93317490D01*
X100825040Y-93065600D01*
X100825040Y-90830400D01*
X100780762Y-90595083D01*
X100641690Y-90378959D01*
X100429490Y-90233969D01*
X100177600Y-90182960D01*
X97942400Y-90182960D01*
X97707083Y-90227238D01*
X97490959Y-90366310D01*
X97345969Y-90578510D01*
X97294960Y-90830400D01*
X97294960Y-93065600D01*
X97339238Y-93300917D01*
X97478310Y-93517041D01*
X97690510Y-93662031D01*
X97942400Y-93713040D01*
X98175000Y-93713040D01*
X98175000Y-95391421D01*
X97355420Y-96211000D01*
X93242440Y-96211000D01*
X93242440Y-95446000D01*
X93198162Y-95210683D01*
X93059090Y-94994559D01*
X92846890Y-94849569D01*
X92595000Y-94798560D01*
X91563000Y-94798560D01*
X91563000Y-94346580D01*
X93297560Y-92612019D01*
X93297560Y-92650000D01*
X93341838Y-92885317D01*
X93480910Y-93101441D01*
X93693110Y-93246431D01*
X93945000Y-93297440D01*
X95135000Y-93297440D01*
X95370317Y-93253162D01*
X95586441Y-93114090D01*
X95731431Y-92901890D01*
X95782440Y-92650000D01*
X95782440Y-89350000D01*
X95738162Y-89114683D01*
X95599090Y-88898559D01*
X95386890Y-88753569D01*
X95171740Y-88710000D01*
X129000000Y-88710000D01*
X129271705Y-88655954D01*
X129290000Y-88643730D01*
X129290000Y-124290000D01*
X129290000Y-124290000D01*
G37*
X129290000Y-124290000D02*
X127125358Y-124290000D01*
X128000761Y-123928291D01*
X128751655Y-123178707D01*
X129158536Y-122198827D01*
X129159462Y-121137828D01*
X128754291Y-120157239D01*
X128004707Y-119406345D01*
X127024827Y-118999464D01*
X125963828Y-118998538D01*
X124983239Y-119403709D01*
X124232345Y-120153293D01*
X123825464Y-121133173D01*
X123824538Y-122194172D01*
X124229709Y-123174761D01*
X124979293Y-123925655D01*
X125856735Y-124290000D01*
X118085562Y-124290000D01*
X118150566Y-124246566D01*
X120182566Y-122214566D01*
X120258886Y-122100345D01*
X120428603Y-121846346D01*
X120515000Y-121412000D01*
X120515000Y-118072132D01*
X122912132Y-115675000D01*
X123441292Y-115675000D01*
X123919495Y-116154039D01*
X124619410Y-116444668D01*
X125377265Y-116445330D01*
X126077686Y-116155922D01*
X126614039Y-115620505D01*
X126904668Y-114920590D01*
X126905330Y-114162735D01*
X126615922Y-113462314D01*
X126080505Y-112925961D01*
X125380590Y-112635332D01*
X124622735Y-112634670D01*
X123922314Y-112924078D01*
X123440551Y-113405000D01*
X122442000Y-113405000D01*
X122007654Y-113491397D01*
X121691648Y-113702546D01*
X121639434Y-113737434D01*
X118577434Y-116799434D01*
X118331397Y-117167654D01*
X118245000Y-117602000D01*
X118245000Y-120941868D01*
X116877868Y-122309000D01*
X90894132Y-122309000D01*
X89781000Y-121195868D01*
X89781000Y-118186000D01*
X89739268Y-117976198D01*
X89694604Y-117751655D01*
X89448566Y-117383434D01*
X86917440Y-114852308D01*
X86917440Y-113270000D01*
X86873162Y-113034683D01*
X86734090Y-112818559D01*
X86521890Y-112673569D01*
X86270000Y-112622560D01*
X83730000Y-112622560D01*
X83494683Y-112666838D01*
X83278559Y-112805910D01*
X83133569Y-113018110D01*
X83082560Y-113270000D01*
X83082560Y-115810000D01*
X83126838Y-116045317D01*
X83265910Y-116261441D01*
X83478110Y-116406431D01*
X83730000Y-116457440D01*
X85312308Y-116457440D01*
X87511000Y-118656132D01*
X87511000Y-121666000D01*
X87597397Y-122100346D01*
X87794544Y-122395397D01*
X87843434Y-122468566D01*
X89621434Y-124246566D01*
X89686438Y-124290000D01*
X83945358Y-124290000D01*
X84820761Y-123928291D01*
X85571655Y-123178707D01*
X85978536Y-122198827D01*
X85979462Y-121137828D01*
X85574291Y-120157239D01*
X84824707Y-119406345D01*
X83844827Y-118999464D01*
X82783828Y-118998538D01*
X81803239Y-119403709D01*
X81052345Y-120153293D01*
X80710000Y-120977753D01*
X80710000Y-109837265D01*
X83094670Y-109837265D01*
X83384078Y-110537686D01*
X83919495Y-111074039D01*
X84619410Y-111364668D01*
X85377265Y-111365330D01*
X86077686Y-111075922D01*
X86217360Y-110936492D01*
X87765000Y-112484133D01*
X87765000Y-112899980D01*
X87851397Y-113334326D01*
X87936916Y-113462314D01*
X88097434Y-113702546D01*
X93190448Y-118795560D01*
X93189957Y-119358402D01*
X93464894Y-120023802D01*
X93973541Y-120533337D01*
X94638459Y-120809435D01*
X95358422Y-120810063D01*
X96023822Y-120535126D01*
X96424647Y-120135000D01*
X98574618Y-120135000D01*
X98972261Y-120533337D01*
X99637179Y-120809435D01*
X100357142Y-120810063D01*
X101022542Y-120535126D01*
X101532077Y-120026479D01*
X101808175Y-119361561D01*
X101808177Y-119358402D01*
X108191197Y-119358402D01*
X108466134Y-120023802D01*
X108974781Y-120533337D01*
X109639699Y-120809435D01*
X110359662Y-120810063D01*
X111025062Y-120535126D01*
X111425887Y-120135000D01*
X113575858Y-120135000D01*
X113973501Y-120533337D01*
X114638419Y-120809435D01*
X115358382Y-120810063D01*
X116023782Y-120535126D01*
X116533317Y-120026479D01*
X116809415Y-119361561D01*
X116810043Y-118641598D01*
X116535106Y-117976198D01*
X116026459Y-117466663D01*
X115361541Y-117190565D01*
X114641578Y-117189937D01*
X113976178Y-117464874D01*
X113575353Y-117865000D01*
X111425382Y-117865000D01*
X111136260Y-117575373D01*
X111136260Y-112218872D01*
X111500711Y-111854421D01*
X111573459Y-111884628D01*
X112422815Y-111885370D01*
X113207800Y-111561020D01*
X113808909Y-110960959D01*
X114134628Y-110176541D01*
X114134631Y-110172815D01*
X114864630Y-110172815D01*
X115188980Y-110957800D01*
X115789041Y-111558909D01*
X116573459Y-111884628D01*
X117422815Y-111885370D01*
X118207800Y-111561020D01*
X118808909Y-110960959D01*
X119134628Y-110176541D01*
X119135370Y-109327185D01*
X118811020Y-108542200D01*
X118210959Y-107941091D01*
X117426541Y-107615372D01*
X116577185Y-107614630D01*
X115792200Y-107938980D01*
X115191091Y-108539041D01*
X114865372Y-109323459D01*
X114864630Y-110172815D01*
X114134631Y-110172815D01*
X114135370Y-109327185D01*
X113811020Y-108542200D01*
X113210959Y-107941091D01*
X112426541Y-107615372D01*
X111577185Y-107614630D01*
X110792200Y-107938980D01*
X110191091Y-108539041D01*
X109865372Y-109323459D01*
X109864630Y-110172815D01*
X109896039Y-110248829D01*
X109198694Y-110946174D01*
X108952657Y-111314394D01*
X108866260Y-111748740D01*
X108866260Y-117575878D01*
X108467923Y-117973521D01*
X108191825Y-118638439D01*
X108191197Y-119358402D01*
X101808177Y-119358402D01*
X101808803Y-118641598D01*
X101533866Y-117976198D01*
X101025219Y-117466663D01*
X100360301Y-117190565D01*
X99640338Y-117189937D01*
X98974938Y-117464874D01*
X98574113Y-117865000D01*
X96424142Y-117865000D01*
X96026499Y-117466663D01*
X95361581Y-117190565D01*
X94795223Y-117190071D01*
X90035000Y-112429848D01*
X90035000Y-112014000D01*
X89948603Y-111579654D01*
X89813488Y-111377440D01*
X89702566Y-111211433D01*
X87148566Y-108657434D01*
X87085059Y-108615000D01*
X86780346Y-108411397D01*
X86611409Y-108377793D01*
X86080505Y-107845961D01*
X85380590Y-107555332D01*
X84622735Y-107554670D01*
X83922314Y-107844078D01*
X83385961Y-108379495D01*
X83095332Y-109079410D01*
X83094670Y-109837265D01*
X80710000Y-109837265D01*
X80710000Y-97010090D01*
X81501400Y-97010090D01*
X81501400Y-97714250D01*
X81660150Y-97873000D01*
X82873000Y-97873000D01*
X82873000Y-96660150D01*
X82714250Y-96501400D01*
X82010091Y-96501400D01*
X81776702Y-96598073D01*
X81598073Y-96776701D01*
X81501400Y-97010090D01*
X80710000Y-97010090D01*
X80710000Y-91968172D01*
X80898538Y-91968172D01*
X81303709Y-92948761D01*
X82053293Y-93699655D01*
X83033173Y-94106536D01*
X84094172Y-94107462D01*
X85074761Y-93702291D01*
X85825655Y-92952707D01*
X86232536Y-91972827D01*
X86233135Y-91285750D01*
X88230000Y-91285750D01*
X88230000Y-92776310D01*
X88326673Y-93009699D01*
X88505302Y-93188327D01*
X88738691Y-93285000D01*
X89174250Y-93285000D01*
X89333000Y-93126250D01*
X89333000Y-91127000D01*
X88388750Y-91127000D01*
X88230000Y-91285750D01*
X86233135Y-91285750D01*
X86233462Y-90911828D01*
X85828291Y-89931239D01*
X85121977Y-89223690D01*
X88230000Y-89223690D01*
X88230000Y-90714250D01*
X88388750Y-90873000D01*
X89333000Y-90873000D01*
X89333000Y-88873750D01*
X89587000Y-88873750D01*
X89587000Y-90873000D01*
X90531250Y-90873000D01*
X90690000Y-90714250D01*
X90690000Y-89223690D01*
X90593327Y-88990301D01*
X90414698Y-88811673D01*
X90181309Y-88715000D01*
X89745750Y-88715000D01*
X89587000Y-88873750D01*
X89333000Y-88873750D01*
X89174250Y-88715000D01*
X88738691Y-88715000D01*
X88505302Y-88811673D01*
X88326673Y-88990301D01*
X88230000Y-89223690D01*
X85121977Y-89223690D01*
X85078707Y-89180345D01*
X84098827Y-88773464D01*
X83037828Y-88772538D01*
X82057239Y-89177709D01*
X81306345Y-89927293D01*
X80899464Y-90907173D01*
X80898538Y-91968172D01*
X80710000Y-91968172D01*
X80710000Y-88643730D01*
X80728295Y-88655954D01*
X81000000Y-88710000D01*
X93905460Y-88710000D01*
X93709683Y-88746838D01*
X93493559Y-88885910D01*
X93348569Y-89098110D01*
X93297560Y-89350000D01*
X93297560Y-90196910D01*
X93032210Y-90374210D01*
X93032208Y-90374213D01*
X90690000Y-92716420D01*
X90690000Y-91285750D01*
X90531250Y-91127000D01*
X89587000Y-91127000D01*
X89587000Y-93126250D01*
X89745750Y-93285000D01*
X90121420Y-93285000D01*
X90052210Y-93354210D01*
X89860367Y-93641325D01*
X89849190Y-93697516D01*
X89792999Y-93980000D01*
X89793000Y-93980005D01*
X89793000Y-95049421D01*
X87727420Y-97115000D01*
X86745740Y-97115000D01*
X86629029Y-96940330D01*
X86142848Y-96615474D01*
X85569359Y-96501400D01*
X85510641Y-96501400D01*
X84937152Y-96615474D01*
X84465644Y-96930526D01*
X84401927Y-96776701D01*
X84223298Y-96598073D01*
X83989909Y-96501400D01*
X83285750Y-96501400D01*
X83127000Y-96660150D01*
X83127000Y-97873000D01*
X83147000Y-97873000D01*
X83147000Y-98127000D01*
X83127000Y-98127000D01*
X83127000Y-98147000D01*
X82873000Y-98147000D01*
X82873000Y-98127000D01*
X81660150Y-98127000D01*
X81501400Y-98285750D01*
X81501400Y-98989910D01*
X81598073Y-99223299D01*
X81776702Y-99401927D01*
X81932023Y-99466263D01*
X81910971Y-99480330D01*
X81586115Y-99966511D01*
X81472041Y-100540000D01*
X81586115Y-101113489D01*
X81910971Y-101599670D01*
X82225752Y-101810000D01*
X81910971Y-102020330D01*
X81586115Y-102506511D01*
X81472041Y-103080000D01*
X81586115Y-103653489D01*
X81910971Y-104139670D01*
X82397152Y-104464526D01*
X82970641Y-104578600D01*
X83029359Y-104578600D01*
X83602848Y-104464526D01*
X84089029Y-104139670D01*
X84270000Y-103868828D01*
X84450971Y-104139670D01*
X84937152Y-104464526D01*
X85510641Y-104578600D01*
X85569359Y-104578600D01*
X86142848Y-104464526D01*
X86629029Y-104139670D01*
X86745740Y-103965000D01*
X87927995Y-103965000D01*
X87928000Y-103965001D01*
X88210484Y-103908810D01*
X88266675Y-103897633D01*
X88553790Y-103705790D01*
X89124579Y-103135000D01*
X90055601Y-103135000D01*
X90188980Y-103457800D01*
X90789041Y-104058909D01*
X90947626Y-104124759D01*
X90792200Y-104188980D01*
X90191091Y-104789041D01*
X89865372Y-105573459D01*
X89864630Y-106422815D01*
X90188980Y-107207800D01*
X90789041Y-107808909D01*
X90947626Y-107874759D01*
X90792200Y-107938980D01*
X90191091Y-108539041D01*
X89865372Y-109323459D01*
X89864630Y-110172815D01*
X90188980Y-110957800D01*
X90789041Y-111558909D01*
X91573459Y-111884628D01*
X92422815Y-111885370D01*
X93207800Y-111561020D01*
X93808909Y-110960959D01*
X94134628Y-110176541D01*
X94135370Y-109327185D01*
X93811020Y-108542200D01*
X93210959Y-107941091D01*
X93052374Y-107875241D01*
X93207800Y-107811020D01*
X93808909Y-107210959D01*
X94134628Y-106426541D01*
X94135370Y-105577185D01*
X93811020Y-104792200D01*
X93210959Y-104191091D01*
X93052374Y-104125241D01*
X93207800Y-104061020D01*
X93808909Y-103460959D01*
X94134628Y-102676541D01*
X94134741Y-102547167D01*
X97108838Y-102547167D01*
X97250883Y-102890943D01*
X97513673Y-103154192D01*
X97857201Y-103296838D01*
X98229167Y-103297162D01*
X98572943Y-103155117D01*
X98836192Y-102892327D01*
X98886566Y-102771014D01*
X98984764Y-102672815D01*
X109864630Y-102672815D01*
X110188980Y-103457800D01*
X110789041Y-104058909D01*
X111573459Y-104384628D01*
X112422815Y-104385370D01*
X113207800Y-104061020D01*
X113808909Y-103460959D01*
X114134628Y-102676541D01*
X114134631Y-102672815D01*
X114864630Y-102672815D01*
X115188980Y-103457800D01*
X115789041Y-104058909D01*
X116573459Y-104384628D01*
X117422815Y-104385370D01*
X118207800Y-104061020D01*
X118587175Y-103682307D01*
X119407434Y-104502566D01*
X119775655Y-104748604D01*
X120210000Y-104835000D01*
X122272069Y-104835000D01*
X122330910Y-104926441D01*
X122543110Y-105071431D01*
X122795000Y-105122440D01*
X123395000Y-105122440D01*
X123630317Y-105078162D01*
X123729528Y-105014322D01*
X123813110Y-105071431D01*
X124065000Y-105122440D01*
X124665000Y-105122440D01*
X124807415Y-105095643D01*
X124817367Y-105145675D01*
X124966447Y-105368790D01*
X125009210Y-105432790D01*
X125190644Y-105614224D01*
X124197434Y-106607434D01*
X123951397Y-106975654D01*
X123865000Y-107410000D01*
X123865000Y-107542560D01*
X123730000Y-107542560D01*
X123494683Y-107586838D01*
X123278559Y-107725910D01*
X123133569Y-107938110D01*
X123082560Y-108190000D01*
X123082560Y-110730000D01*
X123126838Y-110965317D01*
X123265910Y-111181441D01*
X123478110Y-111326431D01*
X123730000Y-111377440D01*
X126270000Y-111377440D01*
X126505317Y-111333162D01*
X126721441Y-111194090D01*
X126866431Y-110981890D01*
X126917440Y-110730000D01*
X126917440Y-108190000D01*
X126873162Y-107954683D01*
X126734090Y-107738559D01*
X126521890Y-107593569D01*
X126438458Y-107576674D01*
X127040566Y-106974566D01*
X127286603Y-106606346D01*
X127372999Y-106172000D01*
X127286603Y-105737655D01*
X127236664Y-105662916D01*
X127530787Y-105368792D01*
X127530790Y-105368790D01*
X127722633Y-105081675D01*
X127750995Y-104939090D01*
X127789827Y-104743872D01*
X127801431Y-104726890D01*
X127852440Y-104475000D01*
X127852440Y-102925000D01*
X127808162Y-102689683D01*
X127669090Y-102473559D01*
X127456890Y-102328569D01*
X127205000Y-102277560D01*
X126605000Y-102277560D01*
X126369683Y-102321838D01*
X126270472Y-102385678D01*
X126186890Y-102328569D01*
X125935000Y-102277560D01*
X125335000Y-102277560D01*
X125099683Y-102321838D01*
X125000472Y-102385678D01*
X124916890Y-102328569D01*
X124665000Y-102277560D01*
X124065000Y-102277560D01*
X123829683Y-102321838D01*
X123730472Y-102385678D01*
X123646890Y-102328569D01*
X123395000Y-102277560D01*
X122795000Y-102277560D01*
X122559683Y-102321838D01*
X122343559Y-102460910D01*
X122272437Y-102565000D01*
X120680132Y-102565000D01*
X119562566Y-101447434D01*
X119439193Y-101364999D01*
X119194346Y-101201397D01*
X118848363Y-101132577D01*
X118811020Y-101042200D01*
X118210959Y-100441091D01*
X117426541Y-100115372D01*
X116577185Y-100114630D01*
X115792200Y-100438980D01*
X115191091Y-101039041D01*
X114865372Y-101823459D01*
X114864630Y-102672815D01*
X114134631Y-102672815D01*
X114135370Y-101827185D01*
X113811020Y-101042200D01*
X113210959Y-100441091D01*
X112426541Y-100115372D01*
X111577185Y-100114630D01*
X110792200Y-100438980D01*
X110191091Y-101039041D01*
X109865372Y-101823459D01*
X109864630Y-102672815D01*
X98984764Y-102672815D01*
X101477000Y-100180579D01*
X101477000Y-100277178D01*
X101427162Y-100397201D01*
X101426838Y-100769167D01*
X101568883Y-101112943D01*
X101831673Y-101376192D01*
X102175201Y-101518838D01*
X102547167Y-101519162D01*
X102890943Y-101377117D01*
X103154192Y-101114327D01*
X103296838Y-100770799D01*
X103297162Y-100398833D01*
X103247000Y-100277431D01*
X103247000Y-96886580D01*
X103248579Y-96885000D01*
X104787153Y-96885000D01*
X104803538Y-96924655D01*
X105262927Y-97384846D01*
X105414549Y-97447805D01*
X105513516Y-97595921D01*
X105564210Y-97671790D01*
X106562208Y-98669787D01*
X106562210Y-98669790D01*
X106799479Y-98828327D01*
X106849325Y-98861633D01*
X107188000Y-98929001D01*
X107188005Y-98929000D01*
X114299995Y-98929000D01*
X114300000Y-98929001D01*
X114582484Y-98872810D01*
X114638675Y-98861633D01*
X114925790Y-98669790D01*
X114925791Y-98669789D01*
X115726787Y-97868792D01*
X115726790Y-97868790D01*
X115918633Y-97581675D01*
X115944640Y-97450931D01*
X115986001Y-97243000D01*
X115986000Y-97242995D01*
X115986000Y-96498302D01*
X115992431Y-96488890D01*
X116043440Y-96237000D01*
X116043440Y-95787000D01*
X115999162Y-95551683D01*
X115860090Y-95335559D01*
X115712917Y-95235000D01*
X117727962Y-95235000D01*
X117746838Y-95335317D01*
X117885910Y-95551441D01*
X118098110Y-95696431D01*
X118129062Y-95702699D01*
X118167157Y-95894210D01*
X118182367Y-95970675D01*
X118266557Y-96096675D01*
X118374210Y-96257790D01*
X119262208Y-97145787D01*
X119262210Y-97145790D01*
X119549325Y-97337633D01*
X119605516Y-97348810D01*
X119888000Y-97405001D01*
X119888005Y-97405000D01*
X121378793Y-97405000D01*
X121137057Y-97504883D01*
X120873808Y-97767673D01*
X120731162Y-98111201D01*
X120730838Y-98483167D01*
X120872883Y-98826943D01*
X121135673Y-99090192D01*
X121479201Y-99232838D01*
X121851167Y-99233162D01*
X121967728Y-99185000D01*
X122168258Y-99185000D01*
X122191838Y-99310317D01*
X122330910Y-99526441D01*
X122543110Y-99671431D01*
X122795000Y-99722440D01*
X123395000Y-99722440D01*
X123630317Y-99678162D01*
X123729528Y-99614322D01*
X123813110Y-99671431D01*
X124065000Y-99722440D01*
X124665000Y-99722440D01*
X124900317Y-99678162D01*
X124999528Y-99614322D01*
X125083110Y-99671431D01*
X125335000Y-99722440D01*
X125935000Y-99722440D01*
X126170317Y-99678162D01*
X126260980Y-99619822D01*
X126478690Y-99710000D01*
X126619250Y-99710000D01*
X126778000Y-99551250D01*
X126778000Y-98427000D01*
X127032000Y-98427000D01*
X127032000Y-99551250D01*
X127190750Y-99710000D01*
X127331310Y-99710000D01*
X127564699Y-99613327D01*
X127743327Y-99434698D01*
X127840000Y-99201309D01*
X127840000Y-98585750D01*
X127681250Y-98427000D01*
X127032000Y-98427000D01*
X126778000Y-98427000D01*
X126758000Y-98427000D01*
X126758000Y-98173000D01*
X126778000Y-98173000D01*
X126778000Y-97048750D01*
X127032000Y-97048750D01*
X127032000Y-98173000D01*
X127681250Y-98173000D01*
X127840000Y-98014250D01*
X127840000Y-97398691D01*
X127743327Y-97165302D01*
X127564699Y-96986673D01*
X127331310Y-96890000D01*
X127190750Y-96890000D01*
X127032000Y-97048750D01*
X126778000Y-97048750D01*
X126619250Y-96890000D01*
X126511448Y-96890000D01*
X126456840Y-96615474D01*
X126452633Y-96594325D01*
X126260790Y-96307210D01*
X126260787Y-96307208D01*
X125085790Y-95132210D01*
X124997066Y-95072927D01*
X124798675Y-94940367D01*
X124742484Y-94929190D01*
X124460000Y-94872999D01*
X124459995Y-94873000D01*
X122272440Y-94873000D01*
X122272440Y-93500000D01*
X122228162Y-93264683D01*
X122089090Y-93048559D01*
X122020994Y-93002031D01*
X122163327Y-92859698D01*
X122260000Y-92626309D01*
X122260000Y-92035750D01*
X122192422Y-91968172D01*
X123824538Y-91968172D01*
X124229709Y-92948761D01*
X124979293Y-93699655D01*
X125959173Y-94106536D01*
X127020172Y-94107462D01*
X128000761Y-93702291D01*
X128751655Y-92952707D01*
X129158536Y-91972827D01*
X129159462Y-90911828D01*
X128754291Y-89931239D01*
X128004707Y-89180345D01*
X127024827Y-88773464D01*
X125963828Y-88772538D01*
X124983239Y-89177709D01*
X124232345Y-89927293D01*
X123825464Y-90907173D01*
X123824538Y-91968172D01*
X122192422Y-91968172D01*
X122101250Y-91877000D01*
X121127000Y-91877000D01*
X121127000Y-91897000D01*
X120873000Y-91897000D01*
X120873000Y-91877000D01*
X120853000Y-91877000D01*
X120853000Y-91623000D01*
X120873000Y-91623000D01*
X120873000Y-90523750D01*
X121127000Y-90523750D01*
X121127000Y-91623000D01*
X122101250Y-91623000D01*
X122260000Y-91464250D01*
X122260000Y-90873691D01*
X122163327Y-90640302D01*
X121984699Y-90461673D01*
X121751310Y-90365000D01*
X121285750Y-90365000D01*
X121127000Y-90523750D01*
X120873000Y-90523750D01*
X120714250Y-90365000D01*
X120248690Y-90365000D01*
X120088754Y-90431248D01*
X119901890Y-90303569D01*
X119650000Y-90252560D01*
X118350000Y-90252560D01*
X118114683Y-90296838D01*
X117898559Y-90435910D01*
X117753569Y-90648110D01*
X117729898Y-90765000D01*
X117040858Y-90765000D01*
X117026799Y-90759162D01*
X116654833Y-90758838D01*
X116311057Y-90900883D01*
X116047808Y-91163673D01*
X115905162Y-91507201D01*
X115904838Y-91879167D01*
X116046883Y-92222943D01*
X116309673Y-92486192D01*
X116653201Y-92628838D01*
X117025167Y-92629162D01*
X117253057Y-92535000D01*
X117727962Y-92535000D01*
X117746838Y-92635317D01*
X117885910Y-92851441D01*
X118098110Y-92996431D01*
X118111197Y-92999081D01*
X117898559Y-93135910D01*
X117753569Y-93348110D01*
X117729898Y-93465000D01*
X115544579Y-93465000D01*
X114885000Y-92805420D01*
X114885000Y-92765040D01*
X115117600Y-92765040D01*
X115352917Y-92720762D01*
X115569041Y-92581690D01*
X115714031Y-92369490D01*
X115765040Y-92117600D01*
X115765040Y-89882400D01*
X115720762Y-89647083D01*
X115581690Y-89430959D01*
X115369490Y-89285969D01*
X115117600Y-89234960D01*
X112882400Y-89234960D01*
X112647083Y-89279238D01*
X112430959Y-89418310D01*
X112285969Y-89630510D01*
X112234960Y-89882400D01*
X112234960Y-92117600D01*
X112279238Y-92352917D01*
X112418310Y-92569041D01*
X112630510Y-92714031D01*
X112882400Y-92765040D01*
X113115000Y-92765040D01*
X113115000Y-93171995D01*
X113114999Y-93172000D01*
X113151244Y-93354210D01*
X113182367Y-93510675D01*
X113371144Y-93793201D01*
X113374210Y-93797790D01*
X114552208Y-94975787D01*
X114552210Y-94975790D01*
X114744054Y-95103975D01*
X114799220Y-95140836D01*
X114570683Y-95183838D01*
X114354559Y-95322910D01*
X114209569Y-95535110D01*
X114158560Y-95787000D01*
X114158560Y-96237000D01*
X114202838Y-96472317D01*
X114216000Y-96492771D01*
X114216000Y-96876421D01*
X113933420Y-97159000D01*
X111614628Y-97159000D01*
X111646930Y-96999490D01*
X111646930Y-96897000D01*
X112991000Y-96897000D01*
X113054143Y-96884440D01*
X113286000Y-96884440D01*
X113521317Y-96840162D01*
X113737441Y-96701090D01*
X113882431Y-96488890D01*
X113933440Y-96237000D01*
X113933440Y-95787000D01*
X113889162Y-95551683D01*
X113750090Y-95335559D01*
X113537890Y-95190569D01*
X113286000Y-95139560D01*
X113054143Y-95139560D01*
X112991000Y-95127000D01*
X111646930Y-95127000D01*
X111646930Y-95000510D01*
X111602652Y-94765193D01*
X111463580Y-94549069D01*
X111251380Y-94404079D01*
X110999490Y-94353070D01*
X110885000Y-94353070D01*
X110885000Y-92765040D01*
X111117600Y-92765040D01*
X111352917Y-92720762D01*
X111569041Y-92581690D01*
X111714031Y-92369490D01*
X111765040Y-92117600D01*
X111765040Y-89882400D01*
X111720762Y-89647083D01*
X111581690Y-89430959D01*
X111369490Y-89285969D01*
X111117600Y-89234960D01*
X108882400Y-89234960D01*
X108647083Y-89279238D01*
X108430959Y-89418310D01*
X108285969Y-89630510D01*
X108234960Y-89882400D01*
X108234960Y-92117600D01*
X108279238Y-92352917D01*
X108418310Y-92569041D01*
X108630510Y-92714031D01*
X108882400Y-92765040D01*
X109115000Y-92765040D01*
X109115000Y-93045129D01*
X108780833Y-93044838D01*
X108659431Y-93095000D01*
X103632005Y-93095000D01*
X103632000Y-93094999D01*
X103293325Y-93162367D01*
X103006210Y-93354210D01*
X103006208Y-93354213D01*
X100720210Y-95640210D01*
X100528367Y-95927325D01*
X100528367Y-95927326D01*
X100460999Y-96266000D01*
X100461000Y-96266005D01*
X100461000Y-98693421D01*
X97635164Y-101519256D01*
X97515057Y-101568883D01*
X97251808Y-101831673D01*
X97109162Y-102175201D01*
X97108838Y-102547167D01*
X94134741Y-102547167D01*
X94135370Y-101827185D01*
X93811020Y-101042200D01*
X93210959Y-100441091D01*
X92426541Y-100115372D01*
X91577185Y-100114630D01*
X90792200Y-100438980D01*
X90191091Y-101039041D01*
X90055741Y-101365000D01*
X88758005Y-101365000D01*
X88758000Y-101364999D01*
X88447121Y-101426838D01*
X88419325Y-101432367D01*
X88132210Y-101624210D01*
X88132208Y-101624213D01*
X87561420Y-102195000D01*
X86745740Y-102195000D01*
X86629029Y-102020330D01*
X86314248Y-101810000D01*
X86629029Y-101599670D01*
X86953885Y-101113489D01*
X87067959Y-100540000D01*
X86953885Y-99966511D01*
X86629029Y-99480330D01*
X86314248Y-99270000D01*
X86629029Y-99059670D01*
X86745740Y-98885000D01*
X88093995Y-98885000D01*
X88094000Y-98885001D01*
X88385871Y-98826943D01*
X88432675Y-98817633D01*
X88719790Y-98625790D01*
X90757560Y-96588019D01*
X90757560Y-98746000D01*
X90801838Y-98981317D01*
X90940910Y-99197441D01*
X91153110Y-99342431D01*
X91405000Y-99393440D01*
X92595000Y-99393440D01*
X92830317Y-99349162D01*
X93046441Y-99210090D01*
X93191431Y-98997890D01*
X93242440Y-98746000D01*
X93242440Y-97981000D01*
X97721995Y-97981000D01*
X97722000Y-97981001D01*
X98004484Y-97924810D01*
X98060675Y-97913633D01*
X98347790Y-97721790D01*
X99685787Y-96383792D01*
X99685790Y-96383790D01*
X99877633Y-96096675D01*
X99896863Y-96000000D01*
X99945001Y-95758000D01*
X99945000Y-95757995D01*
X99945000Y-93713040D01*
X100177600Y-93713040D01*
X100412917Y-93668762D01*
X100629041Y-93529690D01*
X100774031Y-93317490D01*
X100825040Y-93065600D01*
X100825040Y-90830400D01*
X100780762Y-90595083D01*
X100641690Y-90378959D01*
X100429490Y-90233969D01*
X100177600Y-90182960D01*
X97942400Y-90182960D01*
X97707083Y-90227238D01*
X97490959Y-90366310D01*
X97345969Y-90578510D01*
X97294960Y-90830400D01*
X97294960Y-93065600D01*
X97339238Y-93300917D01*
X97478310Y-93517041D01*
X97690510Y-93662031D01*
X97942400Y-93713040D01*
X98175000Y-93713040D01*
X98175000Y-95391421D01*
X97355420Y-96211000D01*
X93242440Y-96211000D01*
X93242440Y-95446000D01*
X93198162Y-95210683D01*
X93059090Y-94994559D01*
X92846890Y-94849569D01*
X92595000Y-94798560D01*
X91563000Y-94798560D01*
X91563000Y-94346580D01*
X93297560Y-92612019D01*
X93297560Y-92650000D01*
X93341838Y-92885317D01*
X93480910Y-93101441D01*
X93693110Y-93246431D01*
X93945000Y-93297440D01*
X95135000Y-93297440D01*
X95370317Y-93253162D01*
X95586441Y-93114090D01*
X95731431Y-92901890D01*
X95782440Y-92650000D01*
X95782440Y-89350000D01*
X95738162Y-89114683D01*
X95599090Y-88898559D01*
X95386890Y-88753569D01*
X95171740Y-88710000D01*
X129000000Y-88710000D01*
X129271705Y-88655954D01*
X129290000Y-88643730D01*
X129290000Y-124290000D01*
M02*
