%TF.GenerationSoftware,KiCad,Pcbnew,0.201512281231+6406~40~ubuntu14.04.1-stable*%
%TF.CreationDate,2016-01-03T22:13:40+01:00*%
%TF.ProjectId,hv,68762E6B696361645F70636200000000,rev?*%
%TF.FileFunction,Soldermask,Top*%
%FSLAX46Y46*%
G04 Gerber Fmt 4.6, Leading zero omitted, Abs format (unit mm)*
G04 Created by KiCad (PCBNEW 0.201512281231+6406~40~ubuntu14.04.1-stable) date Son 03 Jan 2016 22:13:40 CET*
%MOMM*%
G01*
G04 APERTURE LIST*
%ADD10C,0.200000*%
%ADD11R,0.990000X0.850000*%
%ADD12C,2.749500*%
%ADD13R,2.127200X2.127200*%
%ADD14O,2.127200X2.127200*%
%ADD15R,2.635200X2.635200*%
%ADD16R,2.940000X2.940000*%
%ADD17C,2.940000*%
%ADD18C,3.400000*%
%ADD19R,3.700000X1.590000*%
%ADD20R,1.000000X1.950000*%
%ADD21C,2.900000*%
%ADD22C,2.398980*%
%ADD23R,2.398980X2.398980*%
%ADD24R,1.100000X1.700000*%
%ADD25C,2.200000*%
%ADD26R,1.650000X1.400000*%
%ADD27C,1.797000*%
%ADD28R,2.000000X1.100000*%
%ADD29R,2.432000X2.127200*%
%ADD30O,2.432000X2.127200*%
%ADD31R,2.127200X2.432000*%
%ADD32O,2.127200X2.432000*%
%ADD33R,2.432000X2.432000*%
%ADD34O,2.432000X2.432000*%
%ADD35R,1.000000X1.300000*%
%ADD36C,0.254000*%
G04 APERTURE END LIST*
D10*
D11*
X165061000Y-84328000D03*
X167171000Y-84328000D03*
D12*
X174998740Y-110000000D03*
X170000020Y-110000000D03*
X185001260Y-110000000D03*
X189999980Y-110000000D03*
D13*
X157480000Y-82042000D03*
D14*
X160020000Y-82042000D03*
X157480000Y-84582000D03*
X160020000Y-84582000D03*
X157480000Y-87122000D03*
X160020000Y-87122000D03*
D15*
X168148000Y-67310000D03*
X172466000Y-67310000D03*
X163830000Y-67310000D03*
D16*
X200000000Y-98460000D03*
D17*
X200000000Y-103540000D03*
D18*
X168000000Y-91250000D03*
X168000000Y-95000000D03*
X168000000Y-98750000D03*
X188000000Y-91250000D03*
X188000000Y-98750000D03*
X193000000Y-91250000D03*
X193000000Y-98750000D03*
D19*
X161290000Y-72644000D03*
X167386000Y-75184000D03*
X161290000Y-77724000D03*
D20*
X197595000Y-91200000D03*
X198865000Y-91200000D03*
X200135000Y-91200000D03*
X201405000Y-91200000D03*
X201405000Y-85800000D03*
X200135000Y-85800000D03*
X198865000Y-85800000D03*
X197595000Y-85800000D03*
D21*
X158000000Y-112000000D03*
X158000000Y-68000000D03*
X202000000Y-68000000D03*
X202000000Y-112000000D03*
D22*
X169926000Y-81280000D03*
D23*
X166116000Y-81280000D03*
D16*
X160000000Y-104080000D03*
D17*
X160000000Y-99000000D03*
X160000000Y-93920000D03*
D24*
X180152000Y-86106000D03*
X182052000Y-86106000D03*
D25*
X193000000Y-104500000D03*
X185500000Y-103100000D03*
D26*
X157480000Y-73676000D03*
X157480000Y-75676000D03*
D15*
X179832000Y-103632000D03*
D27*
X176530000Y-72390000D03*
X176530000Y-67310000D03*
X184150000Y-72390000D03*
X184150000Y-67310000D03*
X176530000Y-80772000D03*
X176530000Y-75692000D03*
X184150000Y-80772000D03*
X184150000Y-75692000D03*
D28*
X191845000Y-74930000D03*
X191845000Y-76200000D03*
X191845000Y-77470000D03*
X191845000Y-78740000D03*
X198045000Y-78740000D03*
X198045000Y-77470000D03*
X198045000Y-76200000D03*
X198045000Y-74930000D03*
D29*
X187960000Y-73660000D03*
D30*
X187960000Y-76200000D03*
X187960000Y-78740000D03*
X187960000Y-81280000D03*
D29*
X201930000Y-81280000D03*
D30*
X201930000Y-78740000D03*
X201930000Y-76200000D03*
X201930000Y-73660000D03*
D31*
X192405000Y-71755000D03*
D32*
X194945000Y-71755000D03*
X197485000Y-71755000D03*
D33*
X196215000Y-81915000D03*
D34*
X193675000Y-81915000D03*
D31*
X187325000Y-67310000D03*
D32*
X189865000Y-67310000D03*
X192405000Y-67310000D03*
D35*
X196215000Y-66545000D03*
X197165000Y-69345000D03*
X195265000Y-69345000D03*
D36*
G36*
X199123000Y-91623000D02*
X194377000Y-91623000D01*
X194377000Y-90877000D01*
X199123000Y-90877000D01*
X199123000Y-91623000D01*
X199123000Y-91623000D01*
G37*
X199123000Y-91623000D02*
X194377000Y-91623000D01*
X194377000Y-90877000D01*
X199123000Y-90877000D01*
X199123000Y-91623000D01*
G36*
X201623000Y-93447394D02*
X200410197Y-94660197D01*
X200382334Y-94702211D01*
X200373000Y-94750000D01*
X200373000Y-97123000D01*
X199627000Y-97123000D01*
X199627000Y-94302606D01*
X200339803Y-93589803D01*
X200367666Y-93547789D01*
X200377000Y-93500000D01*
X200377000Y-93250000D01*
X200366994Y-93200590D01*
X200339803Y-93160197D01*
X199877000Y-92697394D01*
X199877000Y-92127000D01*
X201623000Y-92127000D01*
X201623000Y-93447394D01*
X201623000Y-93447394D01*
G37*
X201623000Y-93447394D02*
X200410197Y-94660197D01*
X200382334Y-94702211D01*
X200373000Y-94750000D01*
X200373000Y-97123000D01*
X199627000Y-97123000D01*
X199627000Y-94302606D01*
X200339803Y-93589803D01*
X200367666Y-93547789D01*
X200377000Y-93500000D01*
X200377000Y-93250000D01*
X200366994Y-93200590D01*
X200339803Y-93160197D01*
X199877000Y-92697394D01*
X199877000Y-92127000D01*
X201623000Y-92127000D01*
X201623000Y-93447394D01*
M02*
