%TF.GenerationSoftware,KiCad,Pcbnew,0.201512281231+6406~40~ubuntu14.04.1-stable*%
%TF.CreationDate,2016-01-03T22:13:40+01:00*%
%TF.ProjectId,hv,68762E6B696361645F70636200000000,rev?*%
%TF.FileFunction,Legend,Top*%
%FSLAX46Y46*%
G04 Gerber Fmt 4.6, Leading zero omitted, Abs format (unit mm)*
G04 Created by KiCad (PCBNEW 0.201512281231+6406~40~ubuntu14.04.1-stable) date Son 03 Jan 2016 22:13:40 CET*
%MOMM*%
G01*
G04 APERTURE LIST*
%ADD10C,0.200000*%
%ADD11C,0.250000*%
%ADD12C,0.150000*%
G04 APERTURE END LIST*
D10*
D11*
X164322095Y-102021714D02*
X164322095Y-102688381D01*
X164322095Y-102116952D02*
X164369714Y-102069333D01*
X164464952Y-102021714D01*
X164607810Y-102021714D01*
X164703048Y-102069333D01*
X164750667Y-102164571D01*
X164750667Y-102688381D01*
X165369714Y-102688381D02*
X165274476Y-102640762D01*
X165226857Y-102593143D01*
X165179238Y-102497905D01*
X165179238Y-102212190D01*
X165226857Y-102116952D01*
X165274476Y-102069333D01*
X165369714Y-102021714D01*
X165512572Y-102021714D01*
X165607810Y-102069333D01*
X165655429Y-102116952D01*
X165703048Y-102212190D01*
X165703048Y-102497905D01*
X165655429Y-102593143D01*
X165607810Y-102640762D01*
X165512572Y-102688381D01*
X165369714Y-102688381D01*
X166560191Y-102688381D02*
X166560191Y-101688381D01*
X166560191Y-102640762D02*
X166464953Y-102688381D01*
X166274476Y-102688381D01*
X166179238Y-102640762D01*
X166131619Y-102593143D01*
X166084000Y-102497905D01*
X166084000Y-102212190D01*
X166131619Y-102116952D01*
X166179238Y-102069333D01*
X166274476Y-102021714D01*
X166464953Y-102021714D01*
X166560191Y-102069333D01*
X167464953Y-102021714D02*
X167464953Y-102688381D01*
X167036381Y-102021714D02*
X167036381Y-102545524D01*
X167084000Y-102640762D01*
X167179238Y-102688381D01*
X167322096Y-102688381D01*
X167417334Y-102640762D01*
X167464953Y-102593143D01*
X168084000Y-102688381D02*
X167988762Y-102640762D01*
X167941143Y-102545524D01*
X167941143Y-101688381D01*
X168845906Y-102640762D02*
X168750668Y-102688381D01*
X168560191Y-102688381D01*
X168464953Y-102640762D01*
X168417334Y-102545524D01*
X168417334Y-102164571D01*
X168464953Y-102069333D01*
X168560191Y-102021714D01*
X168750668Y-102021714D01*
X168845906Y-102069333D01*
X168893525Y-102164571D01*
X168893525Y-102259810D01*
X168417334Y-102355048D01*
X170084001Y-102688381D02*
X170084001Y-101688381D01*
X170512573Y-102688381D02*
X170512573Y-102164571D01*
X170464954Y-102069333D01*
X170369716Y-102021714D01*
X170226858Y-102021714D01*
X170131620Y-102069333D01*
X170084001Y-102116952D01*
X170893525Y-102021714D02*
X171131620Y-102688381D01*
X171369716Y-102021714D01*
X171798287Y-102640762D02*
X171798287Y-102688381D01*
X171750668Y-102783619D01*
X171703049Y-102831238D01*
X172893525Y-102021714D02*
X173131620Y-102688381D01*
X173369716Y-102021714D01*
X173941144Y-101688381D02*
X174036383Y-101688381D01*
X174131621Y-101736000D01*
X174179240Y-101783619D01*
X174226859Y-101878857D01*
X174274478Y-102069333D01*
X174274478Y-102307429D01*
X174226859Y-102497905D01*
X174179240Y-102593143D01*
X174131621Y-102640762D01*
X174036383Y-102688381D01*
X173941144Y-102688381D01*
X173845906Y-102640762D01*
X173798287Y-102593143D01*
X173750668Y-102497905D01*
X173703049Y-102307429D01*
X173703049Y-102069333D01*
X173750668Y-101878857D01*
X173798287Y-101783619D01*
X173845906Y-101736000D01*
X173941144Y-101688381D01*
X174703049Y-102593143D02*
X174750668Y-102640762D01*
X174703049Y-102688381D01*
X174655430Y-102640762D01*
X174703049Y-102593143D01*
X174703049Y-102688381D01*
X175703049Y-102688381D02*
X175131620Y-102688381D01*
X175417334Y-102688381D02*
X175417334Y-101688381D01*
X175322096Y-101831238D01*
X175226858Y-101926476D01*
X175131620Y-101974095D01*
X164274476Y-103433619D02*
X164322095Y-103386000D01*
X164417333Y-103338381D01*
X164655429Y-103338381D01*
X164750667Y-103386000D01*
X164798286Y-103433619D01*
X164845905Y-103528857D01*
X164845905Y-103624095D01*
X164798286Y-103766952D01*
X164226857Y-104338381D01*
X164845905Y-104338381D01*
X165464952Y-103338381D02*
X165560191Y-103338381D01*
X165655429Y-103386000D01*
X165703048Y-103433619D01*
X165750667Y-103528857D01*
X165798286Y-103719333D01*
X165798286Y-103957429D01*
X165750667Y-104147905D01*
X165703048Y-104243143D01*
X165655429Y-104290762D01*
X165560191Y-104338381D01*
X165464952Y-104338381D01*
X165369714Y-104290762D01*
X165322095Y-104243143D01*
X165274476Y-104147905D01*
X165226857Y-103957429D01*
X165226857Y-103719333D01*
X165274476Y-103528857D01*
X165322095Y-103433619D01*
X165369714Y-103386000D01*
X165464952Y-103338381D01*
X166750667Y-104338381D02*
X166179238Y-104338381D01*
X166464952Y-104338381D02*
X166464952Y-103338381D01*
X166369714Y-103481238D01*
X166274476Y-103576476D01*
X166179238Y-103624095D01*
X167655429Y-103338381D02*
X167179238Y-103338381D01*
X167131619Y-103814571D01*
X167179238Y-103766952D01*
X167274476Y-103719333D01*
X167512572Y-103719333D01*
X167607810Y-103766952D01*
X167655429Y-103814571D01*
X167703048Y-103909810D01*
X167703048Y-104147905D01*
X167655429Y-104243143D01*
X167607810Y-104290762D01*
X167512572Y-104338381D01*
X167274476Y-104338381D01*
X167179238Y-104290762D01*
X167131619Y-104243143D01*
X168179238Y-104290762D02*
X168179238Y-104338381D01*
X168131619Y-104433619D01*
X168084000Y-104481238D01*
X169322095Y-104290762D02*
X169417333Y-104338381D01*
X169607809Y-104338381D01*
X169703048Y-104290762D01*
X169750667Y-104195524D01*
X169750667Y-104147905D01*
X169703048Y-104052667D01*
X169607809Y-104005048D01*
X169464952Y-104005048D01*
X169369714Y-103957429D01*
X169322095Y-103862190D01*
X169322095Y-103814571D01*
X169369714Y-103719333D01*
X169464952Y-103671714D01*
X169607809Y-103671714D01*
X169703048Y-103719333D01*
X170607810Y-104290762D02*
X170512572Y-104338381D01*
X170322095Y-104338381D01*
X170226857Y-104290762D01*
X170179238Y-104243143D01*
X170131619Y-104147905D01*
X170131619Y-103862190D01*
X170179238Y-103766952D01*
X170226857Y-103719333D01*
X170322095Y-103671714D01*
X170512572Y-103671714D01*
X170607810Y-103719333D01*
X171036381Y-104338381D02*
X171036381Y-103338381D01*
X171464953Y-104338381D02*
X171464953Y-103814571D01*
X171417334Y-103719333D01*
X171322096Y-103671714D01*
X171179238Y-103671714D01*
X171084000Y-103719333D01*
X171036381Y-103766952D01*
X171941143Y-104338381D02*
X171941143Y-103671714D01*
X171941143Y-103862190D02*
X171988762Y-103766952D01*
X172036381Y-103719333D01*
X172131619Y-103671714D01*
X172226858Y-103671714D01*
X172703048Y-104338381D02*
X172607810Y-104290762D01*
X172560191Y-104243143D01*
X172512572Y-104147905D01*
X172512572Y-103862190D01*
X172560191Y-103766952D01*
X172607810Y-103719333D01*
X172703048Y-103671714D01*
X172845906Y-103671714D01*
X172941144Y-103719333D01*
X172988763Y-103766952D01*
X173036382Y-103862190D01*
X173036382Y-104147905D01*
X172988763Y-104243143D01*
X172941144Y-104290762D01*
X172845906Y-104338381D01*
X172703048Y-104338381D01*
X173845906Y-104290762D02*
X173750668Y-104338381D01*
X173560191Y-104338381D01*
X173464953Y-104290762D01*
X173417334Y-104195524D01*
X173417334Y-103814571D01*
X173464953Y-103719333D01*
X173560191Y-103671714D01*
X173750668Y-103671714D01*
X173845906Y-103719333D01*
X173893525Y-103814571D01*
X173893525Y-103909810D01*
X173417334Y-104005048D01*
X174750668Y-104338381D02*
X174750668Y-103338381D01*
X174750668Y-104290762D02*
X174655430Y-104338381D01*
X174464953Y-104338381D01*
X174369715Y-104290762D01*
X174322096Y-104243143D01*
X174274477Y-104147905D01*
X174274477Y-103862190D01*
X174322096Y-103766952D01*
X174369715Y-103719333D01*
X174464953Y-103671714D01*
X174655430Y-103671714D01*
X174750668Y-103719333D01*
X175226858Y-104338381D02*
X175226858Y-103671714D01*
X175226858Y-103338381D02*
X175179239Y-103386000D01*
X175226858Y-103433619D01*
X175274477Y-103386000D01*
X175226858Y-103338381D01*
X175226858Y-103433619D01*
X175703048Y-103671714D02*
X175703048Y-104338381D01*
X175703048Y-103766952D02*
X175750667Y-103719333D01*
X175845905Y-103671714D01*
X175988763Y-103671714D01*
X176084001Y-103719333D01*
X176131620Y-103814571D01*
X176131620Y-104338381D01*
X176607810Y-103957429D02*
X177369715Y-103957429D01*
X164750667Y-105321714D02*
X164750667Y-106131238D01*
X164703048Y-106226476D01*
X164655429Y-106274095D01*
X164560190Y-106321714D01*
X164417333Y-106321714D01*
X164322095Y-106274095D01*
X164750667Y-105940762D02*
X164655429Y-105988381D01*
X164464952Y-105988381D01*
X164369714Y-105940762D01*
X164322095Y-105893143D01*
X164274476Y-105797905D01*
X164274476Y-105512190D01*
X164322095Y-105416952D01*
X164369714Y-105369333D01*
X164464952Y-105321714D01*
X164655429Y-105321714D01*
X164750667Y-105369333D01*
X165607810Y-105940762D02*
X165512572Y-105988381D01*
X165322095Y-105988381D01*
X165226857Y-105940762D01*
X165179238Y-105845524D01*
X165179238Y-105464571D01*
X165226857Y-105369333D01*
X165322095Y-105321714D01*
X165512572Y-105321714D01*
X165607810Y-105369333D01*
X165655429Y-105464571D01*
X165655429Y-105559810D01*
X165179238Y-105655048D01*
X166084000Y-105988381D02*
X166084000Y-105321714D01*
X166084000Y-105512190D02*
X166131619Y-105416952D01*
X166179238Y-105369333D01*
X166274476Y-105321714D01*
X166369715Y-105321714D01*
X166655429Y-105940762D02*
X166750667Y-105988381D01*
X166941143Y-105988381D01*
X167036382Y-105940762D01*
X167084001Y-105845524D01*
X167084001Y-105797905D01*
X167036382Y-105702667D01*
X166941143Y-105655048D01*
X166798286Y-105655048D01*
X166703048Y-105607429D01*
X166655429Y-105512190D01*
X166655429Y-105464571D01*
X166703048Y-105369333D01*
X166798286Y-105321714D01*
X166941143Y-105321714D01*
X167036382Y-105369333D01*
X167512572Y-105988381D02*
X167512572Y-104988381D01*
X167607810Y-105607429D02*
X167893525Y-105988381D01*
X167893525Y-105321714D02*
X167512572Y-105702667D01*
X168322096Y-105988381D02*
X168322096Y-105321714D01*
X168322096Y-104988381D02*
X168274477Y-105036000D01*
X168322096Y-105083619D01*
X168369715Y-105036000D01*
X168322096Y-104988381D01*
X168322096Y-105083619D01*
X168655429Y-105321714D02*
X169036381Y-105321714D01*
X168798286Y-104988381D02*
X168798286Y-105845524D01*
X168845905Y-105940762D01*
X168941143Y-105988381D01*
X169036381Y-105988381D01*
X169226858Y-105321714D02*
X169607810Y-105321714D01*
X169369715Y-104988381D02*
X169369715Y-105845524D01*
X169417334Y-105940762D01*
X169512572Y-105988381D01*
X169607810Y-105988381D01*
X170322097Y-105940762D02*
X170226859Y-105988381D01*
X170036382Y-105988381D01*
X169941144Y-105940762D01*
X169893525Y-105845524D01*
X169893525Y-105464571D01*
X169941144Y-105369333D01*
X170036382Y-105321714D01*
X170226859Y-105321714D01*
X170322097Y-105369333D01*
X170369716Y-105464571D01*
X170369716Y-105559810D01*
X169893525Y-105655048D01*
X170798287Y-105321714D02*
X170798287Y-105988381D01*
X170798287Y-105416952D02*
X170845906Y-105369333D01*
X170941144Y-105321714D01*
X171084002Y-105321714D01*
X171179240Y-105369333D01*
X171226859Y-105464571D01*
X171226859Y-105988381D01*
D12*
X166366000Y-84328000D02*
X166616000Y-84328000D01*
X165866000Y-84328000D02*
X165616000Y-84328000D01*
X165866000Y-84328000D02*
X166366000Y-83978000D01*
X166366000Y-83978000D02*
X166366000Y-84678000D01*
X166366000Y-84678000D02*
X165866000Y-84328000D01*
X165866000Y-83978000D02*
X165866000Y-84678000D01*
X164816000Y-85128000D02*
X167216000Y-85128000D01*
X164816000Y-83528000D02*
X167216000Y-83528000D01*
X176748800Y-110000000D02*
X183251200Y-110000000D01*
X176748800Y-113500120D02*
X176748800Y-106499880D01*
X168001040Y-106499880D02*
X176748800Y-106499880D01*
X168001040Y-113500120D02*
X176748800Y-113500120D01*
X190749280Y-107500640D02*
X191998960Y-107500640D01*
X190500360Y-112499360D02*
X191998960Y-112499360D01*
X178498860Y-107500640D02*
X190749280Y-107500640D01*
X178750320Y-112499360D02*
X190500360Y-112499360D01*
X168001040Y-107500640D02*
X178498860Y-107500640D01*
X168001040Y-112499360D02*
X178750320Y-112499360D01*
X168001040Y-112499360D02*
X168001040Y-107500640D01*
X167000280Y-113500120D02*
X168001040Y-113500120D01*
X167000280Y-113500120D02*
X167000280Y-106499880D01*
X167000280Y-106499880D02*
X168001040Y-106499880D01*
X191998960Y-112499360D02*
X191998960Y-107500640D01*
X183251200Y-113500120D02*
X192999720Y-113500120D01*
X192999720Y-113500120D02*
X192999720Y-106499880D01*
X183251200Y-106499880D02*
X192999720Y-106499880D01*
X183251200Y-113500120D02*
X183251200Y-106499880D01*
X156210000Y-83312000D02*
X156210000Y-88392000D01*
X155930000Y-80492000D02*
X157480000Y-80492000D01*
X158750000Y-80772000D02*
X158750000Y-83312000D01*
X158750000Y-83312000D02*
X156210000Y-83312000D01*
X156210000Y-88392000D02*
X161290000Y-88392000D01*
X161290000Y-88392000D02*
X161290000Y-83312000D01*
X155930000Y-80492000D02*
X155930000Y-82042000D01*
X161290000Y-80772000D02*
X158750000Y-80772000D01*
X161290000Y-83312000D02*
X161290000Y-80772000D01*
X169698000Y-65760000D02*
X169698000Y-67310000D01*
X166598000Y-67310000D02*
X166598000Y-65760000D01*
X166598000Y-65760000D02*
X169698000Y-65760000D01*
X166878000Y-68580000D02*
X169418000Y-68580000D01*
X174016000Y-65760000D02*
X174016000Y-67310000D01*
X170916000Y-67310000D02*
X170916000Y-65760000D01*
X170916000Y-65760000D02*
X174016000Y-65760000D01*
X171196000Y-68580000D02*
X173736000Y-68580000D01*
X165380000Y-65760000D02*
X165380000Y-67310000D01*
X162280000Y-67310000D02*
X162280000Y-65760000D01*
X162280000Y-65760000D02*
X165380000Y-65760000D01*
X162560000Y-68580000D02*
X165100000Y-68580000D01*
X197460000Y-106080000D02*
X197460000Y-95920000D01*
X196190000Y-106080000D02*
X203810000Y-106080000D01*
X203810000Y-106080000D02*
X203810000Y-95920000D01*
X203810000Y-95920000D02*
X196190000Y-95920000D01*
X196190000Y-95920000D02*
X196190000Y-106080000D01*
X195200000Y-88900000D02*
X195200000Y-101400000D01*
X166200000Y-101400000D02*
X195200000Y-101400000D01*
X166200000Y-88900000D02*
X166200000Y-101400000D01*
X166200000Y-88900000D02*
X195200000Y-88900000D01*
X167894000Y-71628000D02*
X167894000Y-71882000D01*
X160782000Y-78486000D02*
X160782000Y-78740000D01*
X167894000Y-71882000D02*
X167894000Y-78740000D01*
X167894000Y-71628000D02*
X160782000Y-71628000D01*
X160782000Y-78486000D02*
X160782000Y-71628000D01*
X160782000Y-78740000D02*
X167894000Y-78740000D01*
X196925000Y-90575000D02*
X197070000Y-90575000D01*
X196925000Y-86425000D02*
X197070000Y-86425000D01*
X202075000Y-86425000D02*
X201930000Y-86425000D01*
X202075000Y-90575000D02*
X201930000Y-90575000D01*
X196925000Y-90575000D02*
X196925000Y-86425000D01*
X202075000Y-90575000D02*
X202075000Y-86425000D01*
X197070000Y-90575000D02*
X197070000Y-91975000D01*
X160286000Y-112000000D02*
G75*
G03X160286000Y-112000000I-2286000J0D01*
G01*
X160286000Y-68000000D02*
G75*
G03X160286000Y-68000000I-2286000J0D01*
G01*
X204286000Y-68000000D02*
G75*
G03X204286000Y-68000000I-2286000J0D01*
G01*
X204286000Y-112000000D02*
G75*
G03X204286000Y-112000000I-2286000J0D01*
G01*
X167640000Y-81280000D02*
X168402000Y-82296000D01*
X167640000Y-81280000D02*
X168402000Y-80264000D01*
X167640000Y-80264000D02*
X167640000Y-82296000D01*
X168402000Y-80264000D02*
X168402000Y-82296000D01*
X163810000Y-106620000D02*
X156190000Y-106620000D01*
X163810000Y-91380000D02*
X156190000Y-91380000D01*
X162540000Y-106620000D02*
X162540000Y-91380000D01*
X156190000Y-106620000D02*
X156190000Y-91380000D01*
X163810000Y-106620000D02*
X163810000Y-91380000D01*
X181702000Y-86981000D02*
X180502000Y-86981000D01*
X180502000Y-85231000D02*
X181702000Y-85231000D01*
X195250000Y-101850000D02*
X183250000Y-101850000D01*
X195250000Y-105750000D02*
X183250000Y-105750000D01*
X183250000Y-105750000D02*
X183250000Y-101850000D01*
X195250000Y-105750000D02*
X195250000Y-101850000D01*
X158330000Y-75176000D02*
X158330000Y-74176000D01*
X156630000Y-74176000D02*
X156630000Y-75176000D01*
X181382000Y-102082000D02*
X181382000Y-103632000D01*
X178282000Y-103632000D02*
X178282000Y-102082000D01*
X178282000Y-102082000D02*
X181382000Y-102082000D01*
X178562000Y-104902000D02*
X181102000Y-104902000D01*
X182880000Y-69850000D02*
G75*
G03X182880000Y-69850000I-2540000J0D01*
G01*
X184150000Y-73660000D02*
X176530000Y-73660000D01*
X176530000Y-73660000D02*
X176530000Y-66040000D01*
X176530000Y-66040000D02*
X184150000Y-66040000D01*
X184150000Y-73660000D02*
X184150000Y-66040000D01*
X182880000Y-78232000D02*
G75*
G03X182880000Y-78232000I-2540000J0D01*
G01*
X184150000Y-82042000D02*
X176530000Y-82042000D01*
X176530000Y-82042000D02*
X176530000Y-74422000D01*
X176530000Y-74422000D02*
X184150000Y-74422000D01*
X184150000Y-82042000D02*
X184150000Y-74422000D01*
X193668607Y-74835000D02*
G75*
G03X193668607Y-74835000I-223607J0D01*
G01*
X196945000Y-74335000D02*
X196945000Y-79335000D01*
X196945000Y-79335000D02*
X192945000Y-79335000D01*
X192945000Y-79335000D02*
X192945000Y-74335000D01*
X192945000Y-74335000D02*
X196945000Y-74335000D01*
X186690000Y-74930000D02*
X186690000Y-82550000D01*
X189230000Y-74930000D02*
X189230000Y-82550000D01*
X189510000Y-72110000D02*
X189510000Y-73660000D01*
X186690000Y-82550000D02*
X189230000Y-82550000D01*
X189230000Y-74930000D02*
X186690000Y-74930000D01*
X186410000Y-73660000D02*
X186410000Y-72110000D01*
X186410000Y-72110000D02*
X189510000Y-72110000D01*
X203200000Y-80010000D02*
X203200000Y-72390000D01*
X200660000Y-80010000D02*
X200660000Y-72390000D01*
X200380000Y-82830000D02*
X200380000Y-81280000D01*
X203200000Y-72390000D02*
X200660000Y-72390000D01*
X200660000Y-80010000D02*
X203200000Y-80010000D01*
X203480000Y-81280000D02*
X203480000Y-82830000D01*
X203480000Y-82830000D02*
X200380000Y-82830000D01*
X193675000Y-73025000D02*
X198755000Y-73025000D01*
X198755000Y-73025000D02*
X198755000Y-70485000D01*
X198755000Y-70485000D02*
X193675000Y-70485000D01*
X190855000Y-70205000D02*
X192405000Y-70205000D01*
X193675000Y-70485000D02*
X193675000Y-73025000D01*
X192405000Y-73305000D02*
X190855000Y-73305000D01*
X190855000Y-73305000D02*
X190855000Y-70205000D01*
X194945000Y-83185000D02*
X192405000Y-83185000D01*
X197765000Y-83465000D02*
X196215000Y-83465000D01*
X194945000Y-83185000D02*
X194945000Y-80645000D01*
X196215000Y-80365000D02*
X197765000Y-80365000D01*
X197765000Y-80365000D02*
X197765000Y-83465000D01*
X194945000Y-80645000D02*
X192405000Y-80645000D01*
X192405000Y-80645000D02*
X192405000Y-83185000D01*
X188595000Y-68580000D02*
X193675000Y-68580000D01*
X193675000Y-68580000D02*
X193675000Y-66040000D01*
X193675000Y-66040000D02*
X188595000Y-66040000D01*
X185775000Y-65760000D02*
X187325000Y-65760000D01*
X188595000Y-66040000D02*
X188595000Y-68580000D01*
X187325000Y-68860000D02*
X185775000Y-68860000D01*
X185775000Y-68860000D02*
X185775000Y-65760000D01*
X195356421Y-68345000D02*
G75*
G03X195356421Y-68345000I-141421J0D01*
G01*
X197715000Y-68745000D02*
X197715000Y-67145000D01*
X197715000Y-67145000D02*
X194715000Y-67145000D01*
X194715000Y-67145000D02*
X194715000Y-68745000D01*
X194715000Y-68745000D02*
X197715000Y-68745000D01*
X165377905Y-86558381D02*
X165377905Y-85558381D01*
X165616000Y-85558381D01*
X165758858Y-85606000D01*
X165854096Y-85701238D01*
X165901715Y-85796476D01*
X165949334Y-85986952D01*
X165949334Y-86129810D01*
X165901715Y-86320286D01*
X165854096Y-86415524D01*
X165758858Y-86510762D01*
X165616000Y-86558381D01*
X165377905Y-86558381D01*
X166901715Y-86558381D02*
X166330286Y-86558381D01*
X166616000Y-86558381D02*
X166616000Y-85558381D01*
X166520762Y-85701238D01*
X166425524Y-85796476D01*
X166330286Y-85844095D01*
X172386667Y-108386571D02*
X172053333Y-108386571D01*
X172053333Y-108910381D02*
X172053333Y-107910381D01*
X172529524Y-107910381D01*
X173434286Y-108910381D02*
X172862857Y-108910381D01*
X173148571Y-108910381D02*
X173148571Y-107910381D01*
X173053333Y-108053238D01*
X172958095Y-108148476D01*
X172862857Y-108196095D01*
X155979905Y-80208381D02*
X155979905Y-79208381D01*
X156360858Y-79208381D01*
X156456096Y-79256000D01*
X156503715Y-79303619D01*
X156551334Y-79398857D01*
X156551334Y-79541714D01*
X156503715Y-79636952D01*
X156456096Y-79684571D01*
X156360858Y-79732190D01*
X155979905Y-79732190D01*
X157503715Y-80208381D02*
X156932286Y-80208381D01*
X157218000Y-80208381D02*
X157218000Y-79208381D01*
X157122762Y-79351238D01*
X157027524Y-79446476D01*
X156932286Y-79494095D01*
X167409905Y-69921381D02*
X167409905Y-68921381D01*
X167790858Y-68921381D01*
X167886096Y-68969000D01*
X167933715Y-69016619D01*
X167981334Y-69111857D01*
X167981334Y-69254714D01*
X167933715Y-69349952D01*
X167886096Y-69397571D01*
X167790858Y-69445190D01*
X167409905Y-69445190D01*
X168314667Y-68921381D02*
X168933715Y-68921381D01*
X168600381Y-69302333D01*
X168743239Y-69302333D01*
X168838477Y-69349952D01*
X168886096Y-69397571D01*
X168933715Y-69492810D01*
X168933715Y-69730905D01*
X168886096Y-69826143D01*
X168838477Y-69873762D01*
X168743239Y-69921381D01*
X168457524Y-69921381D01*
X168362286Y-69873762D01*
X168314667Y-69826143D01*
X171727905Y-69921381D02*
X171727905Y-68921381D01*
X172108858Y-68921381D01*
X172204096Y-68969000D01*
X172251715Y-69016619D01*
X172299334Y-69111857D01*
X172299334Y-69254714D01*
X172251715Y-69349952D01*
X172204096Y-69397571D01*
X172108858Y-69445190D01*
X171727905Y-69445190D01*
X173156477Y-69254714D02*
X173156477Y-69921381D01*
X172918381Y-68873762D02*
X172680286Y-69588048D01*
X173299334Y-69588048D01*
X163091905Y-69921381D02*
X163091905Y-68921381D01*
X163472858Y-68921381D01*
X163568096Y-68969000D01*
X163615715Y-69016619D01*
X163663334Y-69111857D01*
X163663334Y-69254714D01*
X163615715Y-69349952D01*
X163568096Y-69397571D01*
X163472858Y-69445190D01*
X163091905Y-69445190D01*
X164568096Y-68921381D02*
X164091905Y-68921381D01*
X164044286Y-69397571D01*
X164091905Y-69349952D01*
X164187143Y-69302333D01*
X164425239Y-69302333D01*
X164520477Y-69349952D01*
X164568096Y-69397571D01*
X164615715Y-69492810D01*
X164615715Y-69730905D01*
X164568096Y-69826143D01*
X164520477Y-69873762D01*
X164425239Y-69921381D01*
X164187143Y-69921381D01*
X164091905Y-69873762D01*
X164044286Y-69826143D01*
X203214381Y-101752095D02*
X202214381Y-101752095D01*
X202214381Y-101371142D01*
X202262000Y-101275904D01*
X202309619Y-101228285D01*
X202404857Y-101180666D01*
X202547714Y-101180666D01*
X202642952Y-101228285D01*
X202690571Y-101275904D01*
X202738190Y-101371142D01*
X202738190Y-101752095D01*
X202214381Y-100323523D02*
X202214381Y-100514000D01*
X202262000Y-100609238D01*
X202309619Y-100656857D01*
X202452476Y-100752095D01*
X202642952Y-100799714D01*
X203023905Y-100799714D01*
X203119143Y-100752095D01*
X203166762Y-100704476D01*
X203214381Y-100609238D01*
X203214381Y-100418761D01*
X203166762Y-100323523D01*
X203119143Y-100275904D01*
X203023905Y-100228285D01*
X202785810Y-100228285D01*
X202690571Y-100275904D01*
X202642952Y-100323523D01*
X202595333Y-100418761D01*
X202595333Y-100609238D01*
X202642952Y-100704476D01*
X202690571Y-100752095D01*
X202785810Y-100799714D01*
X171132572Y-100528381D02*
X170799238Y-100052190D01*
X170561143Y-100528381D02*
X170561143Y-99528381D01*
X170942096Y-99528381D01*
X171037334Y-99576000D01*
X171084953Y-99623619D01*
X171132572Y-99718857D01*
X171132572Y-99861714D01*
X171084953Y-99956952D01*
X171037334Y-100004571D01*
X170942096Y-100052190D01*
X170561143Y-100052190D01*
X172037334Y-100528381D02*
X171561143Y-100528381D01*
X171561143Y-99528381D01*
X172894477Y-100528381D02*
X172323048Y-100528381D01*
X172608762Y-100528381D02*
X172608762Y-99528381D01*
X172513524Y-99671238D01*
X172418286Y-99766476D01*
X172323048Y-99814095D01*
X164663381Y-75779238D02*
X164187190Y-76112572D01*
X164663381Y-76350667D02*
X163663381Y-76350667D01*
X163663381Y-75969714D01*
X163711000Y-75874476D01*
X163758619Y-75826857D01*
X163853857Y-75779238D01*
X163996714Y-75779238D01*
X164091952Y-75826857D01*
X164139571Y-75874476D01*
X164187190Y-75969714D01*
X164187190Y-76350667D01*
X163663381Y-75493524D02*
X164663381Y-75160191D01*
X163663381Y-74826857D01*
X164663381Y-73969714D02*
X164663381Y-74541143D01*
X164663381Y-74255429D02*
X163663381Y-74255429D01*
X163806238Y-74350667D01*
X163901476Y-74445905D01*
X163949095Y-74541143D01*
X198628095Y-87844381D02*
X198628095Y-88653905D01*
X198675714Y-88749143D01*
X198723333Y-88796762D01*
X198818571Y-88844381D01*
X199009048Y-88844381D01*
X199104286Y-88796762D01*
X199151905Y-88749143D01*
X199199524Y-88653905D01*
X199199524Y-87844381D01*
X199628095Y-87939619D02*
X199675714Y-87892000D01*
X199770952Y-87844381D01*
X200009048Y-87844381D01*
X200104286Y-87892000D01*
X200151905Y-87939619D01*
X200199524Y-88034857D01*
X200199524Y-88130095D01*
X200151905Y-88272952D01*
X199580476Y-88844381D01*
X200199524Y-88844381D01*
X168425905Y-79700381D02*
X168425905Y-78700381D01*
X168664000Y-78700381D01*
X168806858Y-78748000D01*
X168902096Y-78843238D01*
X168949715Y-78938476D01*
X168997334Y-79128952D01*
X168997334Y-79271810D01*
X168949715Y-79462286D01*
X168902096Y-79557524D01*
X168806858Y-79652762D01*
X168664000Y-79700381D01*
X168425905Y-79700381D01*
X169378286Y-78795619D02*
X169425905Y-78748000D01*
X169521143Y-78700381D01*
X169759239Y-78700381D01*
X169854477Y-78748000D01*
X169902096Y-78795619D01*
X169949715Y-78890857D01*
X169949715Y-78986095D01*
X169902096Y-79128952D01*
X169330667Y-79700381D01*
X169949715Y-79700381D01*
X171211905Y-82208667D02*
X171688096Y-82208667D01*
X171116667Y-82494381D02*
X171450000Y-81494381D01*
X171783334Y-82494381D01*
X156233905Y-91130381D02*
X156233905Y-90130381D01*
X156614858Y-90130381D01*
X156710096Y-90178000D01*
X156757715Y-90225619D01*
X156805334Y-90320857D01*
X156805334Y-90463714D01*
X156757715Y-90558952D01*
X156710096Y-90606571D01*
X156614858Y-90654190D01*
X156233905Y-90654190D01*
X157186286Y-90225619D02*
X157233905Y-90178000D01*
X157329143Y-90130381D01*
X157567239Y-90130381D01*
X157662477Y-90178000D01*
X157710096Y-90225619D01*
X157757715Y-90320857D01*
X157757715Y-90416095D01*
X157710096Y-90558952D01*
X157138667Y-91130381D01*
X157757715Y-91130381D01*
X180935334Y-88336381D02*
X180602000Y-87860190D01*
X180363905Y-88336381D02*
X180363905Y-87336381D01*
X180744858Y-87336381D01*
X180840096Y-87384000D01*
X180887715Y-87431619D01*
X180935334Y-87526857D01*
X180935334Y-87669714D01*
X180887715Y-87764952D01*
X180840096Y-87812571D01*
X180744858Y-87860190D01*
X180363905Y-87860190D01*
X181316286Y-87431619D02*
X181363905Y-87384000D01*
X181459143Y-87336381D01*
X181697239Y-87336381D01*
X181792477Y-87384000D01*
X181840096Y-87431619D01*
X181887715Y-87526857D01*
X181887715Y-87622095D01*
X181840096Y-87764952D01*
X181268667Y-88336381D01*
X181887715Y-88336381D01*
X187920476Y-103338381D02*
X188253809Y-104338381D01*
X188587143Y-103338381D01*
X189491905Y-104338381D02*
X189158571Y-103862190D01*
X188920476Y-104338381D02*
X188920476Y-103338381D01*
X189301429Y-103338381D01*
X189396667Y-103386000D01*
X189444286Y-103433619D01*
X189491905Y-103528857D01*
X189491905Y-103671714D01*
X189444286Y-103766952D01*
X189396667Y-103814571D01*
X189301429Y-103862190D01*
X188920476Y-103862190D01*
X190444286Y-104338381D02*
X189872857Y-104338381D01*
X190158571Y-104338381D02*
X190158571Y-103338381D01*
X190063333Y-103481238D01*
X189968095Y-103576476D01*
X189872857Y-103624095D01*
X159615143Y-74842666D02*
X159662762Y-74890285D01*
X159710381Y-75033142D01*
X159710381Y-75128380D01*
X159662762Y-75271238D01*
X159567524Y-75366476D01*
X159472286Y-75414095D01*
X159281810Y-75461714D01*
X159138952Y-75461714D01*
X158948476Y-75414095D01*
X158853238Y-75366476D01*
X158758000Y-75271238D01*
X158710381Y-75128380D01*
X158710381Y-75033142D01*
X158758000Y-74890285D01*
X158805619Y-74842666D01*
X158710381Y-73937904D02*
X158710381Y-74414095D01*
X159186571Y-74461714D01*
X159138952Y-74414095D01*
X159091333Y-74318857D01*
X159091333Y-74080761D01*
X159138952Y-73985523D01*
X159186571Y-73937904D01*
X159281810Y-73890285D01*
X159519905Y-73890285D01*
X159615143Y-73937904D01*
X159662762Y-73985523D01*
X159710381Y-74080761D01*
X159710381Y-74318857D01*
X159662762Y-74414095D01*
X159615143Y-74461714D01*
X178617714Y-106370381D02*
X178617714Y-105370381D01*
X178998667Y-105370381D01*
X179093905Y-105418000D01*
X179141524Y-105465619D01*
X179189143Y-105560857D01*
X179189143Y-105703714D01*
X179141524Y-105798952D01*
X179093905Y-105846571D01*
X178998667Y-105894190D01*
X178617714Y-105894190D01*
X180141524Y-106370381D02*
X179570095Y-106370381D01*
X179855809Y-106370381D02*
X179855809Y-105370381D01*
X179760571Y-105513238D01*
X179665333Y-105608476D01*
X179570095Y-105656095D01*
X181093905Y-106370381D02*
X180522476Y-106370381D01*
X180808190Y-106370381D02*
X180808190Y-105370381D01*
X180712952Y-105513238D01*
X180617714Y-105608476D01*
X180522476Y-105656095D01*
X179006667Y-71016762D02*
X179149524Y-71064381D01*
X179387620Y-71064381D01*
X179482858Y-71016762D01*
X179530477Y-70969143D01*
X179578096Y-70873905D01*
X179578096Y-70778667D01*
X179530477Y-70683429D01*
X179482858Y-70635810D01*
X179387620Y-70588190D01*
X179197143Y-70540571D01*
X179101905Y-70492952D01*
X179054286Y-70445333D01*
X179006667Y-70350095D01*
X179006667Y-70254857D01*
X179054286Y-70159619D01*
X179101905Y-70112000D01*
X179197143Y-70064381D01*
X179435239Y-70064381D01*
X179578096Y-70112000D01*
X179911429Y-70064381D02*
X180149524Y-71064381D01*
X180340001Y-70350095D01*
X180530477Y-71064381D01*
X180768572Y-70064381D01*
X181673334Y-71064381D02*
X181101905Y-71064381D01*
X181387619Y-71064381D02*
X181387619Y-70064381D01*
X181292381Y-70207238D01*
X181197143Y-70302476D01*
X181101905Y-70350095D01*
X179006667Y-79398762D02*
X179149524Y-79446381D01*
X179387620Y-79446381D01*
X179482858Y-79398762D01*
X179530477Y-79351143D01*
X179578096Y-79255905D01*
X179578096Y-79160667D01*
X179530477Y-79065429D01*
X179482858Y-79017810D01*
X179387620Y-78970190D01*
X179197143Y-78922571D01*
X179101905Y-78874952D01*
X179054286Y-78827333D01*
X179006667Y-78732095D01*
X179006667Y-78636857D01*
X179054286Y-78541619D01*
X179101905Y-78494000D01*
X179197143Y-78446381D01*
X179435239Y-78446381D01*
X179578096Y-78494000D01*
X179911429Y-78446381D02*
X180149524Y-79446381D01*
X180340001Y-78732095D01*
X180530477Y-79446381D01*
X180768572Y-78446381D01*
X181101905Y-78541619D02*
X181149524Y-78494000D01*
X181244762Y-78446381D01*
X181482858Y-78446381D01*
X181578096Y-78494000D01*
X181625715Y-78541619D01*
X181673334Y-78636857D01*
X181673334Y-78732095D01*
X181625715Y-78874952D01*
X181054286Y-79446381D01*
X181673334Y-79446381D01*
X194183095Y-76287381D02*
X194183095Y-77096905D01*
X194230714Y-77192143D01*
X194278333Y-77239762D01*
X194373571Y-77287381D01*
X194564048Y-77287381D01*
X194659286Y-77239762D01*
X194706905Y-77192143D01*
X194754524Y-77096905D01*
X194754524Y-76287381D01*
X195135476Y-76287381D02*
X195754524Y-76287381D01*
X195421190Y-76668333D01*
X195564048Y-76668333D01*
X195659286Y-76715952D01*
X195706905Y-76763571D01*
X195754524Y-76858810D01*
X195754524Y-77096905D01*
X195706905Y-77192143D01*
X195659286Y-77239762D01*
X195564048Y-77287381D01*
X195278333Y-77287381D01*
X195183095Y-77239762D01*
X195135476Y-77192143D01*
X186745714Y-84018381D02*
X186745714Y-83018381D01*
X187126667Y-83018381D01*
X187221905Y-83066000D01*
X187269524Y-83113619D01*
X187317143Y-83208857D01*
X187317143Y-83351714D01*
X187269524Y-83446952D01*
X187221905Y-83494571D01*
X187126667Y-83542190D01*
X186745714Y-83542190D01*
X188269524Y-84018381D02*
X187698095Y-84018381D01*
X187983809Y-84018381D02*
X187983809Y-83018381D01*
X187888571Y-83161238D01*
X187793333Y-83256476D01*
X187698095Y-83304095D01*
X188650476Y-83113619D02*
X188698095Y-83066000D01*
X188793333Y-83018381D01*
X189031429Y-83018381D01*
X189126667Y-83066000D01*
X189174286Y-83113619D01*
X189221905Y-83208857D01*
X189221905Y-83304095D01*
X189174286Y-83446952D01*
X188602857Y-84018381D01*
X189221905Y-84018381D01*
X200715714Y-84272381D02*
X200715714Y-83272381D01*
X201096667Y-83272381D01*
X201191905Y-83320000D01*
X201239524Y-83367619D01*
X201287143Y-83462857D01*
X201287143Y-83605714D01*
X201239524Y-83700952D01*
X201191905Y-83748571D01*
X201096667Y-83796190D01*
X200715714Y-83796190D01*
X202239524Y-84272381D02*
X201668095Y-84272381D01*
X201953809Y-84272381D02*
X201953809Y-83272381D01*
X201858571Y-83415238D01*
X201763333Y-83510476D01*
X201668095Y-83558095D01*
X202572857Y-83272381D02*
X203191905Y-83272381D01*
X202858571Y-83653333D01*
X203001429Y-83653333D01*
X203096667Y-83700952D01*
X203144286Y-83748571D01*
X203191905Y-83843810D01*
X203191905Y-84081905D01*
X203144286Y-84177143D01*
X203096667Y-84224762D01*
X203001429Y-84272381D01*
X202715714Y-84272381D01*
X202620476Y-84224762D01*
X202572857Y-84177143D01*
X199445714Y-71318381D02*
X199445714Y-70318381D01*
X199826667Y-70318381D01*
X199921905Y-70366000D01*
X199969524Y-70413619D01*
X200017143Y-70508857D01*
X200017143Y-70651714D01*
X199969524Y-70746952D01*
X199921905Y-70794571D01*
X199826667Y-70842190D01*
X199445714Y-70842190D01*
X200969524Y-71318381D02*
X200398095Y-71318381D01*
X200683809Y-71318381D02*
X200683809Y-70318381D01*
X200588571Y-70461238D01*
X200493333Y-70556476D01*
X200398095Y-70604095D01*
X201826667Y-70651714D02*
X201826667Y-71318381D01*
X201588571Y-70270762D02*
X201350476Y-70985048D01*
X201969524Y-70985048D01*
X192587714Y-84526381D02*
X192587714Y-83526381D01*
X192968667Y-83526381D01*
X193063905Y-83574000D01*
X193111524Y-83621619D01*
X193159143Y-83716857D01*
X193159143Y-83859714D01*
X193111524Y-83954952D01*
X193063905Y-84002571D01*
X192968667Y-84050190D01*
X192587714Y-84050190D01*
X194111524Y-84526381D02*
X193540095Y-84526381D01*
X193825809Y-84526381D02*
X193825809Y-83526381D01*
X193730571Y-83669238D01*
X193635333Y-83764476D01*
X193540095Y-83812095D01*
X195016286Y-83526381D02*
X194540095Y-83526381D01*
X194492476Y-84002571D01*
X194540095Y-83954952D01*
X194635333Y-83907333D01*
X194873429Y-83907333D01*
X194968667Y-83954952D01*
X195016286Y-84002571D01*
X195063905Y-84097810D01*
X195063905Y-84335905D01*
X195016286Y-84431143D01*
X194968667Y-84478762D01*
X194873429Y-84526381D01*
X194635333Y-84526381D01*
X194540095Y-84478762D01*
X194492476Y-84431143D01*
X185729714Y-70302381D02*
X185729714Y-69302381D01*
X186110667Y-69302381D01*
X186205905Y-69350000D01*
X186253524Y-69397619D01*
X186301143Y-69492857D01*
X186301143Y-69635714D01*
X186253524Y-69730952D01*
X186205905Y-69778571D01*
X186110667Y-69826190D01*
X185729714Y-69826190D01*
X187253524Y-70302381D02*
X186682095Y-70302381D01*
X186967809Y-70302381D02*
X186967809Y-69302381D01*
X186872571Y-69445238D01*
X186777333Y-69540476D01*
X186682095Y-69588095D01*
X188110667Y-69302381D02*
X187920190Y-69302381D01*
X187824952Y-69350000D01*
X187777333Y-69397619D01*
X187682095Y-69540476D01*
X187634476Y-69730952D01*
X187634476Y-70111905D01*
X187682095Y-70207143D01*
X187729714Y-70254762D01*
X187824952Y-70302381D01*
X188015429Y-70302381D01*
X188110667Y-70254762D01*
X188158286Y-70207143D01*
X188205905Y-70111905D01*
X188205905Y-69873810D01*
X188158286Y-69778571D01*
X188110667Y-69730952D01*
X188015429Y-69683333D01*
X187824952Y-69683333D01*
X187729714Y-69730952D01*
X187682095Y-69778571D01*
X187634476Y-69873810D01*
X195580095Y-67524381D02*
X195580095Y-68333905D01*
X195627714Y-68429143D01*
X195675333Y-68476762D01*
X195770571Y-68524381D01*
X195961048Y-68524381D01*
X196056286Y-68476762D01*
X196103905Y-68429143D01*
X196151524Y-68333905D01*
X196151524Y-67524381D01*
X197103905Y-67524381D02*
X196627714Y-67524381D01*
X196580095Y-68000571D01*
X196627714Y-67952952D01*
X196722952Y-67905333D01*
X196961048Y-67905333D01*
X197056286Y-67952952D01*
X197103905Y-68000571D01*
X197151524Y-68095810D01*
X197151524Y-68333905D01*
X197103905Y-68429143D01*
X197056286Y-68476762D01*
X196961048Y-68524381D01*
X196722952Y-68524381D01*
X196627714Y-68476762D01*
X196580095Y-68429143D01*
M02*
