%TF.GenerationSoftware,KiCad,Pcbnew,0.201512281231+6406~40~ubuntu14.04.1-stable*%
%TF.CreationDate,2016-01-03T22:13:40+01:00*%
%TF.ProjectId,hv,68762E6B696361645F70636200000000,rev?*%
%TF.FileFunction,Soldermask,Bot*%
%FSLAX46Y46*%
G04 Gerber Fmt 4.6, Leading zero omitted, Abs format (unit mm)*
G04 Created by KiCad (PCBNEW 0.201512281231+6406~40~ubuntu14.04.1-stable) date Son 03 Jan 2016 22:13:40 CET*
%MOMM*%
G01*
G04 APERTURE LIST*
%ADD10C,0.200000*%
%ADD11C,2.749500*%
%ADD12R,2.127200X2.127200*%
%ADD13O,2.127200X2.127200*%
%ADD14R,2.635200X2.635200*%
%ADD15R,2.940000X2.940000*%
%ADD16C,2.940000*%
%ADD17C,3.400000*%
%ADD18R,1.000000X1.950000*%
%ADD19C,2.900000*%
%ADD20R,1.650000X1.400000*%
%ADD21R,1.400000X1.650000*%
%ADD22C,2.398980*%
%ADD23R,2.398980X2.398980*%
%ADD24R,1.700000X1.100000*%
%ADD25R,1.100000X1.700000*%
%ADD26C,2.200000*%
%ADD27C,1.797000*%
%ADD28R,2.432000X2.127200*%
%ADD29O,2.432000X2.127200*%
%ADD30R,2.127200X2.432000*%
%ADD31O,2.127200X2.432000*%
%ADD32R,2.432000X2.432000*%
%ADD33O,2.432000X2.432000*%
%ADD34R,1.000000X1.300000*%
%ADD35C,0.254000*%
G04 APERTURE END LIST*
D10*
D11*
X174998740Y-110000000D03*
X170000020Y-110000000D03*
X185001260Y-110000000D03*
X189999980Y-110000000D03*
D12*
X157480000Y-82042000D03*
D13*
X160020000Y-82042000D03*
X157480000Y-84582000D03*
X160020000Y-84582000D03*
X157480000Y-87122000D03*
X160020000Y-87122000D03*
D14*
X168148000Y-67310000D03*
X172466000Y-67310000D03*
X163830000Y-67310000D03*
D15*
X200000000Y-98460000D03*
D16*
X200000000Y-103540000D03*
D17*
X168000000Y-91250000D03*
X168000000Y-95000000D03*
X168000000Y-98750000D03*
X188000000Y-91250000D03*
X188000000Y-98750000D03*
X193000000Y-91250000D03*
X193000000Y-98750000D03*
D18*
X174117000Y-92804000D03*
X175387000Y-92804000D03*
X176657000Y-92804000D03*
X177927000Y-92804000D03*
X177927000Y-98204000D03*
X176657000Y-98204000D03*
X175387000Y-98204000D03*
X174117000Y-98204000D03*
D19*
X158000000Y-112000000D03*
X158000000Y-68000000D03*
X202000000Y-68000000D03*
X202000000Y-112000000D03*
D20*
X171958000Y-94504000D03*
X171958000Y-96504000D03*
D21*
X200422000Y-85852000D03*
X202422000Y-85852000D03*
D20*
X174244000Y-85360000D03*
X174244000Y-87360000D03*
D21*
X198390000Y-88138000D03*
X200390000Y-88138000D03*
D22*
X169926000Y-81280000D03*
D23*
X166116000Y-81280000D03*
D15*
X160000000Y-104080000D03*
D16*
X160000000Y-99000000D03*
X160000000Y-93920000D03*
D24*
X171704000Y-87056000D03*
X171704000Y-85156000D03*
X176784000Y-88712000D03*
X176784000Y-90612000D03*
D25*
X174178000Y-89916000D03*
X172278000Y-89916000D03*
D24*
X176784000Y-87056000D03*
X176784000Y-85156000D03*
D26*
X193000000Y-104500000D03*
X185500000Y-103100000D03*
D14*
X179832000Y-103632000D03*
D27*
X176530000Y-72390000D03*
X176530000Y-67310000D03*
X184150000Y-72390000D03*
X184150000Y-67310000D03*
X176530000Y-80772000D03*
X176530000Y-75692000D03*
X184150000Y-80772000D03*
X184150000Y-75692000D03*
D28*
X187960000Y-73660000D03*
D29*
X187960000Y-76200000D03*
X187960000Y-78740000D03*
X187960000Y-81280000D03*
D28*
X201930000Y-81280000D03*
D29*
X201930000Y-78740000D03*
X201930000Y-76200000D03*
X201930000Y-73660000D03*
D30*
X192405000Y-71755000D03*
D31*
X194945000Y-71755000D03*
X197485000Y-71755000D03*
D32*
X196215000Y-81915000D03*
D33*
X193675000Y-81915000D03*
D34*
X195895000Y-78235000D03*
X194945000Y-75435000D03*
X193995000Y-78235000D03*
X195895000Y-75435000D03*
X193995000Y-75435000D03*
D30*
X187325000Y-67310000D03*
D31*
X189865000Y-67310000D03*
X192405000Y-67310000D03*
D35*
G36*
X188373000Y-100947394D02*
X185410197Y-103910197D01*
X185382334Y-103952211D01*
X185373000Y-104000000D01*
X185373000Y-108873000D01*
X184627000Y-108873000D01*
X184627000Y-103302606D01*
X187589803Y-100339803D01*
X187617666Y-100297789D01*
X187627000Y-100250000D01*
X187627000Y-100127000D01*
X188373000Y-100127000D01*
X188373000Y-100947394D01*
X188373000Y-100947394D01*
G37*
X188373000Y-100947394D02*
X185410197Y-103910197D01*
X185382334Y-103952211D01*
X185373000Y-104000000D01*
X185373000Y-108873000D01*
X184627000Y-108873000D01*
X184627000Y-103302606D01*
X187589803Y-100339803D01*
X187617666Y-100297789D01*
X187627000Y-100250000D01*
X187627000Y-100127000D01*
X188373000Y-100127000D01*
X188373000Y-100947394D01*
G36*
X164373000Y-96352606D02*
X164373000Y-100800000D01*
X164383006Y-100849410D01*
X164410197Y-100889803D01*
X170373000Y-106852606D01*
X170373000Y-108873000D01*
X169627000Y-108873000D01*
X169627000Y-107200000D01*
X169616994Y-107150590D01*
X169589803Y-107110197D01*
X163627000Y-101147394D01*
X163627000Y-96700000D01*
X163616994Y-96650590D01*
X163589803Y-96610197D01*
X161327000Y-94347394D01*
X161327000Y-93527000D01*
X161547394Y-93527000D01*
X164373000Y-96352606D01*
X164373000Y-96352606D01*
G37*
X164373000Y-96352606D02*
X164373000Y-100800000D01*
X164383006Y-100849410D01*
X164410197Y-100889803D01*
X170373000Y-106852606D01*
X170373000Y-108873000D01*
X169627000Y-108873000D01*
X169627000Y-107200000D01*
X169616994Y-107150590D01*
X169589803Y-107110197D01*
X163627000Y-101147394D01*
X163627000Y-96700000D01*
X163616994Y-96650590D01*
X163589803Y-96610197D01*
X161327000Y-94347394D01*
X161327000Y-93527000D01*
X161547394Y-93527000D01*
X164373000Y-96352606D01*
G36*
X198673000Y-103873000D02*
X198200000Y-103873000D01*
X198150590Y-103883006D01*
X198110197Y-103910197D01*
X196910197Y-105110197D01*
X196882334Y-105152211D01*
X196873000Y-105200000D01*
X196873000Y-111647394D01*
X194147394Y-114373000D01*
X166352606Y-114373000D01*
X163627000Y-111647394D01*
X163627000Y-106200000D01*
X163616994Y-106150590D01*
X163589803Y-106110197D01*
X161989803Y-104510197D01*
X161947789Y-104482334D01*
X161900000Y-104473000D01*
X161427000Y-104473000D01*
X161427000Y-103727000D01*
X162247394Y-103727000D01*
X164373000Y-105852606D01*
X164373000Y-111300000D01*
X164383006Y-111349410D01*
X164410197Y-111389803D01*
X166610197Y-113589803D01*
X166652211Y-113617666D01*
X166700000Y-113627000D01*
X193800000Y-113627000D01*
X193849410Y-113616994D01*
X193889803Y-113589803D01*
X196089803Y-111389803D01*
X196117666Y-111347789D01*
X196127000Y-111300000D01*
X196127000Y-104852606D01*
X197852606Y-103127000D01*
X198673000Y-103127000D01*
X198673000Y-103873000D01*
X198673000Y-103873000D01*
G37*
X198673000Y-103873000D02*
X198200000Y-103873000D01*
X198150590Y-103883006D01*
X198110197Y-103910197D01*
X196910197Y-105110197D01*
X196882334Y-105152211D01*
X196873000Y-105200000D01*
X196873000Y-111647394D01*
X194147394Y-114373000D01*
X166352606Y-114373000D01*
X163627000Y-111647394D01*
X163627000Y-106200000D01*
X163616994Y-106150590D01*
X163589803Y-106110197D01*
X161989803Y-104510197D01*
X161947789Y-104482334D01*
X161900000Y-104473000D01*
X161427000Y-104473000D01*
X161427000Y-103727000D01*
X162247394Y-103727000D01*
X164373000Y-105852606D01*
X164373000Y-111300000D01*
X164383006Y-111349410D01*
X164410197Y-111389803D01*
X166610197Y-113589803D01*
X166652211Y-113617666D01*
X166700000Y-113627000D01*
X193800000Y-113627000D01*
X193849410Y-113616994D01*
X193889803Y-113589803D01*
X196089803Y-111389803D01*
X196117666Y-111347789D01*
X196127000Y-111300000D01*
X196127000Y-104852606D01*
X197852606Y-103127000D01*
X198673000Y-103127000D01*
X198673000Y-103873000D01*
M02*
