%TF.GenerationSoftware,KiCad,Pcbnew,0.201512281231+6406~40~ubuntu14.04.1-stable*%
%TF.CreationDate,2016-01-03T22:13:40+01:00*%
%TF.ProjectId,hv,68762E6B696361645F70636200000000,rev?*%
%TF.FileFunction,Legend,Bot*%
%FSLAX46Y46*%
G04 Gerber Fmt 4.6, Leading zero omitted, Abs format (unit mm)*
G04 Created by KiCad (PCBNEW 0.201512281231+6406~40~ubuntu14.04.1-stable) date Son 03 Jan 2016 22:13:40 CET*
%MOMM*%
G01*
G04 APERTURE LIST*
%ADD10C,0.200000*%
%ADD11C,0.150000*%
G04 APERTURE END LIST*
D10*
D11*
X173447000Y-93429000D02*
X173592000Y-93429000D01*
X173447000Y-97579000D02*
X173592000Y-97579000D01*
X178597000Y-97579000D02*
X178452000Y-97579000D01*
X178597000Y-93429000D02*
X178452000Y-93429000D01*
X173447000Y-93429000D02*
X173447000Y-97579000D01*
X178597000Y-93429000D02*
X178597000Y-97579000D01*
X173592000Y-93429000D02*
X173592000Y-92029000D01*
X171108000Y-96004000D02*
X171108000Y-95004000D01*
X172808000Y-95004000D02*
X172808000Y-96004000D01*
X201922000Y-86702000D02*
X200922000Y-86702000D01*
X200922000Y-85002000D02*
X201922000Y-85002000D01*
X173394000Y-86860000D02*
X173394000Y-85860000D01*
X175094000Y-85860000D02*
X175094000Y-86860000D01*
X199890000Y-88988000D02*
X198890000Y-88988000D01*
X198890000Y-87288000D02*
X199890000Y-87288000D01*
X170829000Y-85506000D02*
X170829000Y-86706000D01*
X172579000Y-86706000D02*
X172579000Y-85506000D01*
X177659000Y-90262000D02*
X177659000Y-89062000D01*
X175909000Y-89062000D02*
X175909000Y-90262000D01*
X172628000Y-90791000D02*
X173828000Y-90791000D01*
X173828000Y-89041000D02*
X172628000Y-89041000D01*
X175909000Y-85506000D02*
X175909000Y-86706000D01*
X177659000Y-86706000D02*
X177659000Y-85506000D01*
X194086421Y-76435000D02*
G75*
G03X194086421Y-76435000I-141421J0D01*
G01*
X196445000Y-76035000D02*
X196445000Y-77635000D01*
X196445000Y-77635000D02*
X193445000Y-77635000D01*
X193445000Y-77635000D02*
X193445000Y-76035000D01*
X193445000Y-76035000D02*
X196445000Y-76035000D01*
X176783905Y-94956381D02*
X176783905Y-95765905D01*
X176736286Y-95861143D01*
X176688667Y-95908762D01*
X176593429Y-95956381D01*
X176402952Y-95956381D01*
X176307714Y-95908762D01*
X176260095Y-95861143D01*
X176212476Y-95765905D01*
X176212476Y-94956381D01*
X175212476Y-95956381D02*
X175783905Y-95956381D01*
X175498191Y-95956381D02*
X175498191Y-94956381D01*
X175593429Y-95099238D01*
X175688667Y-95194476D01*
X175783905Y-95242095D01*
X172124666Y-98401143D02*
X172172285Y-98448762D01*
X172315142Y-98496381D01*
X172410380Y-98496381D01*
X172553238Y-98448762D01*
X172648476Y-98353524D01*
X172696095Y-98258286D01*
X172743714Y-98067810D01*
X172743714Y-97924952D01*
X172696095Y-97734476D01*
X172648476Y-97639238D01*
X172553238Y-97544000D01*
X172410380Y-97496381D01*
X172315142Y-97496381D01*
X172172285Y-97544000D01*
X172124666Y-97591619D01*
X171172285Y-98496381D02*
X171743714Y-98496381D01*
X171458000Y-98496381D02*
X171458000Y-97496381D01*
X171553238Y-97639238D01*
X171648476Y-97734476D01*
X171743714Y-97782095D01*
X198794666Y-86209143D02*
X198842285Y-86256762D01*
X198985142Y-86304381D01*
X199080380Y-86304381D01*
X199223238Y-86256762D01*
X199318476Y-86161524D01*
X199366095Y-86066286D01*
X199413714Y-85875810D01*
X199413714Y-85732952D01*
X199366095Y-85542476D01*
X199318476Y-85447238D01*
X199223238Y-85352000D01*
X199080380Y-85304381D01*
X198985142Y-85304381D01*
X198842285Y-85352000D01*
X198794666Y-85399619D01*
X198413714Y-85399619D02*
X198366095Y-85352000D01*
X198270857Y-85304381D01*
X198032761Y-85304381D01*
X197937523Y-85352000D01*
X197889904Y-85399619D01*
X197842285Y-85494857D01*
X197842285Y-85590095D01*
X197889904Y-85732952D01*
X198461333Y-86304381D01*
X197842285Y-86304381D01*
X174601143Y-83399334D02*
X174648762Y-83351715D01*
X174696381Y-83208858D01*
X174696381Y-83113620D01*
X174648762Y-82970762D01*
X174553524Y-82875524D01*
X174458286Y-82827905D01*
X174267810Y-82780286D01*
X174124952Y-82780286D01*
X173934476Y-82827905D01*
X173839238Y-82875524D01*
X173744000Y-82970762D01*
X173696381Y-83113620D01*
X173696381Y-83208858D01*
X173744000Y-83351715D01*
X173791619Y-83399334D01*
X173696381Y-83732667D02*
X173696381Y-84351715D01*
X174077333Y-84018381D01*
X174077333Y-84161239D01*
X174124952Y-84256477D01*
X174172571Y-84304096D01*
X174267810Y-84351715D01*
X174505905Y-84351715D01*
X174601143Y-84304096D01*
X174648762Y-84256477D01*
X174696381Y-84161239D01*
X174696381Y-83875524D01*
X174648762Y-83780286D01*
X174601143Y-83732667D01*
X202350666Y-88495143D02*
X202398285Y-88542762D01*
X202541142Y-88590381D01*
X202636380Y-88590381D01*
X202779238Y-88542762D01*
X202874476Y-88447524D01*
X202922095Y-88352286D01*
X202969714Y-88161810D01*
X202969714Y-88018952D01*
X202922095Y-87828476D01*
X202874476Y-87733238D01*
X202779238Y-87638000D01*
X202636380Y-87590381D01*
X202541142Y-87590381D01*
X202398285Y-87638000D01*
X202350666Y-87685619D01*
X201493523Y-87923714D02*
X201493523Y-88590381D01*
X201731619Y-87542762D02*
X201969714Y-88257048D01*
X201350666Y-88257048D01*
X172156381Y-83399334D02*
X171680190Y-83066000D01*
X172156381Y-82827905D02*
X171156381Y-82827905D01*
X171156381Y-83208858D01*
X171204000Y-83304096D01*
X171251619Y-83351715D01*
X171346857Y-83399334D01*
X171489714Y-83399334D01*
X171584952Y-83351715D01*
X171632571Y-83304096D01*
X171680190Y-83208858D01*
X171680190Y-82827905D01*
X172156381Y-84351715D02*
X172156381Y-83780286D01*
X172156381Y-84066000D02*
X171156381Y-84066000D01*
X171299238Y-83970762D01*
X171394476Y-83875524D01*
X171442095Y-83780286D01*
X179014381Y-89495334D02*
X178538190Y-89162000D01*
X179014381Y-88923905D02*
X178014381Y-88923905D01*
X178014381Y-89304858D01*
X178062000Y-89400096D01*
X178109619Y-89447715D01*
X178204857Y-89495334D01*
X178347714Y-89495334D01*
X178442952Y-89447715D01*
X178490571Y-89400096D01*
X178538190Y-89304858D01*
X178538190Y-88923905D01*
X178014381Y-89828667D02*
X178014381Y-90447715D01*
X178395333Y-90114381D01*
X178395333Y-90257239D01*
X178442952Y-90352477D01*
X178490571Y-90400096D01*
X178585810Y-90447715D01*
X178823905Y-90447715D01*
X178919143Y-90400096D01*
X178966762Y-90352477D01*
X179014381Y-90257239D01*
X179014381Y-89971524D01*
X178966762Y-89876286D01*
X178919143Y-89828667D01*
X170854666Y-90368381D02*
X171188000Y-89892190D01*
X171426095Y-90368381D02*
X171426095Y-89368381D01*
X171045142Y-89368381D01*
X170949904Y-89416000D01*
X170902285Y-89463619D01*
X170854666Y-89558857D01*
X170854666Y-89701714D01*
X170902285Y-89796952D01*
X170949904Y-89844571D01*
X171045142Y-89892190D01*
X171426095Y-89892190D01*
X169997523Y-89701714D02*
X169997523Y-90368381D01*
X170235619Y-89320762D02*
X170473714Y-90035048D01*
X169854666Y-90035048D01*
X177236381Y-83399334D02*
X176760190Y-83066000D01*
X177236381Y-82827905D02*
X176236381Y-82827905D01*
X176236381Y-83208858D01*
X176284000Y-83304096D01*
X176331619Y-83351715D01*
X176426857Y-83399334D01*
X176569714Y-83399334D01*
X176664952Y-83351715D01*
X176712571Y-83304096D01*
X176760190Y-83208858D01*
X176760190Y-82827905D01*
X176236381Y-84304096D02*
X176236381Y-83827905D01*
X176712571Y-83780286D01*
X176664952Y-83827905D01*
X176617333Y-83923143D01*
X176617333Y-84161239D01*
X176664952Y-84256477D01*
X176712571Y-84304096D01*
X176807810Y-84351715D01*
X177045905Y-84351715D01*
X177141143Y-84304096D01*
X177188762Y-84256477D01*
X177236381Y-84161239D01*
X177236381Y-83923143D01*
X177188762Y-83827905D01*
X177141143Y-83780286D01*
X195706905Y-76287381D02*
X195706905Y-77096905D01*
X195659286Y-77192143D01*
X195611667Y-77239762D01*
X195516429Y-77287381D01*
X195325952Y-77287381D01*
X195230714Y-77239762D01*
X195183095Y-77192143D01*
X195135476Y-77096905D01*
X195135476Y-76287381D01*
X194230714Y-76620714D02*
X194230714Y-77287381D01*
X194468810Y-76239762D02*
X194706905Y-76954048D01*
X194087857Y-76954048D01*
M02*
