M48
;DRILL file {KiCad 0.201512281231+6406~40~ubuntu14.04.1-stable} date Son 03 Jan 2016 22:14:12 CET
;FORMAT={-:-/ absolute / metric / decimal}
FMAT,2
METRIC,TZ
T1C0.400
T2C0.800
T3C0.813
T4C1.001
T5C1.016
T6C1.270
T7C1.300
T8C1.349
T9C1.524
T10C2.500
%
G90
G05
M71
T1
X156.464Y-77.724
X171.704Y-83.058
X174.244Y-84.074
X178.308Y-90.424
X178.308Y-91.44
X196.596Y-85.852
X202.438Y-84.836
T2
X185.5Y-103.1
X193.Y-104.5
T3
X176.53Y-67.31
X176.53Y-72.39
X176.53Y-75.692
X176.53Y-80.772
X184.15Y-67.31
X184.15Y-72.39
X184.15Y-75.692
X184.15Y-80.772
T4
X166.116Y-81.28
T5
X157.48Y-82.042
X157.48Y-84.582
X157.48Y-87.122
X160.02Y-82.042
X160.02Y-84.582
X160.02Y-87.122
X163.83Y-67.31
X168.148Y-67.31
X172.466Y-67.31
X179.832Y-103.632
X187.325Y-67.31
X187.96Y-73.66
X187.96Y-76.2
X187.96Y-78.74
X187.96Y-81.28
X189.865Y-67.31
X192.405Y-67.31
X192.405Y-71.755
X193.675Y-81.915
X194.945Y-71.755
X196.215Y-81.915
X197.485Y-71.755
X201.93Y-73.66
X201.93Y-76.2
X201.93Y-78.74
X201.93Y-81.28
T6
X169.926Y-81.28
T7
X168.Y-91.25
X168.Y-95.
X168.Y-98.75
X188.Y-91.25
X188.Y-98.75
X193.Y-91.25
X193.Y-98.75
T8
X170.Y-110.
X174.999Y-110.
X185.001Y-110.
X190.Y-110.
T9
X160.Y-93.92
X160.Y-99.
X160.Y-104.08
X200.Y-98.46
X200.Y-103.54
T10
X158.Y-68.
X158.Y-112.
X202.Y-68.
X202.Y-112.
T0
M30
